G04*
G04 #@! TF.GenerationSoftware,Altium Limited,Altium Designer,23.3.1 (30)*
G04*
G04 Layer_Physical_Order=4*
G04 Layer_Color=16711680*
%FSLAX43Y43*%
%MOMM*%
G71*
G04*
G04 #@! TF.SameCoordinates,291B95C8-E4AE-492A-8979-900EF43719B7*
G04*
G04*
G04 #@! TF.FilePolarity,Positive*
G04*
G01*
G75*
%ADD14C,0.200*%
G04:AMPARAMS|DCode=19|XSize=0.7mm|YSize=0.9mm|CornerRadius=0.07mm|HoleSize=0mm|Usage=FLASHONLY|Rotation=180.000|XOffset=0mm|YOffset=0mm|HoleType=Round|Shape=RoundedRectangle|*
%AMROUNDEDRECTD19*
21,1,0.700,0.760,0,0,180.0*
21,1,0.560,0.900,0,0,180.0*
1,1,0.140,-0.280,0.380*
1,1,0.140,0.280,0.380*
1,1,0.140,0.280,-0.380*
1,1,0.140,-0.280,-0.380*
%
%ADD19ROUNDEDRECTD19*%
G04:AMPARAMS|DCode=20|XSize=0.7mm|YSize=0.9mm|CornerRadius=0.07mm|HoleSize=0mm|Usage=FLASHONLY|Rotation=270.000|XOffset=0mm|YOffset=0mm|HoleType=Round|Shape=RoundedRectangle|*
%AMROUNDEDRECTD20*
21,1,0.700,0.760,0,0,270.0*
21,1,0.560,0.900,0,0,270.0*
1,1,0.140,-0.380,-0.280*
1,1,0.140,-0.380,0.280*
1,1,0.140,0.380,0.280*
1,1,0.140,0.380,-0.280*
%
%ADD20ROUNDEDRECTD20*%
G04:AMPARAMS|DCode=22|XSize=2.665mm|YSize=4.19mm|CornerRadius=0.267mm|HoleSize=0mm|Usage=FLASHONLY|Rotation=180.000|XOffset=0mm|YOffset=0mm|HoleType=Round|Shape=RoundedRectangle|*
%AMROUNDEDRECTD22*
21,1,2.665,3.657,0,0,180.0*
21,1,2.132,4.190,0,0,180.0*
1,1,0.533,-1.066,1.829*
1,1,0.533,1.066,1.829*
1,1,0.533,1.066,-1.829*
1,1,0.533,-1.066,-1.829*
%
%ADD22ROUNDEDRECTD22*%
G04:AMPARAMS|DCode=23|XSize=0.75mm|YSize=0.96mm|CornerRadius=0.075mm|HoleSize=0mm|Usage=FLASHONLY|Rotation=0.000|XOffset=0mm|YOffset=0mm|HoleType=Round|Shape=RoundedRectangle|*
%AMROUNDEDRECTD23*
21,1,0.750,0.810,0,0,0.0*
21,1,0.600,0.960,0,0,0.0*
1,1,0.150,0.300,-0.405*
1,1,0.150,-0.300,-0.405*
1,1,0.150,-0.300,0.405*
1,1,0.150,0.300,0.405*
%
%ADD23ROUNDEDRECTD23*%
G04:AMPARAMS|DCode=32|XSize=0.75mm|YSize=0.96mm|CornerRadius=0.075mm|HoleSize=0mm|Usage=FLASHONLY|Rotation=270.000|XOffset=0mm|YOffset=0mm|HoleType=Round|Shape=RoundedRectangle|*
%AMROUNDEDRECTD32*
21,1,0.750,0.810,0,0,270.0*
21,1,0.600,0.960,0,0,270.0*
1,1,0.150,-0.405,-0.300*
1,1,0.150,-0.405,0.300*
1,1,0.150,0.405,0.300*
1,1,0.150,0.405,-0.300*
%
%ADD32ROUNDEDRECTD32*%
%ADD58C,0.300*%
%ADD59C,0.400*%
%ADD60C,1.925*%
G04:AMPARAMS|DCode=61|XSize=1.925mm|YSize=1.925mm|CornerRadius=0.193mm|HoleSize=0mm|Usage=FLASHONLY|Rotation=270.000|XOffset=0mm|YOffset=0mm|HoleType=Round|Shape=RoundedRectangle|*
%AMROUNDEDRECTD61*
21,1,1.925,1.540,0,0,270.0*
21,1,1.540,1.925,0,0,270.0*
1,1,0.385,-0.770,-0.770*
1,1,0.385,-0.770,0.770*
1,1,0.385,0.770,0.770*
1,1,0.385,0.770,-0.770*
%
%ADD61ROUNDEDRECTD61*%
%ADD62O,1.100X2.100*%
%ADD63O,1.100X2.600*%
%ADD64C,0.700*%
G04:AMPARAMS|DCode=65|XSize=0.8mm|YSize=0.8mm|CornerRadius=0.08mm|HoleSize=0mm|Usage=FLASHONLY|Rotation=0.000|XOffset=0mm|YOffset=0mm|HoleType=Round|Shape=RoundedRectangle|*
%AMROUNDEDRECTD65*
21,1,0.800,0.640,0,0,0.0*
21,1,0.640,0.800,0,0,0.0*
1,1,0.160,0.320,-0.320*
1,1,0.160,-0.320,-0.320*
1,1,0.160,-0.320,0.320*
1,1,0.160,0.320,0.320*
%
%ADD65ROUNDEDRECTD65*%
G04:AMPARAMS|DCode=66|XSize=1mm|YSize=3.1mm|CornerRadius=0.1mm|HoleSize=0mm|Usage=FLASHONLY|Rotation=90.000|XOffset=0mm|YOffset=0mm|HoleType=Round|Shape=RoundedRectangle|*
%AMROUNDEDRECTD66*
21,1,1.000,2.900,0,0,90.0*
21,1,0.800,3.100,0,0,90.0*
1,1,0.200,1.450,0.400*
1,1,0.200,1.450,-0.400*
1,1,0.200,-1.450,-0.400*
1,1,0.200,-1.450,0.400*
%
%ADD66ROUNDEDRECTD66*%
%ADD67R,3.100X1.000*%
G36*
X4250Y6050D02*
Y3950D01*
X2150D01*
X850Y5250D01*
Y6150D01*
X1150Y6450D01*
X3850D01*
X4250Y6050D01*
D02*
G37*
G36*
X10150Y6150D02*
Y5250D01*
X8850Y3950D01*
X6750D01*
Y6050D01*
X7150Y6450D01*
X9850D01*
X10150Y6150D01*
D02*
G37*
D14*
X19500Y3065D02*
X20750D01*
X18250D02*
X19500D01*
X7000Y10000D02*
X8050D01*
X7000Y8750D02*
Y10000D01*
X1750Y16750D02*
X6750D01*
X15930Y10000D02*
X16950D01*
X14930Y11000D02*
X15930Y10000D01*
X11845Y11000D02*
X14930D01*
X8050Y10000D02*
X8300Y9750D01*
X10595D01*
X11845Y11000D01*
X16950Y10000D02*
X18037D01*
X19352Y11315D02*
X19500D01*
X18037Y10000D02*
X19352Y11315D01*
X16750Y12750D02*
X19435D01*
X19500Y12685D01*
X5850Y14000D02*
X8050D01*
X14750D02*
X16950D01*
X13250Y16250D02*
X13500D01*
X14250Y17000D01*
X13250Y17750D02*
X13500D01*
X14250Y17000D01*
X11750Y16250D02*
X11750Y16250D01*
X10435Y16250D02*
X11750D01*
Y17750D02*
X11750Y17750D01*
X10435Y17750D02*
X11750D01*
X3000Y29050D02*
X3015Y29065D01*
X4500D01*
X4500Y29065D01*
Y28000D02*
Y29065D01*
X6000Y28000D02*
Y29050D01*
X6015Y29065D01*
X7500D01*
X18250Y4435D02*
Y8500D01*
X18750Y9000D01*
X20500Y4685D02*
X20750Y4435D01*
X20500Y4685D02*
Y5600D01*
X9742Y23467D02*
X10275Y24000D01*
X9742Y16927D02*
Y23467D01*
X9065Y16250D02*
X9742Y16927D01*
X9065Y24190D02*
X9625Y24750D01*
X9065Y17750D02*
Y24190D01*
D19*
X10435Y16250D02*
D03*
X9065Y16250D02*
D03*
X10435Y17750D02*
D03*
X9065D02*
D03*
D20*
X4500Y29065D02*
D03*
Y30435D02*
D03*
X7500Y29065D02*
D03*
Y30435D02*
D03*
X19500Y11315D02*
D03*
Y12685D02*
D03*
X18250Y3065D02*
D03*
Y4435D02*
D03*
X20750Y3065D02*
D03*
Y4435D02*
D03*
D22*
X2900Y2750D02*
D03*
X8100D02*
D03*
D23*
X11800Y34750D02*
D03*
X13200D02*
D03*
D32*
X3000Y29050D02*
D03*
Y30450D02*
D03*
X6000Y29050D02*
D03*
Y30450D02*
D03*
D58*
X11685Y12685D02*
X14750D01*
X1750Y12000D02*
X2750Y13000D01*
X1750Y9750D02*
Y12000D01*
X2750Y13000D02*
X10000D01*
X11250Y14250D01*
X13250D01*
X15000Y16000D01*
X6200Y11950D02*
X6743D01*
X11000Y12000D02*
X11685Y12685D01*
X6793Y12000D02*
X11000D01*
X6743Y11950D02*
X6793Y12000D01*
X2900Y11950D02*
X6200D01*
D59*
X10595Y34750D02*
X11800D01*
X13200D02*
X14405D01*
X7500Y30435D02*
X8485D01*
X3000Y30450D02*
X4485D01*
X4515D02*
X6000D01*
X7485D01*
D60*
X12500Y1690D02*
D03*
Y4230D02*
D03*
Y6770D02*
D03*
D61*
Y9310D02*
D03*
D62*
X24070Y7500D02*
D03*
X15430D02*
D03*
D63*
X24070Y2140D02*
D03*
X15430D02*
D03*
D64*
X19500Y3065D02*
D03*
X7000Y8750D02*
D03*
X6750Y16750D02*
D03*
X14750Y12685D02*
D03*
X1750Y9750D02*
D03*
X2900Y11950D02*
D03*
X11685Y12685D02*
D03*
Y15250D02*
D03*
X5850Y14000D02*
D03*
X14750D02*
D03*
X14250Y17000D02*
D03*
X14405Y34750D02*
D03*
X10595D02*
D03*
X8500Y30450D02*
D03*
X6000Y28000D02*
D03*
X4500D02*
D03*
X10500Y28750D02*
D03*
X21250Y20000D02*
D03*
X19750D02*
D03*
X23750Y23185D02*
D03*
X20500Y5600D02*
D03*
X18750Y9000D02*
D03*
X15000Y16000D02*
D03*
X15250Y22990D02*
D03*
X12500Y24250D02*
D03*
X10275Y24000D02*
D03*
X9625Y24750D02*
D03*
X10250Y10500D02*
D03*
X7815Y17940D02*
D03*
X3250Y26640D02*
D03*
X3250Y20625D02*
D03*
X16750Y11500D02*
D03*
Y12750D02*
D03*
Y15250D02*
D03*
X17000Y20250D02*
D03*
X19750Y9750D02*
D03*
X20750D02*
D03*
X6200Y11950D02*
D03*
X3100Y17750D02*
D03*
X1750Y16750D02*
D03*
X23750Y11000D02*
D03*
X20750Y14500D02*
D03*
Y15500D02*
D03*
X19750Y25250D02*
D03*
X7400Y5750D02*
D03*
X8500D02*
D03*
X9600D02*
D03*
X1400D02*
D03*
X2500D02*
D03*
X3600D02*
D03*
D65*
X13250Y16250D02*
D03*
X11750D02*
D03*
Y17750D02*
D03*
X13250Y17750D02*
D03*
D66*
X8050Y14000D02*
D03*
X16950Y10000D02*
D03*
X8050D02*
D03*
D67*
X16950Y14000D02*
D03*
M02*
