M48
;Layer_Color=9474304
;FILE_FORMAT=4:3
METRIC,LZ
;TYPE=PLATED
T1F00S00C0.300
T3F00S00C1.100
;TYPE=NON_PLATED
T4F00S00C3.200
%
T01
X00014Y000575
X00025
X00036
X00074
X00085
X00096
X001025Y00105
X0011685Y0012685
X001475
Y0014
X001675Y001275
Y00115
X001875Y0009
X001975Y000975
X002075
X002375Y0011
X00205Y00056
X00195Y0003065
X0007Y000875
X00062Y001195
X000585Y0014
X00029Y001195
X000175Y000975
Y001675
X00031Y001775
X000325Y0020625
X000325Y002664
X00045Y0028
X0006
X00085Y003045
X00105Y002875
X0009625Y002475
X0010275Y0024
X00125Y002425
X001525Y002299
X0017Y002025
X001975Y002
X002125
X002075Y00155
Y00145
X001675Y001525
X0015Y0016
X001425Y0017
X0011685Y001525
X000675Y001675
X0007815Y001794
X001975Y002525
X002375Y0023185
X0014405Y003475
X0010595
T03
X00125Y000169
Y000423
Y000677
Y000931
T04
X00035Y00415
X00215Y00415
M30
