G04*
G04 #@! TF.GenerationSoftware,Altium Limited,Altium Designer,23.3.1 (30)*
G04*
G04 Layer_Physical_Order=1*
G04 Layer_Color=255*
%FSLAX43Y43*%
%MOMM*%
G71*
G04*
G04 #@! TF.SameCoordinates,291B95C8-E4AE-492A-8979-900EF43719B7*
G04*
G04*
G04 #@! TF.FilePolarity,Positive*
G04*
G01*
G75*
%ADD14C,0.200*%
G04:AMPARAMS|DCode=15|XSize=1.47mm|YSize=1.19mm|CornerRadius=0.119mm|HoleSize=0mm|Usage=FLASHONLY|Rotation=270.000|XOffset=0mm|YOffset=0mm|HoleType=Round|Shape=RoundedRectangle|*
%AMROUNDEDRECTD15*
21,1,1.470,0.952,0,0,270.0*
21,1,1.232,1.190,0,0,270.0*
1,1,0.238,-0.476,-0.616*
1,1,0.238,-0.476,0.616*
1,1,0.238,0.476,0.616*
1,1,0.238,0.476,-0.616*
%
%ADD15ROUNDEDRECTD15*%
G04:AMPARAMS|DCode=16|XSize=0.95mm|YSize=1.45mm|CornerRadius=0.095mm|HoleSize=0mm|Usage=FLASHONLY|Rotation=90.000|XOffset=0mm|YOffset=0mm|HoleType=Round|Shape=RoundedRectangle|*
%AMROUNDEDRECTD16*
21,1,0.950,1.260,0,0,90.0*
21,1,0.760,1.450,0,0,90.0*
1,1,0.190,0.630,0.380*
1,1,0.190,0.630,-0.380*
1,1,0.190,-0.630,-0.380*
1,1,0.190,-0.630,0.380*
%
%ADD16ROUNDEDRECTD16*%
G04:AMPARAMS|DCode=17|XSize=2mm|YSize=3mm|CornerRadius=0.2mm|HoleSize=0mm|Usage=FLASHONLY|Rotation=180.000|XOffset=0mm|YOffset=0mm|HoleType=Round|Shape=RoundedRectangle|*
%AMROUNDEDRECTD17*
21,1,2.000,2.600,0,0,180.0*
21,1,1.600,3.000,0,0,180.0*
1,1,0.400,-0.800,1.300*
1,1,0.400,0.800,1.300*
1,1,0.400,0.800,-1.300*
1,1,0.400,-0.800,-1.300*
%
%ADD17ROUNDEDRECTD17*%
G04:AMPARAMS|DCode=18|XSize=0.6mm|YSize=1.5mm|CornerRadius=0.06mm|HoleSize=0mm|Usage=FLASHONLY|Rotation=0.000|XOffset=0mm|YOffset=0mm|HoleType=Round|Shape=RoundedRectangle|*
%AMROUNDEDRECTD18*
21,1,0.600,1.380,0,0,0.0*
21,1,0.480,1.500,0,0,0.0*
1,1,0.120,0.240,-0.690*
1,1,0.120,-0.240,-0.690*
1,1,0.120,-0.240,0.690*
1,1,0.120,0.240,0.690*
%
%ADD18ROUNDEDRECTD18*%
G04:AMPARAMS|DCode=19|XSize=0.7mm|YSize=0.9mm|CornerRadius=0.07mm|HoleSize=0mm|Usage=FLASHONLY|Rotation=180.000|XOffset=0mm|YOffset=0mm|HoleType=Round|Shape=RoundedRectangle|*
%AMROUNDEDRECTD19*
21,1,0.700,0.760,0,0,180.0*
21,1,0.560,0.900,0,0,180.0*
1,1,0.140,-0.280,0.380*
1,1,0.140,0.280,0.380*
1,1,0.140,0.280,-0.380*
1,1,0.140,-0.280,-0.380*
%
%ADD19ROUNDEDRECTD19*%
G04:AMPARAMS|DCode=20|XSize=0.7mm|YSize=0.9mm|CornerRadius=0.07mm|HoleSize=0mm|Usage=FLASHONLY|Rotation=270.000|XOffset=0mm|YOffset=0mm|HoleType=Round|Shape=RoundedRectangle|*
%AMROUNDEDRECTD20*
21,1,0.700,0.760,0,0,270.0*
21,1,0.560,0.900,0,0,270.0*
1,1,0.140,-0.380,-0.280*
1,1,0.140,-0.380,0.280*
1,1,0.140,0.380,0.280*
1,1,0.140,0.380,-0.280*
%
%ADD20ROUNDEDRECTD20*%
G04:AMPARAMS|DCode=21|XSize=1.78mm|YSize=4.19mm|CornerRadius=0.178mm|HoleSize=0mm|Usage=FLASHONLY|Rotation=180.000|XOffset=0mm|YOffset=0mm|HoleType=Round|Shape=RoundedRectangle|*
%AMROUNDEDRECTD21*
21,1,1.780,3.834,0,0,180.0*
21,1,1.424,4.190,0,0,180.0*
1,1,0.356,-0.712,1.917*
1,1,0.356,0.712,1.917*
1,1,0.356,0.712,-1.917*
1,1,0.356,-0.712,-1.917*
%
%ADD21ROUNDEDRECTD21*%
G04:AMPARAMS|DCode=22|XSize=2.665mm|YSize=4.19mm|CornerRadius=0.267mm|HoleSize=0mm|Usage=FLASHONLY|Rotation=180.000|XOffset=0mm|YOffset=0mm|HoleType=Round|Shape=RoundedRectangle|*
%AMROUNDEDRECTD22*
21,1,2.665,3.657,0,0,180.0*
21,1,2.132,4.190,0,0,180.0*
1,1,0.533,-1.066,1.829*
1,1,0.533,1.066,1.829*
1,1,0.533,1.066,-1.829*
1,1,0.533,-1.066,-1.829*
%
%ADD22ROUNDEDRECTD22*%
G04:AMPARAMS|DCode=23|XSize=0.75mm|YSize=0.96mm|CornerRadius=0.075mm|HoleSize=0mm|Usage=FLASHONLY|Rotation=0.000|XOffset=0mm|YOffset=0mm|HoleType=Round|Shape=RoundedRectangle|*
%AMROUNDEDRECTD23*
21,1,0.750,0.810,0,0,0.0*
21,1,0.600,0.960,0,0,0.0*
1,1,0.150,0.300,-0.405*
1,1,0.150,-0.300,-0.405*
1,1,0.150,-0.300,0.405*
1,1,0.150,0.300,0.405*
%
%ADD23ROUNDEDRECTD23*%
G04:AMPARAMS|DCode=24|XSize=0.95mm|YSize=1.45mm|CornerRadius=0.095mm|HoleSize=0mm|Usage=FLASHONLY|Rotation=180.000|XOffset=0mm|YOffset=0mm|HoleType=Round|Shape=RoundedRectangle|*
%AMROUNDEDRECTD24*
21,1,0.950,1.260,0,0,180.0*
21,1,0.760,1.450,0,0,180.0*
1,1,0.190,-0.380,0.630*
1,1,0.190,0.380,0.630*
1,1,0.190,0.380,-0.630*
1,1,0.190,-0.380,-0.630*
%
%ADD24ROUNDEDRECTD24*%
G04:AMPARAMS|DCode=25|XSize=0.3mm|YSize=0.7mm|CornerRadius=0.03mm|HoleSize=0mm|Usage=FLASHONLY|Rotation=0.000|XOffset=0mm|YOffset=0mm|HoleType=Round|Shape=RoundedRectangle|*
%AMROUNDEDRECTD25*
21,1,0.300,0.640,0,0,0.0*
21,1,0.240,0.700,0,0,0.0*
1,1,0.060,0.120,-0.320*
1,1,0.060,-0.120,-0.320*
1,1,0.060,-0.120,0.320*
1,1,0.060,0.120,0.320*
%
%ADD25ROUNDEDRECTD25*%
G04:AMPARAMS|DCode=26|XSize=1mm|YSize=0.7mm|CornerRadius=0.07mm|HoleSize=0mm|Usage=FLASHONLY|Rotation=0.000|XOffset=0mm|YOffset=0mm|HoleType=Round|Shape=RoundedRectangle|*
%AMROUNDEDRECTD26*
21,1,1.000,0.560,0,0,0.0*
21,1,0.860,0.700,0,0,0.0*
1,1,0.140,0.430,-0.280*
1,1,0.140,-0.430,-0.280*
1,1,0.140,-0.430,0.280*
1,1,0.140,0.430,0.280*
%
%ADD26ROUNDEDRECTD26*%
G04:AMPARAMS|DCode=27|XSize=0.55mm|YSize=0.8mm|CornerRadius=0.055mm|HoleSize=0mm|Usage=FLASHONLY|Rotation=270.000|XOffset=0mm|YOffset=0mm|HoleType=Round|Shape=RoundedRectangle|*
%AMROUNDEDRECTD27*
21,1,0.550,0.690,0,0,270.0*
21,1,0.440,0.800,0,0,270.0*
1,1,0.110,-0.345,-0.220*
1,1,0.110,-0.345,0.220*
1,1,0.110,0.345,0.220*
1,1,0.110,0.345,-0.220*
%
%ADD27ROUNDEDRECTD27*%
G04:AMPARAMS|DCode=28|XSize=0.6mm|YSize=0.95mm|CornerRadius=0.06mm|HoleSize=0mm|Usage=FLASHONLY|Rotation=180.000|XOffset=0mm|YOffset=0mm|HoleType=Round|Shape=RoundedRectangle|*
%AMROUNDEDRECTD28*
21,1,0.600,0.830,0,0,180.0*
21,1,0.480,0.950,0,0,180.0*
1,1,0.120,-0.240,0.415*
1,1,0.120,0.240,0.415*
1,1,0.120,0.240,-0.415*
1,1,0.120,-0.240,-0.415*
%
%ADD28ROUNDEDRECTD28*%
%ADD29R,0.421X1.955*%
G04:AMPARAMS|DCode=30|XSize=1.955mm|YSize=0.421mm|CornerRadius=0.21mm|HoleSize=0mm|Usage=FLASHONLY|Rotation=270.000|XOffset=0mm|YOffset=0mm|HoleType=Round|Shape=RoundedRectangle|*
%AMROUNDEDRECTD30*
21,1,1.955,0.000,0,0,270.0*
21,1,1.534,0.421,0,0,270.0*
1,1,0.421,0.000,-0.767*
1,1,0.421,0.000,0.767*
1,1,0.421,0.000,0.767*
1,1,0.421,0.000,-0.767*
%
%ADD30ROUNDEDRECTD30*%
G04:AMPARAMS|DCode=31|XSize=0.3mm|YSize=0.67mm|CornerRadius=0.03mm|HoleSize=0mm|Usage=FLASHONLY|Rotation=90.000|XOffset=0mm|YOffset=0mm|HoleType=Round|Shape=RoundedRectangle|*
%AMROUNDEDRECTD31*
21,1,0.300,0.610,0,0,90.0*
21,1,0.240,0.670,0,0,90.0*
1,1,0.060,0.305,0.120*
1,1,0.060,0.305,-0.120*
1,1,0.060,-0.305,-0.120*
1,1,0.060,-0.305,0.120*
%
%ADD31ROUNDEDRECTD31*%
G04:AMPARAMS|DCode=32|XSize=0.75mm|YSize=0.96mm|CornerRadius=0.075mm|HoleSize=0mm|Usage=FLASHONLY|Rotation=270.000|XOffset=0mm|YOffset=0mm|HoleType=Round|Shape=RoundedRectangle|*
%AMROUNDEDRECTD32*
21,1,0.750,0.810,0,0,270.0*
21,1,0.600,0.960,0,0,270.0*
1,1,0.150,-0.405,-0.300*
1,1,0.150,-0.405,0.300*
1,1,0.150,0.405,0.300*
1,1,0.150,0.405,-0.300*
%
%ADD32ROUNDEDRECTD32*%
%ADD57C,1.000*%
%ADD58C,0.300*%
%ADD59C,0.400*%
%ADD60C,1.925*%
G04:AMPARAMS|DCode=61|XSize=1.925mm|YSize=1.925mm|CornerRadius=0.193mm|HoleSize=0mm|Usage=FLASHONLY|Rotation=270.000|XOffset=0mm|YOffset=0mm|HoleType=Round|Shape=RoundedRectangle|*
%AMROUNDEDRECTD61*
21,1,1.925,1.540,0,0,270.0*
21,1,1.540,1.925,0,0,270.0*
1,1,0.385,-0.770,-0.770*
1,1,0.385,-0.770,0.770*
1,1,0.385,0.770,0.770*
1,1,0.385,0.770,-0.770*
%
%ADD61ROUNDEDRECTD61*%
%ADD62O,1.100X2.100*%
%ADD63O,1.100X2.600*%
%ADD64C,0.700*%
G36*
X4200Y6050D02*
Y5150D01*
X2900Y3850D01*
X800D01*
Y5950D01*
X1200Y6350D01*
X3900D01*
X4200Y6050D01*
D02*
G37*
G36*
X10200Y5950D02*
Y3850D01*
X8100D01*
X6800Y5150D01*
Y6050D01*
X7100Y6350D01*
X9800D01*
X10200Y5950D01*
D02*
G37*
G36*
X21250Y9500D02*
X21000Y9250D01*
X19500D01*
X19250Y9500D01*
Y11500D01*
X21250D01*
Y9500D01*
D02*
G37*
G36*
X21950Y14750D02*
Y13750D01*
X21750Y13550D01*
X20950Y13550D01*
X19550Y14950D01*
Y15750D01*
X20950D01*
X21950Y14750D01*
D02*
G37*
G36*
X15250Y38250D02*
X15000Y38000D01*
X12750D01*
Y41000D01*
X13500Y41750D01*
X15250D01*
Y38250D01*
D02*
G37*
G36*
X12250Y41000D02*
Y38000D01*
X10000D01*
X9750Y38250D01*
Y41750D01*
X11500D01*
X12250Y41000D01*
D02*
G37*
D14*
X7250Y11065D02*
Y16250D01*
Y11065D02*
X8000Y10315D01*
X6000Y17250D02*
X7675Y18925D01*
X6000Y15008D02*
Y17250D01*
X7675Y18925D02*
Y20625D01*
X6850Y10899D02*
Y14158D01*
X6000Y15008D02*
X6850Y14158D01*
Y10899D02*
X6851Y10898D01*
Y9891D02*
Y10898D01*
Y9891D02*
X7000Y9743D01*
X6750Y16750D02*
X7250Y16250D01*
X7000Y8750D02*
Y9743D01*
X10200Y16885D02*
X10315Y17000D01*
X10200Y15440D02*
Y16885D01*
X23610Y7960D02*
X24070Y7500D01*
X22750Y7960D02*
X23610D01*
X22750Y6710D02*
Y7960D01*
Y6710D02*
X22850Y6610D01*
X15430Y7500D02*
X15890Y7960D01*
X16750D01*
Y6710D02*
Y7960D01*
X16650Y6610D02*
X16750Y6710D01*
X11685Y15250D02*
Y17000D01*
X11000Y18000D02*
X11930D01*
X9625Y19375D02*
Y20625D01*
Y19375D02*
X11000Y18000D01*
X11930D02*
X12500Y17430D01*
X8325Y18675D02*
X9185Y17815D01*
Y17000D02*
Y17815D01*
X8325Y18675D02*
Y20625D01*
X8975Y19025D02*
Y20625D01*
X10315Y17000D02*
Y17685D01*
X8975Y19025D02*
X10315Y17685D01*
X12500Y11564D02*
Y17430D01*
X11000Y10064D02*
X12500Y11564D01*
X11000Y5730D02*
Y10064D01*
Y5730D02*
X12500Y4230D01*
X13600Y16223D02*
Y17806D01*
X13971Y8241D02*
Y15852D01*
X13600Y16223D02*
X13971Y15852D01*
X12500Y18906D02*
X13600Y17806D01*
X12500Y18906D02*
Y21815D01*
Y6770D02*
X13971Y8241D01*
X15430Y7500D02*
Y9320D01*
X15000Y9750D02*
X15430Y9320D01*
X6000Y28000D02*
Y29065D01*
X4500Y28000D02*
Y29065D01*
X2250Y20250D02*
X4500Y18000D01*
X2250Y20250D02*
Y29000D01*
X3000Y29750D01*
X5315D01*
X6000Y30435D01*
X1750Y18000D02*
Y29250D01*
X2935Y30435D02*
X4500D01*
X1750Y29250D02*
X2935Y30435D01*
X5935Y31750D02*
X10750D01*
X11865Y32865D01*
X11500Y31250D02*
X13135Y32885D01*
X6815Y31250D02*
X11500D01*
X6000Y30435D02*
X6815Y31250D01*
X13135Y32885D02*
Y33300D01*
X11865Y32865D02*
Y33300D01*
X4500Y31685D02*
X4565Y31750D01*
X4500Y30435D02*
Y31685D01*
X5725Y27725D02*
X6000Y28000D01*
X5725Y26375D02*
Y27725D01*
X4500Y28000D02*
X5075Y27425D01*
Y26375D02*
Y27425D01*
X19200Y16250D02*
X21565D01*
X17950Y15000D02*
X19200Y16250D01*
X21565D02*
X21815Y16000D01*
X20500Y5600D02*
Y6610D01*
X18750Y7960D02*
Y9000D01*
X15250Y22050D02*
Y22990D01*
X15250Y22990D01*
X12310Y22005D02*
X12500Y21815D01*
X10550Y22005D02*
X12310D01*
X10275Y21730D02*
X10550Y22005D01*
X12500Y23185D02*
Y24250D01*
X10275Y20625D02*
Y21730D01*
Y24000D02*
Y26375D01*
X9625Y24750D02*
Y26375D01*
X9185Y17000D02*
X9250Y16935D01*
Y15440D02*
Y16935D01*
X7815Y17000D02*
Y17940D01*
X7815Y17940D01*
X7675Y25025D02*
Y26375D01*
X6950Y24300D02*
X7675Y25025D01*
X3250Y24300D02*
X6950D01*
X3250Y24300D02*
X3250Y24300D01*
X3250Y22935D02*
Y24300D01*
X3250Y25700D02*
Y26640D01*
X3250Y26640D01*
X3250Y20625D02*
X3250Y20625D01*
Y21565D01*
X4500Y16750D02*
Y18000D01*
Y15635D02*
Y16750D01*
X4400Y15535D02*
X4500Y15635D01*
X1750Y16750D02*
Y18000D01*
Y15685D02*
Y16750D01*
X1800Y14165D02*
X2950Y13015D01*
Y12900D02*
Y13015D01*
X3915Y9300D02*
Y11935D01*
X4400Y14165D02*
X5250Y13315D01*
Y12900D02*
Y13315D01*
X4400Y14165D02*
X4400Y14165D01*
X3100Y14165D02*
X4400D01*
X3915Y7900D02*
Y9300D01*
X2950Y12900D02*
X3915Y11935D01*
X5250Y6500D02*
Y11000D01*
Y6500D02*
X5500Y6250D01*
Y2750D02*
Y6250D01*
D15*
X14860Y18750D02*
D03*
X16640D02*
D03*
X18110Y13000D02*
D03*
X19890D02*
D03*
D16*
X15250Y22050D02*
D03*
Y20450D02*
D03*
D17*
X10595Y43000D02*
D03*
X14405D02*
D03*
D18*
Y38700D02*
D03*
X13135D02*
D03*
X11865D02*
D03*
X10595D02*
D03*
X14405Y33300D02*
D03*
X13135D02*
D03*
X11865D02*
D03*
X10595D02*
D03*
X22155Y26950D02*
D03*
X20885Y26950D02*
D03*
X19615D02*
D03*
X18345D02*
D03*
X22155Y21550D02*
D03*
X20885D02*
D03*
X19615D02*
D03*
X18345D02*
D03*
D19*
X5935Y31750D02*
D03*
X4565D02*
D03*
X10315Y17000D02*
D03*
X11685D02*
D03*
X9185D02*
D03*
X7815D02*
D03*
X3915Y7900D02*
D03*
X5285Y7900D02*
D03*
X23185Y16000D02*
D03*
X21815D02*
D03*
Y14750D02*
D03*
X23185D02*
D03*
D20*
X6000Y30435D02*
D03*
Y29065D02*
D03*
X4500Y30435D02*
D03*
Y29065D02*
D03*
X1750Y15685D02*
D03*
Y14315D02*
D03*
X4400Y15535D02*
D03*
Y14165D02*
D03*
X3100Y14165D02*
D03*
Y15535D02*
D03*
X8000Y10315D02*
D03*
Y11685D02*
D03*
X3250Y22935D02*
D03*
X3250Y21565D02*
D03*
X12500Y23185D02*
D03*
Y21815D02*
D03*
D21*
X5500Y2750D02*
D03*
D22*
X2008D02*
D03*
X8992D02*
D03*
D23*
X3100Y16750D02*
D03*
X4500D02*
D03*
X3900Y9300D02*
D03*
X5300Y9300D02*
D03*
X9300Y11750D02*
D03*
X10700D02*
D03*
X8050Y28750D02*
D03*
X9450D02*
D03*
D24*
X18950Y29000D02*
D03*
X20550Y29000D02*
D03*
X19800Y18750D02*
D03*
X18200Y18750D02*
D03*
X21200Y18750D02*
D03*
X22800D02*
D03*
X20950Y11000D02*
D03*
X22550D02*
D03*
X19550Y15000D02*
D03*
X17950D02*
D03*
X19550Y11000D02*
D03*
X17950D02*
D03*
D25*
X16750Y7960D02*
D03*
X17250D02*
D03*
X17750D02*
D03*
X18250D02*
D03*
X18750D02*
D03*
X19250Y7960D02*
D03*
X20250D02*
D03*
X20750Y7960D02*
D03*
X21250D02*
D03*
X21750D02*
D03*
X22250D02*
D03*
X22750D02*
D03*
X22000Y6610D02*
D03*
X21500D02*
D03*
X21000D02*
D03*
X20500D02*
D03*
X20000D02*
D03*
X19500D02*
D03*
X19000D02*
D03*
X18500D02*
D03*
X18000D02*
D03*
X17500D02*
D03*
D26*
X22850D02*
D03*
X16650D02*
D03*
D27*
X2950Y11000D02*
D03*
X2950Y12900D02*
D03*
X5250D02*
D03*
Y11950D02*
D03*
Y11000D02*
D03*
D28*
X8300Y15440D02*
D03*
X9250D02*
D03*
X10200D02*
D03*
Y13060D02*
D03*
X9250D02*
D03*
X8300D02*
D03*
D29*
X10925Y26375D02*
D03*
D30*
X10275D02*
D03*
X9625D02*
D03*
X8975D02*
D03*
X8325D02*
D03*
X7675D02*
D03*
X7025D02*
D03*
X6375D02*
D03*
X5725D02*
D03*
X5075D02*
D03*
Y20625D02*
D03*
X5725D02*
D03*
X6375D02*
D03*
X7025D02*
D03*
X7675D02*
D03*
X8325D02*
D03*
X8975D02*
D03*
X9625D02*
D03*
X10275D02*
D03*
X10925D02*
D03*
D31*
X21260Y13500D02*
D03*
Y13000D02*
D03*
X21260Y12500D02*
D03*
X22740D02*
D03*
X22740Y13000D02*
D03*
Y13500D02*
D03*
D32*
X3250Y25700D02*
D03*
Y24300D02*
D03*
X1700Y10650D02*
D03*
Y12050D02*
D03*
D57*
X15750Y17000D02*
D03*
X15000Y9750D02*
D03*
X23750Y24200D02*
D03*
X17000Y21750D02*
D03*
X5500Y6250D02*
D03*
X1750Y18000D02*
D03*
X4500D02*
D03*
X15750Y12000D02*
D03*
X22250Y9500D02*
D03*
D58*
X14750Y11200D02*
Y12685D01*
Y11200D02*
X15250Y10700D01*
X16045D01*
X18250Y8495D01*
X1700Y10650D02*
X1925Y10875D01*
X2825D02*
X2950Y11000D01*
X1925Y10875D02*
X2825D01*
X1700Y10650D02*
X1750Y10600D01*
Y9750D02*
Y10600D01*
X1700Y12050D02*
X1800Y11950D01*
X2900D01*
X15750Y16750D02*
Y17000D01*
X15000Y16000D02*
X15750Y16750D01*
X10750Y11750D02*
X11685Y12685D01*
X10700Y11750D02*
X10750D01*
X23474Y13205D02*
Y13755D01*
X23185Y14044D02*
Y14750D01*
Y14044D02*
X23474Y13755D01*
X23185Y16000D02*
X23185Y16000D01*
X23185Y14750D02*
Y16000D01*
X23269Y13000D02*
X23474Y13205D01*
X22740Y13000D02*
X23269D01*
X19890D02*
X21260D01*
X18250Y7960D02*
Y8495D01*
X14860Y18750D02*
X15750Y17860D01*
Y17000D02*
Y17860D01*
X10500Y28750D02*
X10500Y28750D01*
X9450Y28750D02*
X10500D01*
X8975Y28275D02*
X9450Y28750D01*
X8975Y26375D02*
Y28275D01*
X21250Y8500D02*
X22250Y9500D01*
X14860Y20060D02*
X15250Y20450D01*
X14860Y18750D02*
Y20060D01*
X23750Y23185D02*
Y24200D01*
X19615Y26950D02*
X19750Y26815D01*
Y25250D02*
Y26815D01*
X18345Y26950D02*
Y28395D01*
X18950Y29000D01*
X20885Y26950D02*
Y28665D01*
X20550Y29000D02*
X20885Y28665D01*
X22740Y11190D02*
Y12500D01*
X21260D02*
X22740D01*
X21250Y7960D02*
Y8500D01*
X18500Y5850D02*
Y6610D01*
Y5850D02*
X19456Y4894D01*
X20807D01*
X21214Y5301D01*
Y5893D01*
X21000Y6107D02*
X21214Y5893D01*
X21000Y6107D02*
Y6610D01*
Y7179D02*
X21250Y7429D01*
X21000Y6610D02*
Y7179D01*
X21250Y7429D02*
Y7960D01*
X18250Y7429D02*
Y7960D01*
X18500Y6610D02*
Y7179D01*
X18250Y7429D02*
X18500Y7179D01*
X8300Y11685D02*
Y13060D01*
X8300Y11685D02*
X8300Y11685D01*
X8000Y11685D02*
X8300D01*
X9300Y11450D02*
X10250Y10500D01*
X9300Y11450D02*
Y11750D01*
X9250Y13060D02*
X9300Y13010D01*
Y11750D02*
Y13010D01*
X10200Y12250D02*
Y13060D01*
Y12250D02*
X10700Y11750D01*
X10200Y13060D02*
Y13889D01*
X9857Y14232D02*
X10200Y13889D01*
X8701Y14232D02*
X9857D01*
X8300Y14633D02*
X8701Y14232D01*
X8300Y14633D02*
Y15440D01*
X3100Y15535D02*
Y17750D01*
X3100Y17750D02*
X3100Y17750D01*
X5250Y11950D02*
X6200D01*
D59*
X23750Y11000D02*
Y12050D01*
X24070Y12370D01*
X22740Y11000D02*
X23750D01*
X24070Y12370D02*
Y17480D01*
X14405Y34750D02*
X18500D01*
X10595Y33300D02*
Y34750D01*
X14405Y33300D02*
Y34750D01*
X8050Y28750D02*
Y30000D01*
X8500Y30450D01*
X8050Y27740D02*
X8325Y27465D01*
Y26375D02*
Y27465D01*
X8050Y27740D02*
Y28750D01*
X19750Y18800D02*
X19800Y18750D01*
X19750Y18800D02*
Y20000D01*
X21200Y18750D02*
X21250Y18800D01*
Y20000D01*
X17700Y15250D02*
X17950Y15000D01*
X16750Y15250D02*
X17700D01*
X17950Y15000D02*
X18110Y14840D01*
Y13000D02*
Y14840D01*
X16250Y11500D02*
X16750D01*
X15750Y12000D02*
X16250Y11500D01*
X16750Y12750D02*
X17000Y13000D01*
X18110D01*
X17950Y11000D02*
X18110Y11160D01*
Y13000D01*
X16750Y11500D02*
X17250Y11000D01*
X17950D01*
X18145Y21750D02*
X18345Y21550D01*
X17000Y21750D02*
X18145D01*
X17000Y20250D02*
Y21750D01*
X16640Y19890D02*
X17000Y20250D01*
X16640Y18750D02*
Y19890D01*
Y18750D02*
X16640Y18750D01*
X18200D01*
X22740Y22760D02*
X23250Y22250D01*
X22740Y22760D02*
Y25155D01*
X23250Y19200D02*
Y22250D01*
X18500Y34750D02*
X23185Y30065D01*
Y25600D02*
Y30065D01*
X22740Y25155D02*
X23185Y25600D01*
X22800Y18750D02*
X23250Y19200D01*
X22800Y18750D02*
Y19166D01*
X22155Y19811D02*
Y21550D01*
Y19811D02*
X22800Y19166D01*
Y18750D02*
X24070Y17480D01*
X22550Y11000D02*
X22740Y11190D01*
X22250Y10700D02*
X22550Y11000D01*
X22250Y9500D02*
Y10700D01*
D60*
X12500Y1690D02*
D03*
Y4230D02*
D03*
Y6770D02*
D03*
D61*
Y9310D02*
D03*
D62*
X24070Y7500D02*
D03*
X15430D02*
D03*
D63*
X24070Y2140D02*
D03*
X15430D02*
D03*
D64*
X19500Y3065D02*
D03*
X7000Y8750D02*
D03*
X6750Y16750D02*
D03*
X14750Y12685D02*
D03*
X1750Y9750D02*
D03*
X2900Y11950D02*
D03*
X11685Y12685D02*
D03*
Y15250D02*
D03*
X5850Y14000D02*
D03*
X14750D02*
D03*
X14250Y17000D02*
D03*
X14405Y34750D02*
D03*
X10595D02*
D03*
X8500Y30450D02*
D03*
X6000Y28000D02*
D03*
X4500D02*
D03*
X10500Y28750D02*
D03*
X21250Y20000D02*
D03*
X19750D02*
D03*
X23750Y23185D02*
D03*
X20500Y5600D02*
D03*
X18750Y9000D02*
D03*
X15000Y16000D02*
D03*
X15250Y22990D02*
D03*
X12500Y24250D02*
D03*
X10275Y24000D02*
D03*
X9625Y24750D02*
D03*
X10250Y10500D02*
D03*
X7815Y17940D02*
D03*
X3250Y26640D02*
D03*
X3250Y20625D02*
D03*
X16750Y11500D02*
D03*
Y12750D02*
D03*
Y15250D02*
D03*
X17000Y20250D02*
D03*
X19750Y9750D02*
D03*
X20750D02*
D03*
X6200Y11950D02*
D03*
X3100Y17750D02*
D03*
X1750Y16750D02*
D03*
X23750Y11000D02*
D03*
X20750Y14500D02*
D03*
Y15500D02*
D03*
X19750Y25250D02*
D03*
X7400Y5750D02*
D03*
X8500D02*
D03*
X9600D02*
D03*
X1400D02*
D03*
X2500D02*
D03*
X3600D02*
D03*
M02*
