G04*
G04 #@! TF.GenerationSoftware,Altium Limited,Altium Designer,23.3.1 (30)*
G04*
G04 Layer_Color=16777215*
%FSLAX43Y43*%
%MOMM*%
G71*
G04*
G04 #@! TF.SameCoordinates,291B95C8-E4AE-492A-8979-900EF43719B7*
G04*
G04*
G04 #@! TF.FilePolarity,Positive*
G04*
G01*
G75*
%ADD10C,0.250*%
%ADD11C,0.600*%
%ADD12C,0.500*%
%ADD13C,0.150*%
%ADD14C,0.200*%
G36*
X21691Y33471D02*
X21700D01*
Y33461D01*
X21710D01*
Y33443D01*
X21719D01*
Y33433D01*
X21729D01*
X21729Y33414D01*
X21738D01*
Y33396D01*
X21747D01*
Y33386D01*
X21757D01*
X21757Y33358D01*
X21738D01*
Y33349D01*
X21719D01*
X21719Y33339D01*
X21710Y33339D01*
Y33330D01*
X21691D01*
Y33321D01*
X21682D01*
Y33311D01*
X21663Y33311D01*
Y33302D01*
X21644D01*
Y33293D01*
X21635D01*
Y33283D01*
X21616D01*
Y33274D01*
X21607D01*
Y33264D01*
X21588D01*
Y33255D01*
X21579D01*
Y33246D01*
X21560D01*
Y33236D01*
X21541D01*
Y33227D01*
X21532D01*
Y33217D01*
X21513Y33217D01*
Y33208D01*
X21503D01*
Y33199D01*
X21485D01*
Y33189D01*
X21466D01*
Y33180D01*
X21457D01*
Y33171D01*
X21438D01*
Y33161D01*
X21428D01*
Y33152D01*
X21410D01*
Y33142D01*
X21400D01*
Y33133D01*
X21382D01*
Y33124D01*
X21363D01*
Y33114D01*
X21353D01*
Y33105D01*
X21335D01*
X21335Y33096D01*
X21325D01*
Y33086D01*
X21306D01*
X21306Y33077D01*
X21288D01*
Y33067D01*
X21278D01*
Y33058D01*
X21260D01*
X21260Y33049D01*
X21250D01*
Y33039D01*
X21231D01*
Y33049D01*
X21222D01*
Y33067D01*
X21213D01*
X21213Y33077D01*
X21203D01*
Y33096D01*
X21194D01*
Y33105D01*
X21185D01*
Y33124D01*
X21175D01*
Y33133D01*
X21166D01*
Y33152D01*
X21156D01*
X21156Y33161D01*
X21166D01*
Y33171D01*
X21185D01*
Y33180D01*
X21203D01*
X21203Y33189D01*
X21213D01*
Y33199D01*
X21231D01*
X21231Y33208D01*
X21241D01*
Y33217D01*
X21260Y33217D01*
Y33227D01*
X21269D01*
Y33236D01*
X21288D01*
Y33246D01*
X21306Y33246D01*
Y33255D01*
X21316D01*
Y33264D01*
X21335D01*
Y33274D01*
X21344D01*
Y33283D01*
X21363D01*
X21363Y33293D01*
X21372D01*
Y33302D01*
X21391D01*
Y33311D01*
X21410D01*
Y33321D01*
X21419Y33321D01*
Y33330D01*
X21438D01*
Y33339D01*
X21447Y33339D01*
Y33349D01*
X21466D01*
Y33358D01*
X21485D01*
Y33368D01*
X21494D01*
Y33377D01*
X21513D01*
Y33386D01*
X21522D01*
X21522Y33396D01*
X21541D01*
Y33405D01*
X21550D01*
Y33414D01*
X21569Y33414D01*
Y33424D01*
X21588D01*
Y33433D01*
X21597D01*
Y33443D01*
X21616D01*
X21616Y33452D01*
X21625Y33452D01*
Y33461D01*
X21644D01*
Y33471D01*
X21663D01*
Y33480D01*
X21672D01*
Y33490D01*
X21691D01*
Y33471D01*
D02*
G37*
G36*
X20969Y33283D02*
X20988D01*
Y33274D01*
X21016D01*
Y33264D01*
X21034D01*
Y33246D01*
X21044Y33246D01*
Y33236D01*
X21053D01*
X21053Y33217D01*
X21063Y33217D01*
Y33208D01*
X21072D01*
Y33189D01*
X21081D01*
Y33171D01*
X21091Y33171D01*
Y33161D01*
X21100Y33161D01*
Y33142D01*
X21110Y33142D01*
Y33133D01*
X21119D01*
Y33114D01*
X21128D01*
Y33096D01*
X21138D01*
Y33086D01*
X21147D01*
Y33067D01*
X21156D01*
Y33058D01*
X21166Y33058D01*
Y33039D01*
X21175D01*
Y33030D01*
X21185D01*
Y33011D01*
X21194D01*
Y32992D01*
X21203D01*
Y32983D01*
X21213D01*
Y32964D01*
X21222Y32964D01*
Y32955D01*
X21231D01*
Y32936D01*
X21241Y32936D01*
Y32917D01*
X21250D01*
Y32908D01*
X21260Y32908D01*
Y32889D01*
X21269D01*
Y32861D01*
X21278D01*
Y32814D01*
X21269D01*
Y32786D01*
X21260D01*
X21260Y32767D01*
X21250D01*
Y32758D01*
X21241Y32758D01*
Y32748D01*
X21231Y32748D01*
Y32739D01*
X21213D01*
Y32730D01*
X21203Y32730D01*
Y32739D01*
X21194D01*
Y32777D01*
X21185D01*
Y32786D01*
X21175D01*
Y32805D01*
X21166D01*
Y32824D01*
X21156Y32824D01*
X21156Y32833D01*
X21138D01*
Y32852D01*
X21128Y32852D01*
Y32861D01*
X21110Y32861D01*
X21110Y32852D01*
X21091D01*
Y32842D01*
X21081D01*
Y32833D01*
X21072D01*
Y32824D01*
X21081D01*
Y32805D01*
X21091D01*
Y32795D01*
X21100D01*
Y32786D01*
Y32777D01*
X21110D01*
Y32758D01*
X21119D01*
Y32748D01*
X21128D01*
X21128Y32730D01*
X21138Y32730D01*
Y32720D01*
X21147D01*
Y32702D01*
X21156D01*
X21156Y32692D01*
X21138D01*
Y32683D01*
X21128D01*
Y32673D01*
X21110D01*
Y32664D01*
X21100D01*
Y32655D01*
X21081D01*
Y32645D01*
X21063D01*
Y32636D01*
X21053D01*
Y32627D01*
X21034Y32627D01*
Y32636D01*
X21025D01*
Y32655D01*
X21016Y32655D01*
Y32673D01*
X21006D01*
Y32683D01*
X20997D01*
Y32702D01*
X20988D01*
Y32711D01*
X20978D01*
Y32730D01*
X20969D01*
Y32748D01*
X20959D01*
Y32758D01*
X20950Y32758D01*
X20950Y32748D01*
X20931D01*
Y32739D01*
X20913D01*
Y32730D01*
X20903Y32730D01*
Y32720D01*
X20913D01*
Y32702D01*
X20922D01*
X20922Y32692D01*
X20931D01*
Y32673D01*
X20941D01*
Y32664D01*
X20950D01*
X20950Y32645D01*
X20959Y32645D01*
Y32627D01*
X20969D01*
Y32617D01*
X20978D01*
Y32598D01*
X20988D01*
Y32589D01*
X20978Y32589D01*
Y32580D01*
X20959D01*
Y32570D01*
X20950D01*
Y32561D01*
X20931D01*
X20931Y32551D01*
X20922Y32551D01*
X20922Y32542D01*
X20903D01*
Y32533D01*
X20884D01*
Y32523D01*
X20866D01*
Y32542D01*
X20856Y32542D01*
Y32551D01*
X20847Y32551D01*
Y32570D01*
X20837D01*
Y32580D01*
X20828D01*
Y32598D01*
X20819D01*
X20819Y32617D01*
X20809D01*
Y32627D01*
X20800Y32627D01*
Y32645D01*
X20791D01*
Y32655D01*
X20781Y32655D01*
Y32645D01*
X20772Y32645D01*
Y32636D01*
X20753D01*
Y32627D01*
X20734D01*
Y32617D01*
X20744D01*
Y32589D01*
X20753D01*
X20753Y32570D01*
X20762D01*
Y32551D01*
X20772D01*
Y32542D01*
X20781D01*
Y32523D01*
X20791Y32523D01*
Y32514D01*
X20800D01*
X20800Y32495D01*
X20819D01*
Y32476D01*
X20800Y32476D01*
Y32467D01*
X20781D01*
Y32458D01*
X20772D01*
X20772Y32448D01*
X20753Y32448D01*
Y32439D01*
X20744Y32439D01*
Y32430D01*
X20725D01*
Y32420D01*
X20697D01*
X20697Y32439D01*
X20687D01*
Y32448D01*
X20678D01*
Y32467D01*
X20669D01*
Y32486D01*
X20659D01*
Y32495D01*
X20650D01*
X20650Y32514D01*
X20640D01*
Y32523D01*
X20631Y32523D01*
Y32542D01*
X20603D01*
Y32533D01*
X20594D01*
Y32523D01*
X20575Y32523D01*
Y32514D01*
X20565D01*
X20565Y32495D01*
X20575D01*
Y32486D01*
X20584D01*
Y32467D01*
X20594D01*
X20594Y32458D01*
X20603D01*
Y32439D01*
X20612D01*
X20612Y32420D01*
X20622Y32420D01*
Y32411D01*
X20631D01*
Y32392D01*
X20640D01*
Y32364D01*
X20622D01*
Y32354D01*
X20603D01*
Y32345D01*
X20594D01*
Y32336D01*
X20575D01*
Y32326D01*
X20565D01*
Y32317D01*
X20547Y32317D01*
Y32308D01*
X20528D01*
Y32317D01*
X20519Y32317D01*
Y32336D01*
X20509D01*
X20509Y32345D01*
X20500Y32345D01*
Y32364D01*
X20490D01*
Y32373D01*
X20481D01*
Y32401D01*
X20472D01*
Y32420D01*
X20453Y32420D01*
Y32439D01*
X20444D01*
Y32430D01*
X20425D01*
Y32420D01*
X20415Y32420D01*
Y32411D01*
X20397D01*
Y32392D01*
X20406D01*
X20406Y32383D01*
X20415D01*
Y32364D01*
X20425D01*
Y32354D01*
X20434D01*
X20434Y32336D01*
X20443D01*
X20444Y32326D01*
X20453D01*
Y32308D01*
X20462D01*
Y32289D01*
X20472D01*
X20472Y32279D01*
X20481D01*
Y32270D01*
X20472D01*
Y32261D01*
X20462D01*
Y32251D01*
X20443D01*
X20444Y32242D01*
X20425D01*
Y32233D01*
X20415D01*
Y32223D01*
X20397D01*
Y32214D01*
X20387D01*
Y32204D01*
X20359D01*
Y32214D01*
X20350D01*
Y32233D01*
X20340D01*
X20340Y32242D01*
X20331Y32242D01*
Y32261D01*
X20322D01*
Y32279D01*
X20312D01*
Y32289D01*
X20303D01*
X20303Y32308D01*
X20293D01*
Y32317D01*
X20284Y32317D01*
Y32336D01*
X20275D01*
Y32354D01*
X20265D01*
Y32364D01*
X20256D01*
X20256Y32383D01*
X20247D01*
Y32392D01*
X20237D01*
Y32411D01*
X20228D01*
X20228Y32420D01*
X20218D01*
Y32439D01*
X20209D01*
X20209Y32458D01*
X20200D01*
Y32467D01*
X20190D01*
Y32486D01*
X20181D01*
Y32495D01*
X20171D01*
Y32514D01*
X20162D01*
Y32533D01*
X20153D01*
X20153Y32542D01*
X20143D01*
Y32561D01*
X20134D01*
X20134Y32570D01*
X20125D01*
Y32589D01*
X20115D01*
Y32598D01*
X20106D01*
X20106Y32617D01*
X20096D01*
Y32636D01*
X20087D01*
Y32645D01*
X20078D01*
Y32664D01*
X20068D01*
Y32673D01*
X20059D01*
X20059Y32692D01*
X20050D01*
Y32702D01*
X20040D01*
Y32720D01*
X20031D01*
X20031Y32739D01*
X20050D01*
Y32748D01*
X20059Y32748D01*
Y32758D01*
X20078Y32758D01*
Y32767D01*
X20087D01*
Y32777D01*
X20106D01*
Y32786D01*
X20115D01*
Y32795D01*
X20134D01*
X20134Y32805D01*
X20143D01*
Y32795D01*
X20153D01*
Y32786D01*
X20162D01*
X20162Y32767D01*
X20171D01*
Y32748D01*
X20181D01*
Y32739D01*
X20190D01*
Y32720D01*
X20200D01*
Y32711D01*
X20209D01*
X20209Y32692D01*
X20218D01*
Y32673D01*
X20237D01*
Y32683D01*
X20256D01*
Y32692D01*
X20265D01*
X20265Y32702D01*
X20275D01*
Y32720D01*
X20265D01*
X20265Y32730D01*
X20256Y32730D01*
Y32748D01*
X20247D01*
Y32767D01*
X20237D01*
Y32777D01*
X20228D01*
X20228Y32795D01*
X20218D01*
Y32805D01*
X20209D01*
Y32824D01*
X20200D01*
X20200Y32833D01*
X20209Y32833D01*
Y32852D01*
X20228D01*
X20228Y32861D01*
X20237Y32861D01*
X20237Y32870D01*
X20256D01*
Y32880D01*
X20265D01*
Y32889D01*
X20284D01*
Y32899D01*
X20293D01*
Y32908D01*
X20312Y32908D01*
Y32899D01*
X20322D01*
Y32880D01*
X20331D01*
X20331Y32870D01*
X20340D01*
Y32852D01*
X20350Y32852D01*
Y32842D01*
X20359D01*
Y32824D01*
X20368Y32824D01*
Y32814D01*
X20378D01*
Y32795D01*
X20387D01*
Y32777D01*
X20406D01*
Y32786D01*
X20415D01*
Y32795D01*
X20434D01*
X20434Y32805D01*
X20444D01*
Y32814D01*
X20453D01*
Y32824D01*
X20444D01*
Y32842D01*
X20434D01*
X20434Y32852D01*
X20425D01*
Y32870D01*
X20415D01*
X20415Y32880D01*
X20406D01*
Y32899D01*
X20397D01*
Y32908D01*
X20387D01*
X20387Y32927D01*
X20378D01*
Y32945D01*
X20368D01*
Y32955D01*
X20387D01*
Y32964D01*
X20397D01*
Y32974D01*
X20415D01*
Y32983D01*
X20434D01*
Y32992D01*
X20444D01*
Y33002D01*
X20462D01*
X20462Y33011D01*
X20490D01*
Y32983D01*
X20500D01*
Y32974D01*
X20509D01*
Y32955D01*
X20519Y32955D01*
Y32945D01*
X20528D01*
Y32927D01*
X20537D01*
X20537Y32908D01*
X20547Y32908D01*
Y32899D01*
X20556D01*
Y32889D01*
X20584D01*
Y32899D01*
X20594D01*
X20594Y32908D01*
X20612Y32908D01*
Y32917D01*
X20622D01*
X20622Y32927D01*
X20612D01*
Y32936D01*
X20603Y32936D01*
Y32955D01*
X20594D01*
X20594Y32974D01*
X20584D01*
Y32983D01*
X20575D01*
X20575Y33002D01*
X20565D01*
Y33011D01*
X20556Y33011D01*
Y33030D01*
X20547D01*
X20547Y33039D01*
X20537Y33039D01*
Y33058D01*
X20547Y33058D01*
Y33067D01*
X20565Y33067D01*
X20565Y33077D01*
X20575D01*
Y33086D01*
X20594D01*
Y33096D01*
X20612D01*
Y33105D01*
X20622D01*
X20622Y33114D01*
X20640Y33114D01*
Y33124D01*
X20659D01*
Y33105D01*
X20669D01*
Y33086D01*
X20678D01*
X20678Y33077D01*
X20687D01*
Y33058D01*
X20697D01*
X20697Y33049D01*
X20706D01*
Y33030D01*
X20716D01*
Y33011D01*
X20725Y33011D01*
X20725Y33002D01*
X20734D01*
Y32992D01*
X20744D01*
Y33002D01*
X20762D01*
Y33011D01*
X20772D01*
X20772Y33021D01*
X20781D01*
Y33039D01*
X20772D01*
X20772Y33058D01*
X20762D01*
Y33067D01*
X20753Y33067D01*
Y33086D01*
X20744D01*
X20744Y33105D01*
X20734D01*
Y33114D01*
X20725Y33114D01*
Y33133D01*
X20716D01*
X20716Y33142D01*
X20706D01*
Y33161D01*
X20716Y33161D01*
Y33171D01*
X20725Y33171D01*
X20725Y33180D01*
X20744D01*
Y33189D01*
X20753D01*
Y33199D01*
X20772D01*
Y33208D01*
X20791D01*
Y33217D01*
X20800Y33217D01*
Y33227D01*
X20819D01*
Y33217D01*
X20828Y33217D01*
Y33208D01*
X20837D01*
Y33189D01*
X20847D01*
X20847Y33180D01*
X20856D01*
Y33161D01*
X20866Y33161D01*
Y33142D01*
X20875D01*
Y33133D01*
X20884Y33133D01*
Y33114D01*
X20894D01*
Y33105D01*
X20903D01*
Y33096D01*
X20913D01*
Y33105D01*
X20922D01*
X20922Y33114D01*
X20941D01*
Y33124D01*
X20950D01*
X20950Y33161D01*
X20941D01*
Y33171D01*
X20931D01*
Y33189D01*
X20922D01*
Y33208D01*
X20913D01*
Y33217D01*
X20894D01*
Y33236D01*
X20884D01*
Y33246D01*
X20875Y33246D01*
Y33274D01*
X20894D01*
Y33283D01*
X20922D01*
X20922Y33293D01*
X20969D01*
Y33283D01*
D02*
G37*
G36*
X20003Y32702D02*
X20012D01*
Y32692D01*
X20021D01*
Y32673D01*
X20031D01*
Y32655D01*
X20040D01*
Y32645D01*
X20050D01*
X20050Y32627D01*
X20059Y32627D01*
Y32617D01*
X20068D01*
Y32598D01*
X20078D01*
Y32589D01*
X20087D01*
Y32570D01*
X20096D01*
Y32551D01*
X20106Y32551D01*
Y32542D01*
X20115D01*
Y32523D01*
X20125D01*
X20125Y32514D01*
X20134D01*
Y32495D01*
X20143D01*
Y32486D01*
X20153D01*
X20153Y32467D01*
X20162D01*
Y32448D01*
X20171Y32448D01*
Y32439D01*
X20181D01*
Y32420D01*
X20190D01*
Y32411D01*
X20200D01*
X20200Y32392D01*
X20209D01*
Y32373D01*
X20218Y32373D01*
Y32364D01*
X20228D01*
Y32345D01*
X20237Y32345D01*
X20237Y32336D01*
X20247D01*
Y32317D01*
X20256Y32317D01*
Y32308D01*
X20265D01*
X20265Y32289D01*
X20275D01*
Y32270D01*
X20284D01*
X20284Y32261D01*
X20293D01*
Y32242D01*
X20303D01*
Y32233D01*
X20312D01*
X20312Y32214D01*
X20322D01*
Y32195D01*
X20331D01*
Y32186D01*
X20340D01*
X20340Y32176D01*
X20322D01*
Y32167D01*
X20312D01*
Y32158D01*
X20293D01*
Y32148D01*
X20284D01*
X20284Y32139D01*
X20265Y32139D01*
X20265Y32129D01*
X20247D01*
Y32120D01*
X20237D01*
Y32111D01*
X20218D01*
Y32101D01*
X20209D01*
X20209Y32092D01*
X20190D01*
Y32082D01*
X20181D01*
Y32073D01*
X20162D01*
Y32064D01*
X20143Y32064D01*
Y32054D01*
X20134D01*
Y32045D01*
X20115D01*
Y32036D01*
X20106D01*
Y32026D01*
X20087D01*
Y32017D01*
X20068D01*
Y32007D01*
X20059D01*
Y31998D01*
X20040D01*
Y31989D01*
X20031D01*
Y31979D01*
X20012D01*
Y31970D01*
X20003D01*
X20003Y31961D01*
X19984D01*
Y31951D01*
X19965D01*
Y31942D01*
X19956Y31942D01*
Y31932D01*
X19937Y31932D01*
Y31923D01*
X19928D01*
Y31914D01*
X19909D01*
Y31904D01*
X19890D01*
X19890Y31895D01*
X19881D01*
Y31885D01*
X19862D01*
Y31876D01*
X19853D01*
X19853Y31867D01*
X19834D01*
Y31857D01*
X19824D01*
Y31848D01*
X19806D01*
Y31839D01*
X19787D01*
Y31829D01*
X19777D01*
Y31820D01*
X19759D01*
Y31810D01*
X19749D01*
Y31801D01*
X19731D01*
Y31792D01*
X19712D01*
Y31782D01*
X19702Y31782D01*
Y31773D01*
X19684D01*
Y31764D01*
X19674D01*
Y31754D01*
X19656D01*
Y31745D01*
X19646D01*
Y31735D01*
X19627D01*
Y31726D01*
X19609Y31726D01*
Y31717D01*
X19599D01*
Y31707D01*
X19580D01*
Y31698D01*
X19571D01*
Y31688D01*
X19552D01*
Y31679D01*
X19543Y31679D01*
Y31670D01*
X19524D01*
Y31660D01*
X19505Y31660D01*
Y31651D01*
X19496D01*
Y31642D01*
X19477D01*
Y31632D01*
X19468Y31632D01*
Y31623D01*
X19449D01*
Y31613D01*
X19430D01*
X19430Y31604D01*
X19421D01*
Y31595D01*
X19402D01*
X19402Y31585D01*
X19393D01*
Y31576D01*
X19374D01*
Y31567D01*
X19365D01*
Y31557D01*
X19346D01*
Y31548D01*
X19327Y31548D01*
Y31538D01*
X19318D01*
Y31529D01*
X19299D01*
Y31520D01*
X19290D01*
Y31510D01*
X19271D01*
X19271Y31501D01*
X19252D01*
Y31491D01*
X19243D01*
Y31482D01*
X19224D01*
Y31473D01*
X19215Y31473D01*
Y31463D01*
X19196D01*
Y31454D01*
X19187D01*
Y31445D01*
X19168Y31445D01*
Y31435D01*
X19149D01*
Y31426D01*
X19140Y31426D01*
Y31416D01*
X19121D01*
Y31407D01*
X19111D01*
Y31398D01*
X19093D01*
Y31388D01*
X19074D01*
Y31379D01*
X19065D01*
Y31370D01*
X19046Y31370D01*
Y31360D01*
X19036D01*
Y31351D01*
X19018Y31351D01*
Y31341D01*
X19008D01*
Y31332D01*
X18990D01*
Y31323D01*
X18971Y31323D01*
Y31313D01*
X18961D01*
Y31304D01*
X18943D01*
X18943Y31295D01*
X18933D01*
Y31285D01*
X18914D01*
Y31276D01*
X18905Y31276D01*
Y31266D01*
X18886D01*
Y31257D01*
X18868D01*
Y31248D01*
X18858Y31248D01*
Y31238D01*
X18839Y31238D01*
Y31229D01*
X18830D01*
Y31219D01*
X18811D01*
Y31210D01*
X18793D01*
Y31201D01*
X18783Y31201D01*
Y31191D01*
X18764D01*
Y31182D01*
X18755D01*
Y31173D01*
X18736Y31173D01*
Y31163D01*
X18727Y31163D01*
Y31154D01*
X18708D01*
Y31144D01*
X18689D01*
Y31135D01*
X18680Y31135D01*
Y31126D01*
X18661D01*
Y31116D01*
X18652D01*
Y31107D01*
X18633D01*
Y31098D01*
X18614D01*
X18614Y31088D01*
X18605Y31088D01*
Y31079D01*
X18586D01*
Y31069D01*
X18577D01*
Y31060D01*
X18558Y31060D01*
Y31051D01*
X18549D01*
Y31041D01*
X18530Y31041D01*
Y31032D01*
X18511D01*
X18511Y31022D01*
X18502D01*
Y31013D01*
X18483Y31013D01*
Y31004D01*
X18474D01*
Y30994D01*
X18455D01*
Y30985D01*
X18436Y30985D01*
Y30976D01*
X18427D01*
Y30966D01*
X18408Y30966D01*
X18408Y30957D01*
X18399D01*
Y30947D01*
X18380D01*
Y30938D01*
X18370Y30938D01*
Y30929D01*
X18352D01*
Y30919D01*
X18333D01*
Y30910D01*
X18324Y30910D01*
Y30901D01*
X18305D01*
Y30891D01*
X18295Y30891D01*
Y30882D01*
X18277D01*
Y30872D01*
X18267D01*
Y30863D01*
X18248Y30863D01*
Y30854D01*
X18230D01*
Y30844D01*
X18220D01*
Y30835D01*
X18202D01*
Y30825D01*
X18192Y30825D01*
Y30816D01*
X18173D01*
Y30807D01*
X18155D01*
Y30797D01*
X18145D01*
Y30788D01*
X18127D01*
X18127Y30779D01*
X18117Y30779D01*
Y30769D01*
X18098D01*
Y30760D01*
X18089D01*
Y30750D01*
X18070Y30750D01*
Y30741D01*
X18051D01*
Y30732D01*
X18042Y30732D01*
Y30722D01*
X18023D01*
X18023Y30713D01*
X18014D01*
Y30704D01*
X17995Y30704D01*
Y30694D01*
X17976D01*
X17976Y30685D01*
X17967D01*
Y30675D01*
X17948D01*
Y30666D01*
X17939D01*
Y30657D01*
X17920D01*
X17920Y30647D01*
X17911D01*
Y30638D01*
X17892D01*
Y30628D01*
X17873D01*
X17873Y30619D01*
X17864D01*
Y30610D01*
X17845D01*
Y30600D01*
X17836D01*
Y30591D01*
X17817D01*
Y30582D01*
X17798D01*
Y30572D01*
X17789D01*
Y30563D01*
X17770D01*
Y30553D01*
X17761D01*
Y30544D01*
X17742D01*
X17742Y30535D01*
X17733D01*
Y30525D01*
X17714D01*
Y30516D01*
X17695D01*
Y30507D01*
X17686D01*
Y30497D01*
X17667Y30497D01*
Y30488D01*
X17657D01*
Y30478D01*
X17639D01*
Y30469D01*
X17629Y30469D01*
Y30460D01*
X17611D01*
Y30450D01*
X17592D01*
Y30441D01*
X17582D01*
Y30431D01*
X17564D01*
Y30422D01*
X17554Y30422D01*
Y30413D01*
X17536D01*
Y30403D01*
X17517D01*
Y30394D01*
X17507D01*
Y30385D01*
X17489D01*
Y30375D01*
X17479D01*
Y30366D01*
X17461D01*
Y30356D01*
X17451D01*
Y30347D01*
X17432Y30347D01*
Y30338D01*
X17414D01*
Y30328D01*
X17404D01*
Y30319D01*
X17385D01*
X17385Y30310D01*
X17376D01*
Y30300D01*
X17357D01*
Y30291D01*
X17339Y30291D01*
Y30281D01*
X17329D01*
Y30272D01*
X17310Y30272D01*
Y30263D01*
X17301D01*
Y30225D01*
X17292D01*
Y30188D01*
X17282Y30188D01*
X17282Y30141D01*
X17273D01*
Y30113D01*
X17264D01*
X17264Y30103D01*
X17254D01*
Y30094D01*
X17245D01*
Y30084D01*
X17226Y30084D01*
Y30075D01*
X17217D01*
Y30066D01*
X17198D01*
Y30056D01*
X17179D01*
Y30047D01*
X17170D01*
Y30038D01*
X17151Y30038D01*
Y30028D01*
X17142D01*
Y30019D01*
X17123D01*
Y30009D01*
X17104D01*
Y30000D01*
X17095D01*
Y29991D01*
X17076D01*
Y29981D01*
X17067D01*
Y29972D01*
X17048D01*
Y29962D01*
X17038Y29962D01*
Y29953D01*
X17020D01*
Y29944D01*
X17001D01*
Y29934D01*
X16991D01*
Y29925D01*
X16973D01*
X16973Y29916D01*
X16963D01*
Y29906D01*
X16945D01*
X16945Y29897D01*
X16935D01*
Y29887D01*
X16916D01*
Y29878D01*
X16898D01*
Y29869D01*
X16888D01*
Y29859D01*
X16870D01*
X16870Y29850D01*
X16860D01*
Y29841D01*
X16841D01*
Y29831D01*
X16823Y29831D01*
Y29822D01*
X16813D01*
X16813Y29812D01*
X16795D01*
Y29803D01*
X16785D01*
Y29794D01*
X16766D01*
Y29784D01*
X16757Y29784D01*
Y29775D01*
X16738Y29775D01*
Y29765D01*
X16719D01*
X16719Y29756D01*
X16710D01*
Y29747D01*
X16691Y29747D01*
Y29737D01*
X16682D01*
Y29728D01*
X16663Y29728D01*
Y29719D01*
X16644D01*
X16644Y29709D01*
X16635D01*
Y29700D01*
X16616D01*
X16616Y29690D01*
X16607D01*
Y29681D01*
X16588Y29681D01*
Y29672D01*
X16579D01*
Y29662D01*
X16560D01*
Y29653D01*
X16541Y29653D01*
X16541Y29644D01*
X16532D01*
Y29634D01*
X16513D01*
Y29625D01*
X16504Y29625D01*
Y29615D01*
X16485D01*
X16485Y29606D01*
X16466D01*
Y29597D01*
X16457D01*
X16457Y29587D01*
X16438D01*
Y29578D01*
X16429Y29578D01*
Y29569D01*
X16410D01*
X16410Y29559D01*
X16401D01*
Y29550D01*
X16382Y29550D01*
X16382Y29540D01*
X16363D01*
Y29531D01*
X16354D01*
Y29522D01*
X16335D01*
Y29512D01*
X16325D01*
X16325Y29503D01*
X16307D01*
Y29493D01*
X16297D01*
Y29484D01*
X16279Y29484D01*
Y29475D01*
X16260Y29475D01*
Y29465D01*
X16250D01*
X16250Y29456D01*
X16232D01*
Y29447D01*
X16222Y29447D01*
X16222Y29437D01*
X16204D01*
Y29428D01*
X16185D01*
Y29418D01*
X16175D01*
Y29409D01*
X16157D01*
X16157Y29400D01*
X16147D01*
Y29390D01*
X16128D01*
X16128Y29381D01*
X16119D01*
Y29372D01*
X16100D01*
Y29362D01*
X16082Y29362D01*
Y29353D01*
X16072D01*
Y29343D01*
X16053Y29343D01*
X16053Y29334D01*
X16044D01*
Y29325D01*
X16025D01*
Y29315D01*
X16007D01*
Y29306D01*
X15997D01*
Y29296D01*
X15978D01*
Y29287D01*
X15969D01*
X15969Y29278D01*
X15960D01*
Y29250D01*
X15950D01*
X15950Y29203D01*
X15941D01*
Y29165D01*
X15932D01*
Y29128D01*
X15922D01*
Y29081D01*
X15913D01*
Y29043D01*
X15903D01*
Y28996D01*
X15894D01*
Y28959D01*
X15885D01*
Y28940D01*
X15875D01*
Y28931D01*
X15856D01*
Y28921D01*
X15847D01*
X15847Y28912D01*
X15828D01*
Y28902D01*
X15819D01*
X15819Y28893D01*
X15800D01*
Y28884D01*
X15781Y28884D01*
Y28874D01*
X15772D01*
Y28865D01*
X15753D01*
Y28856D01*
X15706Y28856D01*
Y28865D01*
X15659Y28865D01*
Y28874D01*
X15622D01*
Y28884D01*
X15556D01*
Y28874D01*
X15538D01*
Y28865D01*
X15528Y28865D01*
Y28856D01*
X15509Y28856D01*
Y28846D01*
X15500D01*
Y28837D01*
X15481D01*
Y28827D01*
X15472D01*
Y28818D01*
X15453D01*
X15453Y28809D01*
X15434D01*
Y28799D01*
X15425D01*
Y28790D01*
X15406Y28790D01*
Y28781D01*
X15378D01*
Y28790D01*
X15331D01*
X15331Y28799D01*
X15284D01*
Y28809D01*
X15247D01*
X15247Y28818D01*
X15209D01*
Y28827D01*
X15172D01*
Y28818D01*
X15153D01*
X15153Y28809D01*
X15144D01*
Y28799D01*
X15125D01*
X15125Y28790D01*
X15106D01*
Y28781D01*
X15097D01*
Y28771D01*
X15078D01*
X15078Y28762D01*
X15068D01*
Y28752D01*
X15050D01*
X15050Y28743D01*
X15040D01*
Y28734D01*
X15022D01*
Y28724D01*
X15003D01*
Y28715D01*
X14975D01*
X14975Y28724D01*
X14947D01*
Y28734D01*
X14918D01*
Y28743D01*
X14881D01*
X14881Y28752D01*
X14834Y28752D01*
Y28762D01*
X14787Y28762D01*
Y28771D01*
X14768D01*
Y28762D01*
X14750D01*
Y28752D01*
X14731D01*
Y28743D01*
X14721Y28743D01*
Y28734D01*
X14703D01*
Y28724D01*
X14693D01*
Y28715D01*
X14675D01*
X14675Y28705D01*
X14665D01*
Y28696D01*
X14646D01*
Y28687D01*
X14628D01*
Y28677D01*
X14618Y28677D01*
Y28668D01*
X14599D01*
Y28659D01*
X14590D01*
Y28649D01*
X14571D01*
X14571Y28640D01*
X14553D01*
Y28630D01*
X14543D01*
Y28621D01*
X14524D01*
Y28612D01*
X14515D01*
Y28602D01*
X14496Y28602D01*
Y28593D01*
X14487D01*
X14487Y28584D01*
X14468D01*
Y28574D01*
X14449Y28574D01*
Y28565D01*
X14440D01*
Y28555D01*
X14421Y28555D01*
Y28546D01*
X14412Y28546D01*
Y28537D01*
X14393D01*
Y28527D01*
X14374D01*
Y28518D01*
X14365D01*
Y28509D01*
X14346D01*
Y28499D01*
X14337D01*
Y28490D01*
X14318D01*
Y28480D01*
X14309Y28480D01*
Y28471D01*
X14290D01*
Y28462D01*
X14271D01*
Y28452D01*
X14262Y28452D01*
Y28443D01*
X14243Y28443D01*
Y28377D01*
X14234D01*
Y28330D01*
X14224D01*
Y28293D01*
X14215Y28293D01*
Y28246D01*
X14205D01*
Y28236D01*
X14215D01*
X14215Y28227D01*
X14205D01*
Y28208D01*
X14196D01*
Y28199D01*
X14187D01*
X14187Y28161D01*
X14177D01*
X14177Y28133D01*
X14168D01*
Y28096D01*
X14159D01*
Y28068D01*
X14149D01*
X14149Y28039D01*
X14140D01*
Y28011D01*
X14130D01*
Y27983D01*
X14121D01*
Y27955D01*
X14112Y27955D01*
Y27927D01*
X14102D01*
X14102Y27908D01*
X14093D01*
Y27880D01*
X14084D01*
Y27861D01*
X14074Y27861D01*
Y27833D01*
X14065D01*
Y27814D01*
X14055D01*
Y27796D01*
X14046D01*
Y27777D01*
X14037D01*
Y27758D01*
X14027D01*
Y27739D01*
X14018D01*
Y27721D01*
X14009D01*
Y27702D01*
X13999Y27702D01*
X13999Y27683D01*
X13990D01*
Y27664D01*
X13980D01*
Y27646D01*
X13971Y27646D01*
Y27627D01*
X13962D01*
Y27617D01*
X13952D01*
Y27599D01*
X13943Y27599D01*
Y27580D01*
X13933D01*
Y27570D01*
X13924Y27570D01*
Y27552D01*
X13915D01*
Y27533D01*
X13905D01*
Y27524D01*
X13896D01*
Y27505D01*
X13887D01*
Y27495D01*
X13877D01*
Y27477D01*
X13868Y27477D01*
X13868Y27467D01*
X13858D01*
Y27458D01*
X13849D01*
Y27449D01*
X13840Y27449D01*
Y27430D01*
X13830D01*
Y27420D01*
X13821D01*
Y27411D01*
X13812D01*
Y27392D01*
X13802D01*
Y27383D01*
X13793D01*
X13793Y27364D01*
X13774D01*
Y27355D01*
X13765D01*
Y27345D01*
X13755D01*
Y27327D01*
X13746D01*
Y27317D01*
X13736Y27317D01*
Y27308D01*
X13727D01*
Y27298D01*
X13708Y27298D01*
Y27289D01*
X13699D01*
Y27280D01*
X13690D01*
Y27270D01*
X13680D01*
Y27261D01*
X13671D01*
Y27252D01*
X13661D01*
Y27242D01*
X13652D01*
Y27233D01*
X13633D01*
Y27223D01*
X13624Y27223D01*
Y27214D01*
X13615D01*
Y27205D01*
X13596D01*
Y27195D01*
X13586Y27195D01*
X13586Y27186D01*
X13568D01*
Y27176D01*
X13558D01*
Y27167D01*
X13539D01*
X13539Y27158D01*
X13530Y27158D01*
Y27148D01*
X13502D01*
Y27139D01*
X13493D01*
X13493Y27130D01*
X13464D01*
Y27120D01*
X13446D01*
Y27111D01*
X13418Y27111D01*
Y27101D01*
X13399D01*
Y27092D01*
X13380D01*
X13380Y27083D01*
X13352D01*
Y27073D01*
X13324D01*
Y27064D01*
X13305Y27064D01*
X13305Y27055D01*
X13277D01*
X13277Y27045D01*
X13249D01*
Y27036D01*
X13230Y27036D01*
Y27026D01*
X13211D01*
X13211Y27017D01*
X13183Y27017D01*
X13183Y27008D01*
X13155D01*
Y26998D01*
X13136D01*
Y26989D01*
X13108D01*
Y26979D01*
X13089Y26979D01*
Y26970D01*
X13061D01*
Y26961D01*
X13033D01*
Y26951D01*
X13014D01*
Y26942D01*
X12995D01*
Y26933D01*
X12967D01*
X12967Y26923D01*
X12939D01*
Y26914D01*
X12920D01*
Y26904D01*
X12902D01*
Y26895D01*
X12873D01*
X12873Y26886D01*
X12845D01*
X12845Y26876D01*
X12827D01*
Y26867D01*
X12798D01*
Y26858D01*
X12780D01*
Y26848D01*
X12733D01*
Y26839D01*
X12658D01*
X12658Y26848D01*
X12611D01*
Y26858D01*
X12592D01*
Y26867D01*
X12564D01*
X12564Y26876D01*
X12545D01*
Y26886D01*
X12536D01*
Y26895D01*
X12517D01*
Y26904D01*
X12508D01*
Y26914D01*
X12489D01*
Y26923D01*
X12479D01*
Y26933D01*
X12470Y26933D01*
Y26942D01*
X12461D01*
X12461Y26951D01*
X12451D01*
Y26970D01*
X12442D01*
Y26979D01*
X12433D01*
X12433Y26989D01*
X12423Y26989D01*
Y27008D01*
X12414D01*
Y27026D01*
X12404D01*
Y27045D01*
X12395D01*
Y27073D01*
X12386D01*
Y27158D01*
X12395D01*
Y27214D01*
X12404D01*
Y27242D01*
X12414D01*
Y27261D01*
X12423Y27261D01*
Y27280D01*
X12404D01*
Y27270D01*
X12395D01*
Y27261D01*
X12376D01*
Y27252D01*
X12358D01*
Y27242D01*
X12348Y27242D01*
Y27233D01*
X12329D01*
Y27223D01*
X12320D01*
Y27214D01*
X12301Y27214D01*
Y27205D01*
X12283D01*
Y27195D01*
X12273D01*
X12273Y27186D01*
X12254D01*
X12254Y27176D01*
X12245D01*
Y27167D01*
X12226Y27167D01*
Y27158D01*
X12217D01*
Y27148D01*
X12198D01*
Y27139D01*
X12179Y27139D01*
Y27130D01*
X12170D01*
Y27120D01*
X12151D01*
Y27111D01*
X12142Y27111D01*
Y27101D01*
X12123D01*
Y27092D01*
X12114Y27092D01*
Y27083D01*
X12095D01*
Y27073D01*
X12076D01*
Y27064D01*
X12067Y27064D01*
X12067Y27055D01*
X12048D01*
Y27045D01*
X12039D01*
Y27036D01*
X12020D01*
Y27026D01*
X11992D01*
Y27036D01*
X11982D01*
Y27055D01*
X11973D01*
X11973Y27064D01*
X11964Y27064D01*
Y27083D01*
X11954D01*
Y27101D01*
X11945D01*
X11945Y27111D01*
X11935D01*
Y27130D01*
X11926Y27130D01*
Y27139D01*
X11898D01*
X11898Y27130D01*
X11889D01*
Y27120D01*
X11870D01*
X11870Y27111D01*
X11860Y27111D01*
Y27101D01*
X11842D01*
X11842Y27092D01*
X11832D01*
Y27083D01*
X11813Y27083D01*
Y27073D01*
X11795D01*
X11795Y27064D01*
X11785D01*
Y27055D01*
X11767D01*
X11767Y27045D01*
X11757D01*
Y27036D01*
X11738Y27036D01*
X11738Y27026D01*
X11729D01*
Y27017D01*
X11710D01*
Y27008D01*
X11692D01*
Y26998D01*
X11682D01*
Y26989D01*
X11663D01*
X11663Y26979D01*
X11654D01*
Y26970D01*
X11635D01*
Y26961D01*
X11616D01*
Y26951D01*
X11607D01*
Y26942D01*
X11588D01*
Y26933D01*
X11579D01*
X11579Y26923D01*
X11560D01*
Y26914D01*
X11551Y26914D01*
Y26904D01*
X11532D01*
Y26895D01*
X11513D01*
Y26886D01*
X11504D01*
Y26876D01*
X11485D01*
X11485Y26867D01*
X11476D01*
Y26858D01*
X11457D01*
X11457Y26848D01*
X11438D01*
Y26839D01*
X11429D01*
Y26829D01*
X11410Y26829D01*
Y26820D01*
X11401D01*
Y26811D01*
X11382D01*
Y26801D01*
X11373D01*
Y26792D01*
X11354D01*
X11354Y26782D01*
X11335D01*
Y26773D01*
X11326D01*
Y26764D01*
X11316D01*
Y26773D01*
X11307Y26773D01*
Y26764D01*
X11288D01*
Y26754D01*
X11279Y26754D01*
Y26745D01*
X11260D01*
Y26736D01*
X11251D01*
Y26726D01*
X11241D01*
Y26736D01*
X11232D01*
Y26726D01*
X11213D01*
Y26717D01*
X11204D01*
Y26707D01*
X11166Y26707D01*
Y26698D01*
X11157D01*
Y26689D01*
X11119D01*
Y26679D01*
X11091D01*
Y26670D01*
X11054D01*
Y26661D01*
X11044D01*
Y26670D01*
X11035Y26670D01*
Y26679D01*
X11044D01*
Y26698D01*
X11054D01*
Y26707D01*
X11063D01*
Y26726D01*
X11082D01*
Y26736D01*
X11091D01*
Y26754D01*
X11110D01*
Y26764D01*
X11119D01*
Y26782D01*
X11138D01*
Y26792D01*
X11147D01*
X11147Y26811D01*
X11166D01*
Y26820D01*
X11176D01*
Y26829D01*
X11194Y26829D01*
Y26839D01*
X11204D01*
X11204Y26858D01*
X11223D01*
Y26867D01*
X11232D01*
Y26876D01*
X11251D01*
X11251Y26886D01*
X11260D01*
Y26895D01*
X11279D01*
Y26904D01*
X11288Y26904D01*
X11288Y26923D01*
X11307D01*
Y26933D01*
X11316Y26933D01*
Y26942D01*
X11335D01*
Y26951D01*
X11344Y26951D01*
Y26961D01*
X11363D01*
Y26970D01*
X11382D01*
X11382Y26979D01*
X11391D01*
Y26989D01*
X11410Y26989D01*
Y26998D01*
X11420D01*
Y27008D01*
X11438D01*
Y27017D01*
X11457D01*
Y27026D01*
X11466D01*
Y27036D01*
X11485D01*
Y27045D01*
X11495D01*
Y27055D01*
X11513D01*
Y27064D01*
X11523Y27064D01*
Y27073D01*
X11541D01*
Y27083D01*
X11560D01*
X11560Y27092D01*
X11570D01*
Y27101D01*
X11588D01*
Y27111D01*
X11598Y27111D01*
Y27120D01*
X11616D01*
Y27130D01*
X11635D01*
Y27139D01*
X11645D01*
Y27148D01*
X11663D01*
X11663Y27158D01*
X11673D01*
Y27167D01*
X11692D01*
X11692Y27176D01*
X11701D01*
Y27186D01*
X11720Y27186D01*
Y27195D01*
X11738D01*
X11738Y27205D01*
X11748D01*
Y27214D01*
X11767D01*
X11767Y27223D01*
X11776D01*
Y27233D01*
X11795D01*
X11795Y27242D01*
X11813D01*
Y27252D01*
X11823D01*
Y27261D01*
X11842D01*
Y27280D01*
X11832D01*
Y27289D01*
X11823Y27289D01*
Y27308D01*
X11813D01*
Y27317D01*
X11804Y27317D01*
Y27336D01*
X11795D01*
X11795Y27345D01*
X11785D01*
Y27364D01*
X11776D01*
Y27383D01*
X11767D01*
Y27392D01*
X11785D01*
Y27402D01*
X11795D01*
Y27411D01*
X11813D01*
Y27420D01*
X11823D01*
Y27430D01*
X11842D01*
Y27439D01*
X11860D01*
X11860Y27449D01*
X11870Y27449D01*
Y27458D01*
X11889D01*
Y27467D01*
X11898D01*
X11898Y27477D01*
X11917D01*
Y27486D01*
X11935D01*
Y27495D01*
X11945D01*
X11945Y27505D01*
X11964D01*
X11964Y27514D01*
X11973D01*
Y27524D01*
X11992D01*
Y27533D01*
X12001D01*
X12001Y27542D01*
X12020D01*
Y27552D01*
X12039Y27552D01*
Y27561D01*
X12048D01*
X12048Y27570D01*
X12067D01*
Y27580D01*
X12076Y27580D01*
Y27589D01*
X12095D01*
Y27599D01*
X12114Y27599D01*
Y27608D01*
X12123D01*
Y27617D01*
X12142D01*
Y27627D01*
X12151D01*
Y27636D01*
X12170D01*
Y27646D01*
X12179D01*
X12179Y27655D01*
X12198D01*
Y27692D01*
X12189D01*
Y27702D01*
X12198D01*
Y27721D01*
X12189D01*
Y27833D01*
X12198D01*
Y27861D01*
X12207D01*
Y27880D01*
X12236D01*
Y27889D01*
X12245D01*
Y27946D01*
X12236D01*
Y27955D01*
X12217D01*
Y27964D01*
X12198Y27964D01*
Y27974D01*
X12179D01*
Y27983D01*
X12151D01*
X12151Y27993D01*
X12123D01*
Y28002D01*
X12104D01*
Y28011D01*
X12086D01*
Y28021D01*
X12076D01*
Y28030D01*
X12057D01*
Y28039D01*
X12048D01*
Y28058D01*
X12039Y28058D01*
Y28068D01*
X12029D01*
Y28086D01*
X12020D01*
Y28096D01*
X12010D01*
Y28105D01*
X12001D01*
X12001Y28124D01*
X11992D01*
Y28143D01*
X11982D01*
Y28161D01*
X11973D01*
Y28190D01*
X11964Y28190D01*
Y28246D01*
X11954D01*
Y28321D01*
X11964D01*
Y28377D01*
X11973D01*
Y28405D01*
X11982D01*
Y28424D01*
X11992D01*
Y28443D01*
X12001D01*
X12001Y28462D01*
X12010D01*
Y28471D01*
X12020Y28471D01*
Y28480D01*
X12029D01*
Y28499D01*
X12039Y28499D01*
Y28509D01*
X12048D01*
X12048Y28518D01*
X12057D01*
Y28527D01*
X12048D01*
X12048Y28537D01*
X12039D01*
Y28546D01*
X12020Y28546D01*
Y28555D01*
X12001D01*
Y28565D01*
X11992D01*
Y28574D01*
X11982D01*
Y28584D01*
X11973D01*
X11973Y28593D01*
X11964D01*
Y28602D01*
X11954Y28602D01*
Y28612D01*
X11945D01*
X11945Y28630D01*
X11935D01*
Y28640D01*
X11926D01*
Y28649D01*
X11917D01*
Y28668D01*
X11907D01*
Y28687D01*
X11898Y28687D01*
Y28705D01*
X11889D01*
Y28734D01*
X11879D01*
Y28790D01*
X11870D01*
Y28874D01*
X11879D01*
Y28921D01*
X11889D01*
Y28940D01*
X11898D01*
X11898Y28968D01*
X11907D01*
Y28987D01*
X11917Y28987D01*
Y28996D01*
X11926D01*
Y29015D01*
X11935D01*
Y29024D01*
X11945D01*
X11945Y29034D01*
X11954D01*
Y29043D01*
X11964D01*
Y29062D01*
X11973Y29062D01*
Y29071D01*
X11992D01*
Y29081D01*
X12001D01*
Y29090D01*
X12010Y29090D01*
Y29099D01*
X12029D01*
Y29109D01*
X12039D01*
Y29118D01*
X12029D01*
Y29137D01*
X12020D01*
Y29156D01*
X12010D01*
Y29165D01*
X12001Y29165D01*
Y29184D01*
X11992D01*
Y29203D01*
X11982D01*
Y29221D01*
X11973D01*
Y29240D01*
X11964Y29240D01*
Y29259D01*
X11954D01*
Y29287D01*
X11945D01*
Y29306D01*
X11935D01*
X11935Y29334D01*
X11926Y29334D01*
Y29362D01*
X11917D01*
Y29381D01*
X11907D01*
Y29409D01*
X11898D01*
X11898Y29447D01*
X11889D01*
Y29484D01*
X11879D01*
Y29512D01*
X11870D01*
X11870Y29559D01*
X11860D01*
Y29606D01*
X11851D01*
Y29662D01*
X11842D01*
Y29756D01*
X11832Y29756D01*
Y30084D01*
X11842Y30084D01*
Y30178D01*
X11851D01*
Y30235D01*
X11860D01*
X11860Y30291D01*
X11870Y30291D01*
X11870Y30338D01*
X11879D01*
Y30375D01*
X11889D01*
Y30413D01*
X11898D01*
X11898Y30450D01*
X11907Y30450D01*
Y30488D01*
X11842D01*
Y30497D01*
X11813D01*
Y30507D01*
X11795D01*
X11795Y30516D01*
X11776D01*
Y30525D01*
X11767Y30525D01*
Y30535D01*
X11757D01*
Y30544D01*
X11748Y30544D01*
Y30553D01*
X11738D01*
X11738Y30563D01*
X11729D01*
Y30572D01*
X11720Y30572D01*
Y30591D01*
X11710D01*
Y30619D01*
X11701D01*
Y31698D01*
X11710D01*
Y31726D01*
X11720D01*
Y31745D01*
X11729D01*
Y31754D01*
X11738Y31754D01*
Y31773D01*
X11748D01*
Y31782D01*
X11767D01*
X11767Y31792D01*
X11776D01*
Y31801D01*
X11795D01*
Y31810D01*
X11813D01*
Y31820D01*
X11851D01*
Y31829D01*
X13718D01*
Y31820D01*
X13746D01*
X13746Y31810D01*
X13774D01*
Y31801D01*
X13783D01*
Y31792D01*
X13802D01*
X13802Y31782D01*
X13812D01*
Y31773D01*
X13821D01*
Y31754D01*
X13830D01*
Y31745D01*
X13840D01*
Y31726D01*
X13849Y31726D01*
Y31698D01*
X13858D01*
Y30610D01*
X13849D01*
Y30591D01*
X13840D01*
X13840Y30582D01*
X13830Y30582D01*
Y30563D01*
X13821D01*
Y30544D01*
X13802D01*
Y30525D01*
X13783Y30525D01*
Y30516D01*
X13765D01*
X13765Y30507D01*
X13746D01*
Y30497D01*
X13708Y30497D01*
Y30488D01*
X13633D01*
Y30469D01*
X13643Y30469D01*
X13643Y30450D01*
X13652D01*
Y30441D01*
X13661D01*
X13661Y30431D01*
X13671D01*
Y30413D01*
X13680D01*
Y30403D01*
X13690D01*
Y30394D01*
X13699Y30394D01*
Y30375D01*
X13708D01*
Y30366D01*
X13718D01*
Y30347D01*
X13727D01*
Y30338D01*
X13736Y30338D01*
X13736Y30328D01*
X13746D01*
Y30310D01*
X13755D01*
Y30300D01*
X13765D01*
Y30281D01*
X13774D01*
Y30263D01*
X13783Y30263D01*
Y30253D01*
X13793D01*
X13793Y30244D01*
X13802D01*
Y30225D01*
X13812D01*
Y30216D01*
X13821D01*
Y30197D01*
X13830D01*
Y30188D01*
X13840D01*
Y30169D01*
X13849Y30169D01*
X13849Y30159D01*
X13858D01*
Y30141D01*
X13868Y30141D01*
Y30131D01*
X13877D01*
X13877Y30113D01*
X13887D01*
Y30103D01*
X13896D01*
X13896Y30084D01*
X13905D01*
Y30075D01*
X13915D01*
Y30056D01*
X13924D01*
Y30038D01*
X13933Y30038D01*
Y30028D01*
X13943D01*
Y30019D01*
X13952D01*
X13952Y30000D01*
X13962D01*
Y29981D01*
X13971D01*
X13971Y29972D01*
X13980D01*
Y29953D01*
X13990D01*
Y29934D01*
X13999D01*
X13999Y29925D01*
X14009D01*
Y29906D01*
X14018D01*
Y29887D01*
X14027D01*
Y29878D01*
X14037D01*
Y29859D01*
X14046D01*
Y29841D01*
X14055D01*
Y29831D01*
X14065Y29831D01*
Y29812D01*
X14074D01*
X14074Y29794D01*
X14084D01*
Y29775D01*
X14093Y29775D01*
Y29765D01*
X14102D01*
Y29747D01*
X14112Y29747D01*
Y29728D01*
X14121D01*
Y29709D01*
X14130D01*
Y29700D01*
X14140D01*
Y29672D01*
X14149D01*
Y29662D01*
X14159D01*
X14159Y29644D01*
X14168D01*
Y29625D01*
X14177Y29625D01*
Y29606D01*
X14187D01*
Y29578D01*
X14196Y29578D01*
Y29559D01*
X14205D01*
Y29540D01*
X14215D01*
Y29522D01*
X14224D01*
Y29503D01*
X14234D01*
Y29465D01*
X14243D01*
Y29447D01*
X14252D01*
Y29418D01*
X14262D01*
Y29372D01*
X14271D01*
Y29334D01*
X14281D01*
Y29278D01*
X14290Y29278D01*
Y29250D01*
X14299D01*
Y29175D01*
X14309D01*
Y29165D01*
X14299D01*
Y29156D01*
X14309D01*
Y28996D01*
X14318D01*
Y29006D01*
X14337D01*
Y29015D01*
X14346D01*
Y29024D01*
X14365D01*
X14365Y29034D01*
X14374D01*
Y29043D01*
X14393D01*
Y29053D01*
X14412Y29053D01*
Y29062D01*
X14421D01*
Y29071D01*
X14440D01*
Y29081D01*
X14449D01*
Y29090D01*
X14468D01*
X14468Y29099D01*
X14487D01*
Y29109D01*
X14496D01*
Y29118D01*
X14515D01*
Y29128D01*
X14524Y29128D01*
Y29137D01*
X14534D01*
Y29175D01*
X14543D01*
Y29212D01*
X14553D01*
Y29250D01*
X14562D01*
Y29287D01*
X14571D01*
Y29343D01*
X14581Y29343D01*
Y29381D01*
X14590D01*
Y29390D01*
X14609D01*
Y29400D01*
X14628D01*
X14628Y29409D01*
X14637D01*
Y29418D01*
X14656D01*
Y29428D01*
X14665D01*
X14665Y29437D01*
X14684D01*
Y29447D01*
X14703Y29447D01*
Y29456D01*
X14712D01*
Y29465D01*
X14731D01*
Y29475D01*
X14740Y29475D01*
Y29484D01*
X14759D01*
Y29503D01*
X14768D01*
X14768Y29540D01*
X14778D01*
Y29559D01*
X14787D01*
Y29569D01*
X14778D01*
X14778Y29587D01*
X14787D01*
Y29606D01*
X14796D01*
Y29634D01*
X14806D01*
Y29709D01*
X14815D01*
Y29719D01*
X14834D01*
Y29728D01*
X14843Y29728D01*
Y29737D01*
X14862D01*
Y29747D01*
X14872D01*
X14872Y29756D01*
X14890D01*
Y29765D01*
X14900D01*
Y29775D01*
X14918D01*
Y29784D01*
X14937Y29784D01*
Y29794D01*
X14947D01*
X14947Y29803D01*
X14965D01*
Y29812D01*
X14975D01*
Y29822D01*
X14984D01*
X14984Y29841D01*
X14993D01*
Y29887D01*
X15003D01*
Y29925D01*
X15012D01*
Y29962D01*
X15022Y29962D01*
Y29991D01*
X15031D01*
Y30000D01*
X15050D01*
Y30009D01*
X15059D01*
Y30019D01*
X15078D01*
X15078Y30028D01*
X15087D01*
Y30038D01*
X15106Y30038D01*
Y30047D01*
X15125D01*
X15125Y30056D01*
X15134D01*
Y30066D01*
X15153D01*
Y30075D01*
X15162D01*
Y30084D01*
X15172D01*
Y30075D01*
X15209D01*
Y30066D01*
X15256D01*
X15256Y30056D01*
X15294D01*
Y30047D01*
X15341D01*
Y30038D01*
X15378D01*
Y30028D01*
X15416D01*
Y30019D01*
X15462D01*
Y30009D01*
X15500D01*
Y30000D01*
X15519D01*
Y30009D01*
X15538D01*
Y30019D01*
X15547D01*
Y30028D01*
X15566D01*
X15566Y30038D01*
X15584D01*
Y30047D01*
X15594D01*
Y30056D01*
X15613D01*
Y30066D01*
X15622D01*
Y30075D01*
X15641D01*
Y30084D01*
X15650D01*
Y30094D01*
X15669D01*
X15669Y30103D01*
X15688D01*
Y30113D01*
X15697D01*
Y30122D01*
X15716D01*
Y30131D01*
X15725D01*
Y30141D01*
X15744Y30141D01*
Y30150D01*
X15753D01*
Y30159D01*
X15772D01*
Y30169D01*
X15791Y30169D01*
Y30178D01*
X15800D01*
Y30188D01*
X15819D01*
X15819Y30197D01*
X15828D01*
Y30206D01*
X15847D01*
Y30216D01*
X15866Y30216D01*
Y30225D01*
X15875D01*
Y30235D01*
X15894D01*
Y30244D01*
X15903D01*
Y30253D01*
X15922D01*
X15922Y30263D01*
X15932D01*
Y30272D01*
X15950D01*
Y30281D01*
X15969D01*
Y30291D01*
X15978Y30291D01*
Y30300D01*
X15997D01*
Y30310D01*
X16007D01*
Y30319D01*
X16025D01*
Y30328D01*
X16044D01*
Y30338D01*
X16053D01*
X16053Y30347D01*
X16072D01*
X16072Y30356D01*
X16082D01*
Y30366D01*
X16100Y30366D01*
Y30375D01*
X16110D01*
Y30385D01*
X16128D01*
Y30394D01*
X16147Y30394D01*
Y30403D01*
X16157D01*
X16157Y30413D01*
X16175D01*
Y30422D01*
X16185Y30422D01*
Y30431D01*
X16204D01*
Y30441D01*
X16222Y30441D01*
Y30450D01*
X16232D01*
X16232Y30460D01*
X16250D01*
Y30469D01*
X16260Y30469D01*
X16260Y30478D01*
X16279D01*
Y30488D01*
X16288D01*
Y30497D01*
X16307D01*
X16307Y30507D01*
X16325D01*
X16325Y30516D01*
X16335D01*
Y30525D01*
X16354Y30525D01*
Y30535D01*
X16363D01*
Y30544D01*
X16382D01*
X16382Y30553D01*
X16391D01*
Y30563D01*
X16410D01*
X16410Y30572D01*
X16429D01*
Y30582D01*
X16438Y30582D01*
Y30591D01*
X16457D01*
Y30600D01*
X16466Y30600D01*
Y30610D01*
X16485D01*
X16485Y30619D01*
X16504D01*
Y30628D01*
X16513Y30628D01*
Y30638D01*
X16532D01*
Y30647D01*
X16541D01*
X16541Y30657D01*
X16560D01*
X16560Y30666D01*
X16569D01*
Y30675D01*
X16588Y30675D01*
X16588Y30685D01*
X16607D01*
Y30694D01*
X16616D01*
Y30704D01*
X16635Y30704D01*
Y30713D01*
X16644D01*
X16644Y30722D01*
X16663D01*
Y30732D01*
X16682Y30732D01*
Y30741D01*
X16691D01*
Y30750D01*
X16710Y30750D01*
Y30760D01*
X16719D01*
X16719Y30769D01*
X16738D01*
Y30779D01*
X16748Y30779D01*
X16748Y30788D01*
X16766D01*
Y30797D01*
X16785D01*
Y30807D01*
X16795D01*
Y30816D01*
X16813D01*
Y30825D01*
X16823Y30825D01*
Y30816D01*
X16870D01*
Y30807D01*
X16916D01*
Y30797D01*
X16954D01*
X16954Y30788D01*
X16963D01*
Y30797D01*
X16973D01*
Y30807D01*
X16991D01*
Y30816D01*
X17001D01*
Y30825D01*
X17020D01*
X17020Y30835D01*
X17038D01*
Y30844D01*
X17048D01*
X17048Y30854D01*
X17067D01*
Y30863D01*
X17076D01*
Y30872D01*
X17095D01*
Y30882D01*
X17104D01*
Y30891D01*
X17123D01*
X17123Y30901D01*
X17142D01*
Y30910D01*
X17151D01*
Y30919D01*
X17170D01*
Y30929D01*
X17179D01*
X17179Y30938D01*
X17198D01*
Y30947D01*
X17207D01*
Y30957D01*
X17226D01*
Y30966D01*
X17245Y30966D01*
Y30976D01*
X17254D01*
Y30985D01*
X17273D01*
Y30994D01*
X17282D01*
X17282Y31004D01*
X17301D01*
Y31013D01*
X17320D01*
Y31022D01*
X17329D01*
Y31032D01*
X17348D01*
Y31041D01*
X17357D01*
X17357Y31051D01*
X17376D01*
Y31060D01*
X17385D01*
X17385Y31069D01*
X17404D01*
Y31079D01*
X17423D01*
Y31088D01*
X17432Y31088D01*
Y31098D01*
X17451D01*
Y31107D01*
X17461D01*
Y31116D01*
X17479Y31116D01*
Y31126D01*
X17498D01*
Y31135D01*
X17507Y31135D01*
Y31144D01*
X17526D01*
Y31154D01*
X17536D01*
Y31163D01*
X17554Y31163D01*
Y31173D01*
X17564D01*
Y31182D01*
X17582D01*
Y31191D01*
X17601D01*
Y31201D01*
X17611Y31201D01*
Y31210D01*
X17629D01*
Y31219D01*
X17639D01*
Y31229D01*
X17657D01*
Y31238D01*
X17676D01*
Y31248D01*
X17686Y31248D01*
Y31257D01*
X17704D01*
Y31266D01*
X17714D01*
Y31276D01*
X17733D01*
Y31285D01*
X17742D01*
Y31295D01*
X17761D01*
Y31304D01*
X17779D01*
Y31313D01*
X17789D01*
Y31323D01*
X17808Y31323D01*
Y31332D01*
X17817D01*
X17817Y31341D01*
X17836D01*
Y31351D01*
X17845D01*
X17845Y31360D01*
X17864D01*
Y31370D01*
X17883Y31370D01*
Y31379D01*
X17892D01*
Y31388D01*
X17911D01*
Y31398D01*
X17920D01*
X17920Y31407D01*
X17939D01*
Y31416D01*
X17958D01*
Y31426D01*
X17967D01*
Y31435D01*
X17986D01*
Y31445D01*
X17995Y31445D01*
Y31454D01*
X18014D01*
Y31463D01*
X18023D01*
Y31473D01*
X18042D01*
Y31482D01*
X18061D01*
X18061Y31491D01*
X18070D01*
Y31501D01*
X18089D01*
X18089Y31510D01*
X18098D01*
Y31520D01*
X18117D01*
Y31529D01*
X18136Y31529D01*
Y31538D01*
X18145D01*
Y31548D01*
X18164D01*
Y31557D01*
X18173Y31557D01*
Y31567D01*
X18192D01*
Y31576D01*
X18202D01*
Y31585D01*
X18220D01*
X18220Y31595D01*
X18239D01*
Y31604D01*
X18248D01*
Y31613D01*
X18267D01*
Y31623D01*
X18277D01*
Y31632D01*
X18295Y31632D01*
Y31642D01*
X18314D01*
Y31651D01*
X18324D01*
Y31660D01*
X18342Y31660D01*
Y31670D01*
X18352D01*
Y31679D01*
X18370Y31679D01*
Y31688D01*
X18380D01*
Y31698D01*
X18399D01*
Y31707D01*
X18417D01*
Y31717D01*
X18427D01*
Y31726D01*
X18445Y31726D01*
Y31735D01*
X18455D01*
Y31745D01*
X18474D01*
Y31754D01*
X18483Y31754D01*
Y31764D01*
X18502D01*
Y31773D01*
X18521D01*
Y31782D01*
X18530Y31782D01*
Y31792D01*
X18549D01*
X18549Y31801D01*
X18558D01*
Y31810D01*
X18577D01*
Y31820D01*
X18596Y31820D01*
Y31829D01*
X18605D01*
Y31839D01*
X18624D01*
Y31848D01*
X18633D01*
Y31857D01*
X18652Y31857D01*
Y31867D01*
X18661Y31867D01*
Y31876D01*
X18680D01*
Y31885D01*
X18699D01*
Y31895D01*
X18708D01*
X18708Y31904D01*
X18727D01*
Y31914D01*
X18736D01*
X18736Y31923D01*
X18755D01*
Y31932D01*
X18774Y31932D01*
Y31942D01*
X18783Y31942D01*
Y31951D01*
X18802D01*
Y31961D01*
X18811D01*
Y31970D01*
X18830Y31970D01*
Y31979D01*
X18839D01*
Y31989D01*
X18858D01*
Y31998D01*
X18877D01*
Y32007D01*
X18886D01*
Y32017D01*
X18905D01*
Y32026D01*
X18914D01*
Y32036D01*
X18933D01*
Y32045D01*
X18952D01*
X18952Y32054D01*
X18961D01*
Y32064D01*
X18980Y32064D01*
Y32073D01*
X18990D01*
Y32082D01*
X19008D01*
Y32092D01*
X19018D01*
Y32101D01*
X19036D01*
Y32111D01*
X19055D01*
Y32120D01*
X19065D01*
Y32129D01*
X19083Y32129D01*
Y32139D01*
X19093Y32139D01*
Y32148D01*
X19111D01*
Y32158D01*
X19121D01*
Y32167D01*
X19140Y32167D01*
Y32176D01*
X19158D01*
Y32186D01*
X19168D01*
Y32195D01*
X19187D01*
Y32204D01*
X19196D01*
X19196Y32214D01*
X19215D01*
Y32223D01*
X19233D01*
Y32233D01*
X19243D01*
Y32242D01*
X19262D01*
X19262Y32251D01*
X19271Y32251D01*
Y32261D01*
X19290D01*
Y32270D01*
X19299D01*
X19299Y32279D01*
X19318D01*
Y32289D01*
X19337D01*
Y32298D01*
X19346D01*
Y32308D01*
X19365D01*
Y32317D01*
X19374Y32317D01*
Y32326D01*
X19393D01*
Y32336D01*
X19412D01*
Y32345D01*
X19421D01*
Y32354D01*
X19440D01*
Y32364D01*
X19449D01*
Y32373D01*
X19468D01*
Y32383D01*
X19477D01*
Y32392D01*
X19496D01*
Y32401D01*
X19515D01*
X19515Y32411D01*
X19524D01*
Y32420D01*
X19543D01*
Y32430D01*
X19552D01*
Y32439D01*
X19571D01*
Y32448D01*
X19590D01*
X19590Y32458D01*
X19599D01*
Y32467D01*
X19618D01*
Y32476D01*
X19627D01*
Y32486D01*
X19646D01*
X19646Y32495D01*
X19656D01*
Y32505D01*
X19674D01*
Y32514D01*
X19693D01*
X19693Y32523D01*
X19702D01*
Y32533D01*
X19721D01*
Y32542D01*
X19731D01*
Y32551D01*
X19749D01*
X19749Y32561D01*
X19759D01*
Y32570D01*
X19777D01*
Y32580D01*
X19796D01*
Y32589D01*
X19806D01*
Y32598D01*
X19824D01*
Y32608D01*
X19834D01*
Y32617D01*
X19853D01*
Y32627D01*
X19871Y32627D01*
Y32636D01*
X19881D01*
Y32645D01*
X19899D01*
Y32655D01*
X19909D01*
Y32664D01*
X19928D01*
Y32673D01*
X19937D01*
Y32683D01*
X19956D01*
Y32692D01*
X19974D01*
Y32702D01*
X19984D01*
Y32711D01*
X20003D01*
Y32702D01*
D02*
G37*
G36*
X22846Y1911D02*
X22849D01*
X22853Y1911D01*
X22857D01*
X22868Y1909D01*
X22879Y1908D01*
X22892Y1906D01*
X22906Y1903D01*
X22920Y1899D01*
X22936Y1894D01*
X22952Y1889D01*
X22968Y1882D01*
X22984Y1874D01*
X22999Y1865D01*
X23014Y1854D01*
X23028Y1842D01*
X23029Y1841D01*
X23030Y1840D01*
X23033Y1838D01*
X23035Y1834D01*
X23039Y1830D01*
X23043Y1825D01*
X23048Y1819D01*
X23053Y1812D01*
X23058Y1804D01*
X23064Y1795D01*
X23069Y1785D01*
X23075Y1775D01*
X23080Y1764D01*
X23085Y1752D01*
X23090Y1738D01*
X23094Y1724D01*
X22966Y1694D01*
Y1694D01*
X22966Y1696D01*
X22965Y1698D01*
X22964Y1702D01*
X22962Y1706D01*
X22961Y1711D01*
X22958Y1716D01*
X22956Y1722D01*
X22949Y1734D01*
X22945Y1741D01*
X22941Y1747D01*
X22937Y1754D01*
X22931Y1760D01*
X22925Y1766D01*
X22918Y1772D01*
X22918Y1772D01*
X22917Y1773D01*
X22915Y1775D01*
X22912Y1777D01*
X22909Y1779D01*
X22905Y1781D01*
X22900Y1784D01*
X22894Y1787D01*
X22888Y1789D01*
X22881Y1792D01*
X22874Y1794D01*
X22867Y1796D01*
X22858Y1798D01*
X22850Y1800D01*
X22841Y1801D01*
X22831Y1801D01*
X22828D01*
X22824Y1801D01*
X22820Y1800D01*
X22814Y1800D01*
X22807Y1798D01*
X22799Y1797D01*
X22790Y1795D01*
X22781Y1792D01*
X22772Y1789D01*
X22762Y1784D01*
X22753Y1779D01*
X22743Y1773D01*
X22734Y1767D01*
X22725Y1759D01*
X22716Y1750D01*
X22716Y1749D01*
X22714Y1747D01*
X22712Y1744D01*
X22709Y1740D01*
X22706Y1734D01*
X22702Y1728D01*
X22698Y1720D01*
X22694Y1710D01*
X22690Y1699D01*
X22686Y1687D01*
X22682Y1673D01*
X22679Y1659D01*
X22676Y1642D01*
X22674Y1624D01*
X22673Y1605D01*
X22672Y1584D01*
Y1584D01*
Y1583D01*
Y1581D01*
Y1579D01*
Y1576D01*
X22673Y1573D01*
Y1569D01*
X22673Y1564D01*
X22673Y1555D01*
X22674Y1543D01*
X22676Y1531D01*
X22678Y1517D01*
X22680Y1503D01*
X22683Y1489D01*
X22686Y1475D01*
X22691Y1460D01*
X22695Y1447D01*
X22701Y1434D01*
X22708Y1422D01*
X22716Y1412D01*
X22716Y1411D01*
X22717Y1409D01*
X22720Y1407D01*
X22723Y1404D01*
X22728Y1400D01*
X22733Y1396D01*
X22739Y1391D01*
X22746Y1386D01*
X22754Y1381D01*
X22762Y1377D01*
X22771Y1372D01*
X22782Y1368D01*
X22792Y1365D01*
X22804Y1363D01*
X22816Y1361D01*
X22829Y1360D01*
X22834D01*
X22838Y1361D01*
X22842Y1361D01*
X22847Y1362D01*
X22853Y1363D01*
X22859Y1365D01*
X22866Y1366D01*
X22873Y1368D01*
X22880Y1371D01*
X22888Y1374D01*
X22895Y1378D01*
X22903Y1382D01*
X22910Y1387D01*
X22917Y1393D01*
X22918Y1393D01*
X22919Y1394D01*
X22921Y1397D01*
X22923Y1399D01*
X22926Y1403D01*
X22930Y1407D01*
X22934Y1412D01*
X22938Y1418D01*
X22942Y1425D01*
X22947Y1433D01*
X22951Y1441D01*
X22955Y1450D01*
X22960Y1461D01*
X22964Y1471D01*
X22967Y1483D01*
X22971Y1496D01*
X23096Y1457D01*
Y1456D01*
X23096Y1455D01*
X23095Y1454D01*
X23095Y1452D01*
X23094Y1450D01*
X23093Y1446D01*
X23090Y1440D01*
X23087Y1431D01*
X23083Y1421D01*
X23078Y1409D01*
X23073Y1398D01*
X23067Y1385D01*
X23060Y1372D01*
X23052Y1360D01*
X23043Y1347D01*
X23034Y1334D01*
X23023Y1322D01*
X23012Y1311D01*
X23000Y1301D01*
X22999Y1300D01*
X22997Y1299D01*
X22993Y1296D01*
X22988Y1293D01*
X22981Y1289D01*
X22973Y1285D01*
X22964Y1280D01*
X22954Y1275D01*
X22942Y1271D01*
X22929Y1266D01*
X22915Y1262D01*
X22900Y1258D01*
X22884Y1255D01*
X22867Y1252D01*
X22849Y1250D01*
X22830Y1250D01*
X22825D01*
X22821Y1250D01*
X22818D01*
X22814Y1251D01*
X22809Y1251D01*
X22804Y1252D01*
X22798Y1253D01*
X22785Y1255D01*
X22771Y1257D01*
X22756Y1261D01*
X22740Y1265D01*
X22723Y1271D01*
X22706Y1278D01*
X22688Y1287D01*
X22671Y1297D01*
X22653Y1308D01*
X22645Y1315D01*
X22636Y1322D01*
X22629Y1329D01*
X22621Y1337D01*
Y1337D01*
X22620Y1338D01*
X22619Y1339D01*
X22617Y1341D01*
X22615Y1343D01*
X22613Y1346D01*
X22611Y1349D01*
X22608Y1353D01*
X22605Y1357D01*
X22602Y1362D01*
X22599Y1367D01*
X22595Y1372D01*
X22587Y1385D01*
X22580Y1399D01*
X22572Y1416D01*
X22565Y1433D01*
X22558Y1453D01*
X22552Y1474D01*
X22546Y1497D01*
X22543Y1521D01*
X22540Y1547D01*
X22539Y1561D01*
X22539Y1575D01*
Y1575D01*
Y1577D01*
Y1579D01*
Y1582D01*
X22539Y1586D01*
Y1590D01*
X22540Y1595D01*
X22540Y1601D01*
X22541Y1608D01*
X22541Y1615D01*
X22542Y1622D01*
X22543Y1630D01*
X22546Y1647D01*
X22549Y1666D01*
X22554Y1685D01*
X22559Y1706D01*
X22566Y1726D01*
X22574Y1747D01*
X22583Y1767D01*
X22594Y1787D01*
X22607Y1806D01*
X22614Y1814D01*
X22621Y1823D01*
X22622Y1823D01*
X22622Y1824D01*
X22624Y1825D01*
X22625Y1826D01*
X22630Y1831D01*
X22636Y1837D01*
X22644Y1844D01*
X22655Y1851D01*
X22666Y1859D01*
X22679Y1867D01*
X22694Y1875D01*
X22710Y1883D01*
X22728Y1891D01*
X22747Y1898D01*
X22768Y1903D01*
X22790Y1908D01*
X22814Y1911D01*
X22826Y1911D01*
X22838Y1912D01*
X22843D01*
X22846Y1911D01*
D02*
G37*
G36*
X21158D02*
X21161D01*
X21165Y1911D01*
X21169D01*
X21179Y1909D01*
X21190Y1908D01*
X21203Y1906D01*
X21217Y1903D01*
X21232Y1899D01*
X21248Y1894D01*
X21264Y1889D01*
X21280Y1882D01*
X21295Y1874D01*
X21311Y1865D01*
X21326Y1854D01*
X21340Y1842D01*
X21341Y1841D01*
X21342Y1840D01*
X21344Y1838D01*
X21347Y1834D01*
X21351Y1830D01*
X21355Y1825D01*
X21360Y1819D01*
X21365Y1812D01*
X21370Y1804D01*
X21375Y1795D01*
X21381Y1785D01*
X21386Y1775D01*
X21392Y1764D01*
X21397Y1752D01*
X21402Y1738D01*
X21406Y1724D01*
X21278Y1694D01*
Y1694D01*
X21277Y1696D01*
X21276Y1698D01*
X21276Y1702D01*
X21274Y1706D01*
X21272Y1711D01*
X21270Y1716D01*
X21268Y1722D01*
X21261Y1734D01*
X21257Y1741D01*
X21253Y1747D01*
X21248Y1754D01*
X21243Y1760D01*
X21237Y1766D01*
X21230Y1772D01*
X21230Y1772D01*
X21229Y1773D01*
X21227Y1775D01*
X21224Y1777D01*
X21221Y1779D01*
X21216Y1781D01*
X21211Y1784D01*
X21206Y1787D01*
X21200Y1789D01*
X21193Y1792D01*
X21186Y1794D01*
X21178Y1796D01*
X21170Y1798D01*
X21161Y1800D01*
X21153Y1801D01*
X21143Y1801D01*
X21140D01*
X21136Y1801D01*
X21131Y1800D01*
X21125Y1800D01*
X21118Y1798D01*
X21110Y1797D01*
X21102Y1795D01*
X21093Y1792D01*
X21084Y1789D01*
X21074Y1784D01*
X21064Y1779D01*
X21055Y1773D01*
X21045Y1767D01*
X21037Y1759D01*
X21028Y1750D01*
X21027Y1749D01*
X21026Y1747D01*
X21024Y1744D01*
X21021Y1740D01*
X21018Y1734D01*
X21014Y1728D01*
X21010Y1720D01*
X21006Y1710D01*
X21002Y1699D01*
X20998Y1687D01*
X20994Y1673D01*
X20991Y1659D01*
X20988Y1642D01*
X20986Y1624D01*
X20984Y1605D01*
X20984Y1584D01*
Y1584D01*
Y1583D01*
Y1581D01*
Y1579D01*
Y1576D01*
X20984Y1573D01*
Y1569D01*
X20985Y1564D01*
X20985Y1555D01*
X20986Y1543D01*
X20988Y1531D01*
X20989Y1517D01*
X20992Y1503D01*
X20994Y1489D01*
X20998Y1475D01*
X21002Y1460D01*
X21007Y1447D01*
X21013Y1434D01*
X21019Y1422D01*
X21027Y1412D01*
X21028Y1411D01*
X21029Y1409D01*
X21032Y1407D01*
X21035Y1404D01*
X21039Y1400D01*
X21045Y1396D01*
X21051Y1391D01*
X21058Y1386D01*
X21066Y1381D01*
X21074Y1377D01*
X21083Y1372D01*
X21093Y1368D01*
X21104Y1365D01*
X21116Y1363D01*
X21128Y1361D01*
X21141Y1360D01*
X21146D01*
X21149Y1361D01*
X21153Y1361D01*
X21159Y1362D01*
X21165Y1363D01*
X21171Y1365D01*
X21178Y1366D01*
X21184Y1368D01*
X21192Y1371D01*
X21199Y1374D01*
X21207Y1378D01*
X21215Y1382D01*
X21222Y1387D01*
X21229Y1393D01*
X21229Y1393D01*
X21231Y1394D01*
X21233Y1397D01*
X21235Y1399D01*
X21238Y1403D01*
X21242Y1407D01*
X21245Y1412D01*
X21250Y1418D01*
X21254Y1425D01*
X21258Y1433D01*
X21263Y1441D01*
X21267Y1450D01*
X21271Y1461D01*
X21276Y1471D01*
X21279Y1483D01*
X21282Y1496D01*
X21408Y1457D01*
Y1456D01*
X21407Y1455D01*
X21407Y1454D01*
X21406Y1452D01*
X21405Y1450D01*
X21404Y1446D01*
X21402Y1440D01*
X21399Y1431D01*
X21395Y1421D01*
X21390Y1409D01*
X21385Y1398D01*
X21379Y1385D01*
X21372Y1372D01*
X21364Y1360D01*
X21355Y1347D01*
X21345Y1334D01*
X21335Y1322D01*
X21324Y1311D01*
X21312Y1301D01*
X21311Y1300D01*
X21308Y1299D01*
X21305Y1296D01*
X21300Y1293D01*
X21293Y1289D01*
X21285Y1285D01*
X21276Y1280D01*
X21265Y1275D01*
X21254Y1271D01*
X21241Y1266D01*
X21227Y1262D01*
X21212Y1258D01*
X21196Y1255D01*
X21179Y1252D01*
X21161Y1250D01*
X21142Y1250D01*
X21136D01*
X21133Y1250D01*
X21129D01*
X21125Y1251D01*
X21121Y1251D01*
X21116Y1252D01*
X21110Y1253D01*
X21097Y1255D01*
X21083Y1257D01*
X21068Y1261D01*
X21052Y1265D01*
X21035Y1271D01*
X21018Y1278D01*
X21000Y1287D01*
X20982Y1297D01*
X20965Y1308D01*
X20957Y1315D01*
X20948Y1322D01*
X20940Y1329D01*
X20933Y1337D01*
Y1337D01*
X20932Y1338D01*
X20931Y1339D01*
X20929Y1341D01*
X20927Y1343D01*
X20925Y1346D01*
X20922Y1349D01*
X20920Y1353D01*
X20917Y1357D01*
X20914Y1362D01*
X20910Y1367D01*
X20907Y1372D01*
X20899Y1385D01*
X20892Y1399D01*
X20884Y1416D01*
X20877Y1433D01*
X20870Y1453D01*
X20864Y1474D01*
X20858Y1497D01*
X20854Y1521D01*
X20852Y1547D01*
X20851Y1561D01*
X20851Y1575D01*
Y1575D01*
Y1577D01*
Y1579D01*
Y1582D01*
X20851Y1586D01*
Y1590D01*
X20852Y1595D01*
X20852Y1601D01*
X20853Y1608D01*
X20853Y1615D01*
X20854Y1622D01*
X20855Y1630D01*
X20858Y1647D01*
X20861Y1666D01*
X20865Y1685D01*
X20871Y1706D01*
X20878Y1726D01*
X20885Y1747D01*
X20895Y1767D01*
X20906Y1787D01*
X20919Y1806D01*
X20926Y1814D01*
X20933Y1823D01*
X20933Y1823D01*
X20934Y1824D01*
X20935Y1825D01*
X20937Y1826D01*
X20941Y1831D01*
X20948Y1837D01*
X20956Y1844D01*
X20966Y1851D01*
X20978Y1859D01*
X20991Y1867D01*
X21006Y1875D01*
X21022Y1883D01*
X21040Y1891D01*
X21059Y1898D01*
X21080Y1903D01*
X21102Y1908D01*
X21125Y1911D01*
X21137Y1911D01*
X21150Y1912D01*
X21155D01*
X21158Y1911D01*
D02*
G37*
G36*
X19469D02*
X19473D01*
X19477Y1911D01*
X19481D01*
X19491Y1909D01*
X19502Y1908D01*
X19515Y1906D01*
X19529Y1903D01*
X19544Y1899D01*
X19560Y1894D01*
X19575Y1889D01*
X19591Y1882D01*
X19607Y1874D01*
X19623Y1865D01*
X19638Y1854D01*
X19652Y1842D01*
X19652Y1841D01*
X19654Y1840D01*
X19656Y1838D01*
X19659Y1834D01*
X19663Y1830D01*
X19667Y1825D01*
X19671Y1819D01*
X19677Y1812D01*
X19682Y1804D01*
X19687Y1795D01*
X19693Y1785D01*
X19698Y1775D01*
X19703Y1764D01*
X19708Y1752D01*
X19713Y1738D01*
X19718Y1724D01*
X19590Y1694D01*
Y1694D01*
X19589Y1696D01*
X19588Y1698D01*
X19587Y1702D01*
X19586Y1706D01*
X19584Y1711D01*
X19582Y1716D01*
X19579Y1722D01*
X19573Y1734D01*
X19569Y1741D01*
X19565Y1747D01*
X19560Y1754D01*
X19554Y1760D01*
X19548Y1766D01*
X19542Y1772D01*
X19542Y1772D01*
X19541Y1773D01*
X19538Y1775D01*
X19535Y1777D01*
X19532Y1779D01*
X19528Y1781D01*
X19523Y1784D01*
X19518Y1787D01*
X19511Y1789D01*
X19505Y1792D01*
X19498Y1794D01*
X19490Y1796D01*
X19482Y1798D01*
X19473Y1800D01*
X19464Y1801D01*
X19455Y1801D01*
X19451D01*
X19448Y1801D01*
X19443Y1800D01*
X19437Y1800D01*
X19430Y1798D01*
X19422Y1797D01*
X19414Y1795D01*
X19405Y1792D01*
X19395Y1789D01*
X19386Y1784D01*
X19376Y1779D01*
X19367Y1773D01*
X19357Y1767D01*
X19348Y1759D01*
X19340Y1750D01*
X19339Y1749D01*
X19338Y1747D01*
X19335Y1744D01*
X19333Y1740D01*
X19329Y1734D01*
X19326Y1728D01*
X19321Y1720D01*
X19318Y1710D01*
X19314Y1699D01*
X19309Y1687D01*
X19306Y1673D01*
X19303Y1659D01*
X19300Y1642D01*
X19297Y1624D01*
X19296Y1605D01*
X19296Y1584D01*
Y1584D01*
Y1583D01*
Y1581D01*
Y1579D01*
Y1576D01*
X19296Y1573D01*
Y1569D01*
X19296Y1564D01*
X19297Y1555D01*
X19298Y1543D01*
X19299Y1531D01*
X19301Y1517D01*
X19303Y1503D01*
X19306Y1489D01*
X19310Y1475D01*
X19314Y1460D01*
X19319Y1447D01*
X19325Y1434D01*
X19331Y1422D01*
X19339Y1412D01*
X19340Y1411D01*
X19341Y1409D01*
X19344Y1407D01*
X19347Y1404D01*
X19351Y1400D01*
X19357Y1396D01*
X19363Y1391D01*
X19370Y1386D01*
X19377Y1381D01*
X19386Y1377D01*
X19395Y1372D01*
X19405Y1368D01*
X19416Y1365D01*
X19427Y1363D01*
X19439Y1361D01*
X19452Y1360D01*
X19457D01*
X19461Y1361D01*
X19465Y1361D01*
X19470Y1362D01*
X19476Y1363D01*
X19483Y1365D01*
X19489Y1366D01*
X19496Y1368D01*
X19504Y1371D01*
X19511Y1374D01*
X19519Y1378D01*
X19526Y1382D01*
X19534Y1387D01*
X19541Y1393D01*
X19541Y1393D01*
X19542Y1394D01*
X19544Y1397D01*
X19547Y1399D01*
X19550Y1403D01*
X19554Y1407D01*
X19557Y1412D01*
X19561Y1418D01*
X19566Y1425D01*
X19570Y1433D01*
X19575Y1441D01*
X19579Y1450D01*
X19583Y1461D01*
X19587Y1471D01*
X19591Y1483D01*
X19594Y1496D01*
X19719Y1457D01*
Y1456D01*
X19719Y1455D01*
X19719Y1454D01*
X19718Y1452D01*
X19717Y1450D01*
X19716Y1446D01*
X19714Y1440D01*
X19711Y1431D01*
X19707Y1421D01*
X19702Y1409D01*
X19696Y1398D01*
X19690Y1385D01*
X19683Y1372D01*
X19676Y1360D01*
X19667Y1347D01*
X19657Y1334D01*
X19647Y1322D01*
X19635Y1311D01*
X19623Y1301D01*
X19622Y1300D01*
X19620Y1299D01*
X19616Y1296D01*
X19611Y1293D01*
X19605Y1289D01*
X19597Y1285D01*
X19588Y1280D01*
X19577Y1275D01*
X19566Y1271D01*
X19553Y1266D01*
X19539Y1262D01*
X19523Y1258D01*
X19508Y1255D01*
X19491Y1252D01*
X19473Y1250D01*
X19454Y1250D01*
X19448D01*
X19445Y1250D01*
X19441D01*
X19437Y1251D01*
X19432Y1251D01*
X19427Y1252D01*
X19422Y1253D01*
X19409Y1255D01*
X19395Y1257D01*
X19380Y1261D01*
X19364Y1265D01*
X19346Y1271D01*
X19329Y1278D01*
X19311Y1287D01*
X19294Y1297D01*
X19277Y1308D01*
X19268Y1315D01*
X19260Y1322D01*
X19252Y1329D01*
X19244Y1337D01*
Y1337D01*
X19243Y1338D01*
X19242Y1339D01*
X19241Y1341D01*
X19239Y1343D01*
X19237Y1346D01*
X19234Y1349D01*
X19231Y1353D01*
X19229Y1357D01*
X19225Y1362D01*
X19222Y1367D01*
X19218Y1372D01*
X19211Y1385D01*
X19204Y1399D01*
X19196Y1416D01*
X19188Y1433D01*
X19181Y1453D01*
X19175Y1474D01*
X19170Y1497D01*
X19166Y1521D01*
X19163Y1547D01*
X19163Y1561D01*
X19162Y1575D01*
Y1575D01*
Y1577D01*
Y1579D01*
Y1582D01*
X19163Y1586D01*
Y1590D01*
X19163Y1595D01*
X19164Y1601D01*
X19164Y1608D01*
X19165Y1615D01*
X19166Y1622D01*
X19167Y1630D01*
X19169Y1647D01*
X19173Y1666D01*
X19177Y1685D01*
X19182Y1706D01*
X19189Y1726D01*
X19197Y1747D01*
X19207Y1767D01*
X19217Y1787D01*
X19230Y1806D01*
X19237Y1814D01*
X19245Y1823D01*
X19245Y1823D01*
X19246Y1824D01*
X19247Y1825D01*
X19248Y1826D01*
X19253Y1831D01*
X19260Y1837D01*
X19268Y1844D01*
X19278Y1851D01*
X19290Y1859D01*
X19303Y1867D01*
X19317Y1875D01*
X19334Y1883D01*
X19352Y1891D01*
X19371Y1898D01*
X19392Y1903D01*
X19413Y1908D01*
X19437Y1911D01*
X19449Y1911D01*
X19462Y1912D01*
X19467D01*
X19469Y1911D01*
D02*
G37*
G36*
X17781D02*
X17784D01*
X17789Y1911D01*
X17793D01*
X17803Y1909D01*
X17814Y1908D01*
X17827Y1906D01*
X17841Y1903D01*
X17856Y1899D01*
X17871Y1894D01*
X17887Y1889D01*
X17903Y1882D01*
X17919Y1874D01*
X17935Y1865D01*
X17949Y1854D01*
X17964Y1842D01*
X17964Y1841D01*
X17966Y1840D01*
X17968Y1838D01*
X17971Y1834D01*
X17974Y1830D01*
X17979Y1825D01*
X17983Y1819D01*
X17988Y1812D01*
X17993Y1804D01*
X17999Y1795D01*
X18004Y1785D01*
X18010Y1775D01*
X18015Y1764D01*
X18020Y1752D01*
X18025Y1738D01*
X18029Y1724D01*
X17901Y1694D01*
Y1694D01*
X17901Y1696D01*
X17900Y1698D01*
X17899Y1702D01*
X17898Y1706D01*
X17896Y1711D01*
X17893Y1716D01*
X17891Y1722D01*
X17885Y1734D01*
X17881Y1741D01*
X17876Y1747D01*
X17872Y1754D01*
X17866Y1760D01*
X17860Y1766D01*
X17854Y1772D01*
X17853Y1772D01*
X17852Y1773D01*
X17850Y1775D01*
X17847Y1777D01*
X17844Y1779D01*
X17840Y1781D01*
X17835Y1784D01*
X17830Y1787D01*
X17823Y1789D01*
X17817Y1792D01*
X17809Y1794D01*
X17802Y1796D01*
X17794Y1798D01*
X17785Y1800D01*
X17776Y1801D01*
X17766Y1801D01*
X17763D01*
X17759Y1801D01*
X17755Y1800D01*
X17749Y1800D01*
X17742Y1798D01*
X17734Y1797D01*
X17726Y1795D01*
X17716Y1792D01*
X17707Y1789D01*
X17697Y1784D01*
X17688Y1779D01*
X17679Y1773D01*
X17669Y1767D01*
X17660Y1759D01*
X17651Y1750D01*
X17651Y1749D01*
X17649Y1747D01*
X17647Y1744D01*
X17644Y1740D01*
X17641Y1734D01*
X17637Y1728D01*
X17633Y1720D01*
X17630Y1710D01*
X17625Y1699D01*
X17621Y1687D01*
X17618Y1673D01*
X17614Y1659D01*
X17611Y1642D01*
X17609Y1624D01*
X17608Y1605D01*
X17607Y1584D01*
Y1584D01*
Y1583D01*
Y1581D01*
Y1579D01*
Y1576D01*
X17608Y1573D01*
Y1569D01*
X17608Y1564D01*
X17609Y1555D01*
X17610Y1543D01*
X17611Y1531D01*
X17613Y1517D01*
X17615Y1503D01*
X17618Y1489D01*
X17622Y1475D01*
X17626Y1460D01*
X17630Y1447D01*
X17636Y1434D01*
X17643Y1422D01*
X17651Y1412D01*
X17651Y1411D01*
X17653Y1409D01*
X17655Y1407D01*
X17659Y1404D01*
X17663Y1400D01*
X17668Y1396D01*
X17674Y1391D01*
X17681Y1386D01*
X17689Y1381D01*
X17697Y1377D01*
X17707Y1372D01*
X17717Y1368D01*
X17728Y1365D01*
X17739Y1363D01*
X17751Y1361D01*
X17764Y1360D01*
X17769D01*
X17773Y1361D01*
X17777Y1361D01*
X17782Y1362D01*
X17788Y1363D01*
X17795Y1365D01*
X17801Y1366D01*
X17808Y1368D01*
X17815Y1371D01*
X17823Y1374D01*
X17831Y1378D01*
X17838Y1382D01*
X17845Y1387D01*
X17852Y1393D01*
X17853Y1393D01*
X17854Y1394D01*
X17856Y1397D01*
X17858Y1399D01*
X17862Y1403D01*
X17865Y1407D01*
X17869Y1412D01*
X17873Y1418D01*
X17877Y1425D01*
X17882Y1433D01*
X17887Y1441D01*
X17891Y1450D01*
X17895Y1461D01*
X17899Y1471D01*
X17903Y1483D01*
X17906Y1496D01*
X18031Y1457D01*
Y1456D01*
X18031Y1455D01*
X18030Y1454D01*
X18030Y1452D01*
X18029Y1450D01*
X18028Y1446D01*
X18026Y1440D01*
X18022Y1431D01*
X18018Y1421D01*
X18014Y1409D01*
X18008Y1398D01*
X18002Y1385D01*
X17995Y1372D01*
X17987Y1360D01*
X17979Y1347D01*
X17969Y1334D01*
X17959Y1322D01*
X17947Y1311D01*
X17935Y1301D01*
X17934Y1300D01*
X17932Y1299D01*
X17928Y1296D01*
X17923Y1293D01*
X17917Y1289D01*
X17909Y1285D01*
X17899Y1280D01*
X17889Y1275D01*
X17877Y1271D01*
X17864Y1266D01*
X17850Y1262D01*
X17835Y1258D01*
X17820Y1255D01*
X17802Y1252D01*
X17784Y1250D01*
X17765Y1250D01*
X17760D01*
X17757Y1250D01*
X17753D01*
X17749Y1251D01*
X17744Y1251D01*
X17739Y1252D01*
X17734Y1253D01*
X17721Y1255D01*
X17707Y1257D01*
X17691Y1261D01*
X17675Y1265D01*
X17658Y1271D01*
X17641Y1278D01*
X17623Y1287D01*
X17606Y1297D01*
X17588Y1308D01*
X17580Y1315D01*
X17572Y1322D01*
X17564Y1329D01*
X17556Y1337D01*
Y1337D01*
X17555Y1338D01*
X17554Y1339D01*
X17552Y1341D01*
X17550Y1343D01*
X17549Y1346D01*
X17546Y1349D01*
X17543Y1353D01*
X17540Y1357D01*
X17537Y1362D01*
X17534Y1367D01*
X17530Y1372D01*
X17523Y1385D01*
X17515Y1399D01*
X17507Y1416D01*
X17500Y1433D01*
X17493Y1453D01*
X17487Y1474D01*
X17482Y1497D01*
X17478Y1521D01*
X17475Y1547D01*
X17475Y1561D01*
X17474Y1575D01*
Y1575D01*
Y1577D01*
Y1579D01*
Y1582D01*
X17475Y1586D01*
Y1590D01*
X17475Y1595D01*
X17476Y1601D01*
X17476Y1608D01*
X17477Y1615D01*
X17477Y1622D01*
X17478Y1630D01*
X17481Y1647D01*
X17484Y1666D01*
X17489Y1685D01*
X17494Y1706D01*
X17501Y1726D01*
X17509Y1747D01*
X17519Y1767D01*
X17529Y1787D01*
X17542Y1806D01*
X17549Y1814D01*
X17556Y1823D01*
X17557Y1823D01*
X17557Y1824D01*
X17559Y1825D01*
X17560Y1826D01*
X17565Y1831D01*
X17571Y1837D01*
X17580Y1844D01*
X17590Y1851D01*
X17601Y1859D01*
X17614Y1867D01*
X17629Y1875D01*
X17646Y1883D01*
X17663Y1891D01*
X17683Y1898D01*
X17703Y1903D01*
X17725Y1908D01*
X17749Y1911D01*
X17761Y1911D01*
X17773Y1912D01*
X17778D01*
X17781Y1911D01*
D02*
G37*
G36*
X21878Y1495D02*
Y1495D01*
Y1492D01*
Y1488D01*
Y1483D01*
X21877Y1476D01*
X21877Y1468D01*
X21876Y1459D01*
X21876Y1451D01*
X21876Y1441D01*
X21874Y1431D01*
X21872Y1410D01*
X21870Y1401D01*
X21868Y1391D01*
X21866Y1382D01*
X21864Y1373D01*
Y1373D01*
X21863Y1371D01*
X21862Y1368D01*
X21860Y1364D01*
X21858Y1360D01*
X21855Y1354D01*
X21852Y1348D01*
X21848Y1341D01*
X21844Y1334D01*
X21839Y1327D01*
X21833Y1319D01*
X21827Y1312D01*
X21820Y1305D01*
X21813Y1297D01*
X21804Y1290D01*
X21796Y1284D01*
X21795Y1283D01*
X21793Y1282D01*
X21791Y1281D01*
X21787Y1279D01*
X21782Y1276D01*
X21776Y1273D01*
X21769Y1270D01*
X21761Y1267D01*
X21752Y1264D01*
X21742Y1261D01*
X21732Y1258D01*
X21720Y1255D01*
X21708Y1253D01*
X21694Y1251D01*
X21680Y1250D01*
X21666Y1250D01*
X21662D01*
X21656Y1250D01*
X21650Y1251D01*
X21642Y1252D01*
X21633Y1253D01*
X21623Y1255D01*
X21612Y1256D01*
X21601Y1259D01*
X21588Y1263D01*
X21576Y1267D01*
X21564Y1272D01*
X21552Y1278D01*
X21540Y1285D01*
X21530Y1293D01*
X21520Y1303D01*
X21519Y1303D01*
X21517Y1305D01*
X21515Y1308D01*
X21512Y1312D01*
X21508Y1318D01*
X21503Y1325D01*
X21499Y1333D01*
X21494Y1342D01*
X21490Y1353D01*
X21485Y1364D01*
X21481Y1377D01*
X21477Y1391D01*
X21473Y1406D01*
X21471Y1422D01*
X21469Y1440D01*
X21469Y1459D01*
X21590Y1473D01*
Y1472D01*
Y1471D01*
X21591Y1468D01*
Y1464D01*
X21591Y1459D01*
X21592Y1454D01*
X21592Y1448D01*
X21593Y1442D01*
X21595Y1429D01*
X21598Y1416D01*
X21600Y1410D01*
X21601Y1404D01*
X21604Y1399D01*
X21606Y1395D01*
X21607Y1394D01*
X21607Y1393D01*
X21608Y1391D01*
X21610Y1389D01*
X21613Y1387D01*
X21615Y1384D01*
X21618Y1381D01*
X21622Y1378D01*
X21626Y1374D01*
X21631Y1371D01*
X21636Y1368D01*
X21642Y1366D01*
X21648Y1364D01*
X21655Y1362D01*
X21662Y1361D01*
X21670Y1360D01*
X21674D01*
X21677Y1361D01*
X21680Y1361D01*
X21685Y1362D01*
X21693Y1364D01*
X21704Y1366D01*
X21714Y1371D01*
X21718Y1373D01*
X21723Y1377D01*
X21727Y1381D01*
X21731Y1385D01*
Y1385D01*
X21732Y1386D01*
X21733Y1388D01*
X21734Y1390D01*
X21735Y1393D01*
X21736Y1397D01*
X21738Y1402D01*
X21740Y1407D01*
X21742Y1413D01*
X21743Y1421D01*
X21745Y1429D01*
X21746Y1439D01*
X21747Y1449D01*
X21748Y1460D01*
X21749Y1473D01*
Y1487D01*
Y1901D01*
X21878D01*
Y1495D01*
D02*
G37*
G36*
X20190D02*
Y1495D01*
Y1492D01*
Y1488D01*
Y1483D01*
X20189Y1476D01*
X20189Y1468D01*
X20188Y1459D01*
X20188Y1451D01*
X20187Y1441D01*
X20186Y1431D01*
X20184Y1410D01*
X20182Y1401D01*
X20180Y1391D01*
X20178Y1382D01*
X20175Y1373D01*
Y1373D01*
X20174Y1371D01*
X20173Y1368D01*
X20172Y1364D01*
X20169Y1360D01*
X20167Y1354D01*
X20164Y1348D01*
X20160Y1341D01*
X20155Y1334D01*
X20151Y1327D01*
X20145Y1319D01*
X20139Y1312D01*
X20132Y1305D01*
X20124Y1297D01*
X20116Y1290D01*
X20107Y1284D01*
X20107Y1283D01*
X20105Y1282D01*
X20102Y1281D01*
X20099Y1279D01*
X20093Y1276D01*
X20087Y1273D01*
X20081Y1270D01*
X20073Y1267D01*
X20064Y1264D01*
X20054Y1261D01*
X20044Y1258D01*
X20032Y1255D01*
X20020Y1253D01*
X20006Y1251D01*
X19992Y1250D01*
X19977Y1250D01*
X19973D01*
X19968Y1250D01*
X19962Y1251D01*
X19954Y1252D01*
X19945Y1253D01*
X19934Y1255D01*
X19924Y1256D01*
X19912Y1259D01*
X19900Y1263D01*
X19888Y1267D01*
X19876Y1272D01*
X19864Y1278D01*
X19852Y1285D01*
X19842Y1293D01*
X19831Y1303D01*
X19831Y1303D01*
X19829Y1305D01*
X19827Y1308D01*
X19823Y1312D01*
X19820Y1318D01*
X19815Y1325D01*
X19811Y1333D01*
X19806Y1342D01*
X19801Y1353D01*
X19797Y1364D01*
X19793Y1377D01*
X19788Y1391D01*
X19785Y1406D01*
X19783Y1422D01*
X19781Y1440D01*
X19781Y1459D01*
X19902Y1473D01*
Y1472D01*
Y1471D01*
X19903Y1468D01*
Y1464D01*
X19903Y1459D01*
X19903Y1454D01*
X19904Y1448D01*
X19905Y1442D01*
X19907Y1429D01*
X19909Y1416D01*
X19911Y1410D01*
X19913Y1404D01*
X19916Y1399D01*
X19918Y1395D01*
X19918Y1394D01*
X19919Y1393D01*
X19920Y1391D01*
X19922Y1389D01*
X19924Y1387D01*
X19927Y1384D01*
X19930Y1381D01*
X19934Y1378D01*
X19938Y1374D01*
X19943Y1371D01*
X19948Y1368D01*
X19954Y1366D01*
X19960Y1364D01*
X19967Y1362D01*
X19974Y1361D01*
X19982Y1360D01*
X19986D01*
X19989Y1361D01*
X19992Y1361D01*
X19996Y1362D01*
X20005Y1364D01*
X20015Y1366D01*
X20026Y1371D01*
X20030Y1373D01*
X20035Y1377D01*
X20039Y1381D01*
X20043Y1385D01*
Y1385D01*
X20044Y1386D01*
X20044Y1388D01*
X20045Y1390D01*
X20047Y1393D01*
X20048Y1397D01*
X20050Y1402D01*
X20052Y1407D01*
X20053Y1413D01*
X20055Y1421D01*
X20056Y1429D01*
X20058Y1439D01*
X20059Y1449D01*
X20060Y1460D01*
X20061Y1473D01*
Y1487D01*
Y1901D01*
X20190D01*
Y1495D01*
D02*
G37*
G36*
X18501D02*
Y1495D01*
Y1492D01*
Y1488D01*
Y1483D01*
X18501Y1476D01*
X18500Y1468D01*
X18500Y1459D01*
X18500Y1451D01*
X18499Y1441D01*
X18498Y1431D01*
X18495Y1410D01*
X18494Y1401D01*
X18492Y1391D01*
X18489Y1382D01*
X18487Y1373D01*
Y1373D01*
X18486Y1371D01*
X18485Y1368D01*
X18483Y1364D01*
X18481Y1360D01*
X18479Y1354D01*
X18476Y1348D01*
X18472Y1341D01*
X18467Y1334D01*
X18463Y1327D01*
X18457Y1319D01*
X18451Y1312D01*
X18444Y1305D01*
X18436Y1297D01*
X18428Y1290D01*
X18419Y1284D01*
X18419Y1283D01*
X18417Y1282D01*
X18414Y1281D01*
X18410Y1279D01*
X18405Y1276D01*
X18399Y1273D01*
X18392Y1270D01*
X18384Y1267D01*
X18376Y1264D01*
X18366Y1261D01*
X18355Y1258D01*
X18344Y1255D01*
X18331Y1253D01*
X18318Y1251D01*
X18304Y1250D01*
X18289Y1250D01*
X18285D01*
X18280Y1250D01*
X18273Y1251D01*
X18266Y1252D01*
X18256Y1253D01*
X18246Y1255D01*
X18236Y1256D01*
X18224Y1259D01*
X18212Y1263D01*
X18200Y1267D01*
X18187Y1272D01*
X18175Y1278D01*
X18164Y1285D01*
X18153Y1293D01*
X18143Y1303D01*
X18143Y1303D01*
X18141Y1305D01*
X18138Y1308D01*
X18135Y1312D01*
X18132Y1318D01*
X18127Y1325D01*
X18122Y1333D01*
X18118Y1342D01*
X18113Y1353D01*
X18108Y1364D01*
X18104Y1377D01*
X18100Y1391D01*
X18097Y1406D01*
X18095Y1422D01*
X18093Y1440D01*
X18092Y1459D01*
X18214Y1473D01*
Y1472D01*
Y1471D01*
X18214Y1468D01*
Y1464D01*
X18215Y1459D01*
X18215Y1454D01*
X18216Y1448D01*
X18217Y1442D01*
X18218Y1429D01*
X18221Y1416D01*
X18223Y1410D01*
X18225Y1404D01*
X18227Y1399D01*
X18230Y1395D01*
X18230Y1394D01*
X18230Y1393D01*
X18232Y1391D01*
X18234Y1389D01*
X18236Y1387D01*
X18238Y1384D01*
X18242Y1381D01*
X18246Y1378D01*
X18250Y1374D01*
X18255Y1371D01*
X18260Y1368D01*
X18266Y1366D01*
X18272Y1364D01*
X18279Y1362D01*
X18285Y1361D01*
X18293Y1360D01*
X18298D01*
X18300Y1361D01*
X18304Y1361D01*
X18308Y1362D01*
X18317Y1364D01*
X18327Y1366D01*
X18337Y1371D01*
X18342Y1373D01*
X18347Y1377D01*
X18351Y1381D01*
X18354Y1385D01*
Y1385D01*
X18355Y1386D01*
X18356Y1388D01*
X18357Y1390D01*
X18359Y1393D01*
X18360Y1397D01*
X18362Y1402D01*
X18364Y1407D01*
X18365Y1413D01*
X18367Y1421D01*
X18368Y1429D01*
X18370Y1439D01*
X18371Y1449D01*
X18371Y1460D01*
X18372Y1473D01*
Y1487D01*
Y1901D01*
X18501D01*
Y1495D01*
D02*
G37*
G36*
X16813D02*
Y1495D01*
Y1492D01*
Y1488D01*
Y1483D01*
X16813Y1476D01*
X16812Y1468D01*
X16812Y1459D01*
X16811Y1451D01*
X16811Y1441D01*
X16809Y1431D01*
X16807Y1410D01*
X16805Y1401D01*
X16803Y1391D01*
X16801Y1382D01*
X16799Y1373D01*
Y1373D01*
X16798Y1371D01*
X16797Y1368D01*
X16795Y1364D01*
X16793Y1360D01*
X16790Y1354D01*
X16787Y1348D01*
X16784Y1341D01*
X16779Y1334D01*
X16774Y1327D01*
X16769Y1319D01*
X16762Y1312D01*
X16755Y1305D01*
X16748Y1297D01*
X16740Y1290D01*
X16731Y1284D01*
X16730Y1283D01*
X16729Y1282D01*
X16726Y1281D01*
X16722Y1279D01*
X16717Y1276D01*
X16711Y1273D01*
X16704Y1270D01*
X16696Y1267D01*
X16687Y1264D01*
X16678Y1261D01*
X16667Y1258D01*
X16656Y1255D01*
X16643Y1253D01*
X16630Y1251D01*
X16616Y1250D01*
X16601Y1250D01*
X16597D01*
X16592Y1250D01*
X16585Y1251D01*
X16577Y1252D01*
X16568Y1253D01*
X16558Y1255D01*
X16547Y1256D01*
X16536Y1259D01*
X16524Y1263D01*
X16512Y1267D01*
X16499Y1272D01*
X16487Y1278D01*
X16476Y1285D01*
X16465Y1293D01*
X16455Y1303D01*
X16454Y1303D01*
X16453Y1305D01*
X16450Y1308D01*
X16447Y1312D01*
X16443Y1318D01*
X16439Y1325D01*
X16434Y1333D01*
X16429Y1342D01*
X16425Y1353D01*
X16420Y1364D01*
X16416Y1377D01*
X16412Y1391D01*
X16409Y1406D01*
X16406Y1422D01*
X16404Y1440D01*
X16404Y1459D01*
X16526Y1473D01*
Y1472D01*
Y1471D01*
X16526Y1468D01*
Y1464D01*
X16527Y1459D01*
X16527Y1454D01*
X16527Y1448D01*
X16528Y1442D01*
X16530Y1429D01*
X16533Y1416D01*
X16535Y1410D01*
X16537Y1404D01*
X16539Y1399D01*
X16541Y1395D01*
X16542Y1394D01*
X16542Y1393D01*
X16544Y1391D01*
X16545Y1389D01*
X16548Y1387D01*
X16550Y1384D01*
X16553Y1381D01*
X16558Y1378D01*
X16562Y1374D01*
X16566Y1371D01*
X16571Y1368D01*
X16577Y1366D01*
X16583Y1364D01*
X16590Y1362D01*
X16597Y1361D01*
X16605Y1360D01*
X16609D01*
X16612Y1361D01*
X16616Y1361D01*
X16620Y1362D01*
X16629Y1364D01*
X16639Y1366D01*
X16649Y1371D01*
X16654Y1373D01*
X16658Y1377D01*
X16662Y1381D01*
X16666Y1385D01*
Y1385D01*
X16667Y1386D01*
X16668Y1388D01*
X16669Y1390D01*
X16670Y1393D01*
X16672Y1397D01*
X16674Y1402D01*
X16675Y1407D01*
X16677Y1413D01*
X16679Y1421D01*
X16680Y1429D01*
X16681Y1439D01*
X16682Y1449D01*
X16683Y1460D01*
X16684Y1473D01*
Y1487D01*
Y1901D01*
X16813D01*
Y1495D01*
D02*
G37*
G36*
X22148Y1369D02*
X22469D01*
Y1261D01*
X22019D01*
Y1895D01*
X22148D01*
Y1369D01*
D02*
G37*
G36*
X20460D02*
X20781D01*
Y1261D01*
X20331D01*
Y1895D01*
X20460D01*
Y1369D01*
D02*
G37*
G36*
X18771D02*
X19093D01*
Y1261D01*
X18642D01*
Y1895D01*
X18771D01*
Y1369D01*
D02*
G37*
G36*
X17083D02*
X17404D01*
Y1261D01*
X16954D01*
Y1895D01*
X17083D01*
Y1369D01*
D02*
G37*
G36*
X3222Y33341D02*
X3228D01*
X3236Y33340D01*
X3244Y33338D01*
X3254Y33337D01*
X3264Y33335D01*
X3276Y33332D01*
X3287Y33329D01*
X3299Y33325D01*
X3311Y33320D01*
X3323Y33315D01*
X3335Y33308D01*
X3347Y33301D01*
X3358Y33292D01*
X3358Y33291D01*
X3361Y33290D01*
X3363Y33287D01*
X3367Y33283D01*
X3372Y33278D01*
X3377Y33271D01*
X3383Y33264D01*
X3389Y33256D01*
X3395Y33247D01*
X3401Y33236D01*
X3407Y33224D01*
X3413Y33212D01*
X3419Y33198D01*
X3424Y33183D01*
X3428Y33167D01*
X3431Y33151D01*
X3289Y33135D01*
Y33136D01*
Y33137D01*
X3289Y33139D01*
X3288Y33142D01*
X3287Y33146D01*
X3286Y33150D01*
X3284Y33160D01*
X3280Y33170D01*
X3275Y33181D01*
X3269Y33191D01*
X3261Y33199D01*
X3260Y33201D01*
X3258Y33203D01*
X3253Y33206D01*
X3247Y33210D01*
X3238Y33214D01*
X3228Y33217D01*
X3217Y33219D01*
X3204Y33220D01*
X3200D01*
X3197Y33220D01*
X3193Y33219D01*
X3188Y33218D01*
X3183Y33217D01*
X3177Y33216D01*
X3171Y33213D01*
X3165Y33210D01*
X3158Y33207D01*
X3152Y33203D01*
X3145Y33198D01*
X3139Y33192D01*
X3132Y33186D01*
X3126Y33178D01*
X3125Y33178D01*
X3125Y33176D01*
X3123Y33174D01*
X3121Y33170D01*
X3118Y33165D01*
X3115Y33158D01*
X3112Y33151D01*
X3109Y33141D01*
X3105Y33130D01*
X3102Y33118D01*
X3099Y33104D01*
X3095Y33088D01*
X3092Y33070D01*
X3089Y33050D01*
X3087Y33028D01*
X3085Y33005D01*
X3086Y33005D01*
X3088Y33007D01*
X3091Y33011D01*
X3095Y33015D01*
X3100Y33019D01*
X3107Y33025D01*
X3115Y33031D01*
X3123Y33037D01*
X3132Y33043D01*
X3143Y33049D01*
X3154Y33055D01*
X3166Y33060D01*
X3179Y33064D01*
X3192Y33067D01*
X3207Y33069D01*
X3222Y33070D01*
X3225D01*
X3230Y33069D01*
X3237Y33069D01*
X3245Y33068D01*
X3254Y33066D01*
X3265Y33064D01*
X3276Y33061D01*
X3288Y33057D01*
X3301Y33053D01*
X3314Y33047D01*
X3327Y33040D01*
X3341Y33032D01*
X3354Y33023D01*
X3367Y33012D01*
X3379Y33000D01*
X3380Y32999D01*
X3382Y32996D01*
X3385Y32992D01*
X3390Y32987D01*
X3395Y32980D01*
X3400Y32971D01*
X3406Y32962D01*
X3413Y32951D01*
X3419Y32938D01*
X3424Y32924D01*
X3430Y32909D01*
X3435Y32894D01*
X3439Y32876D01*
X3443Y32858D01*
X3445Y32839D01*
X3445Y32818D01*
Y32818D01*
Y32817D01*
Y32816D01*
Y32814D01*
Y32811D01*
X3445Y32807D01*
X3444Y32799D01*
X3443Y32789D01*
X3441Y32778D01*
X3440Y32765D01*
X3436Y32751D01*
X3433Y32736D01*
X3429Y32720D01*
X3423Y32705D01*
X3416Y32689D01*
X3408Y32673D01*
X3399Y32658D01*
X3388Y32644D01*
X3376Y32630D01*
X3376Y32629D01*
X3373Y32627D01*
X3369Y32623D01*
X3363Y32619D01*
X3357Y32613D01*
X3348Y32608D01*
X3339Y32601D01*
X3328Y32594D01*
X3316Y32588D01*
X3302Y32582D01*
X3288Y32575D01*
X3272Y32570D01*
X3255Y32565D01*
X3238Y32562D01*
X3219Y32559D01*
X3199Y32559D01*
X3194D01*
X3191Y32559D01*
X3188D01*
X3180Y32560D01*
X3170Y32562D01*
X3158Y32564D01*
X3145Y32567D01*
X3131Y32570D01*
X3116Y32575D01*
X3101Y32581D01*
X3085Y32588D01*
X3069Y32596D01*
X3053Y32607D01*
X3038Y32619D01*
X3022Y32633D01*
X3008Y32648D01*
X3007Y32650D01*
X3005Y32653D01*
X3003Y32655D01*
X3001Y32658D01*
X2999Y32662D01*
X2996Y32666D01*
X2993Y32671D01*
X2991Y32676D01*
X2987Y32682D01*
X2985Y32688D01*
X2981Y32695D01*
X2978Y32702D01*
X2974Y32711D01*
X2971Y32719D01*
X2967Y32729D01*
X2964Y32739D01*
X2960Y32749D01*
X2957Y32760D01*
X2954Y32772D01*
X2951Y32785D01*
X2948Y32797D01*
X2945Y32811D01*
X2943Y32826D01*
X2940Y32841D01*
X2939Y32856D01*
X2937Y32873D01*
X2935Y32889D01*
X2935Y32907D01*
X2934Y32925D01*
Y32944D01*
Y32945D01*
Y32946D01*
Y32950D01*
Y32954D01*
X2934Y32959D01*
Y32964D01*
Y32971D01*
X2935Y32979D01*
X2935Y32987D01*
X2936Y32996D01*
X2937Y33006D01*
X2938Y33016D01*
X2940Y33038D01*
X2944Y33061D01*
X2947Y33085D01*
X2952Y33111D01*
X2959Y33136D01*
X2966Y33161D01*
X2975Y33185D01*
X2986Y33208D01*
X2991Y33219D01*
X2997Y33229D01*
X3004Y33239D01*
X3011Y33248D01*
X3012Y33249D01*
X3015Y33251D01*
X3019Y33256D01*
X3026Y33262D01*
X3033Y33269D01*
X3043Y33278D01*
X3053Y33286D01*
X3066Y33295D01*
X3080Y33303D01*
X3095Y33312D01*
X3111Y33320D01*
X3130Y33327D01*
X3149Y33332D01*
X3170Y33337D01*
X3191Y33340D01*
X3214Y33341D01*
X3218D01*
X3222Y33341D01*
D02*
G37*
G36*
X6042Y32854D02*
X6137D01*
Y32726D01*
X6042D01*
Y32572D01*
X5900D01*
Y32726D01*
X5587D01*
Y32854D01*
X5919Y33341D01*
X6042D01*
Y32854D01*
D02*
G37*
G36*
X5280Y33341D02*
X5288Y33340D01*
X5297Y33340D01*
X5309Y33338D01*
X5321Y33336D01*
X5334Y33333D01*
X5348Y33330D01*
X5363Y33326D01*
X5378Y33321D01*
X5392Y33315D01*
X5407Y33308D01*
X5422Y33300D01*
X5435Y33291D01*
X5448Y33280D01*
X5448Y33279D01*
X5450Y33277D01*
X5454Y33274D01*
X5457Y33269D01*
X5462Y33263D01*
X5468Y33256D01*
X5474Y33247D01*
X5480Y33238D01*
X5486Y33227D01*
X5492Y33216D01*
X5498Y33203D01*
X5503Y33190D01*
X5507Y33176D01*
X5510Y33160D01*
X5512Y33144D01*
X5513Y33127D01*
Y33127D01*
Y33125D01*
Y33122D01*
Y33119D01*
X5512Y33114D01*
X5512Y33109D01*
X5511Y33103D01*
X5511Y33096D01*
X5508Y33081D01*
X5505Y33064D01*
X5500Y33047D01*
X5494Y33029D01*
Y33028D01*
X5493Y33027D01*
X5492Y33024D01*
X5491Y33021D01*
X5489Y33017D01*
X5486Y33012D01*
X5483Y33006D01*
X5480Y33000D01*
X5476Y32992D01*
X5471Y32985D01*
X5461Y32968D01*
X5449Y32950D01*
X5435Y32931D01*
X5435Y32931D01*
X5434Y32930D01*
X5433Y32928D01*
X5430Y32925D01*
X5427Y32921D01*
X5423Y32917D01*
X5419Y32912D01*
X5413Y32907D01*
X5407Y32900D01*
X5400Y32893D01*
X5392Y32884D01*
X5383Y32876D01*
X5374Y32866D01*
X5363Y32856D01*
X5352Y32845D01*
X5339Y32833D01*
X5338Y32833D01*
X5336Y32831D01*
X5332Y32827D01*
X5328Y32823D01*
X5322Y32818D01*
X5316Y32812D01*
X5309Y32806D01*
X5302Y32799D01*
X5287Y32785D01*
X5272Y32771D01*
X5265Y32764D01*
X5260Y32759D01*
X5254Y32753D01*
X5250Y32749D01*
X5250Y32748D01*
X5248Y32745D01*
X5244Y32741D01*
X5240Y32736D01*
X5235Y32730D01*
X5230Y32723D01*
X5225Y32715D01*
X5221Y32708D01*
X5513D01*
Y32572D01*
X4998D01*
Y32573D01*
X4998Y32575D01*
X4999Y32580D01*
X5000Y32585D01*
X5001Y32592D01*
X5003Y32600D01*
X5005Y32609D01*
X5007Y32619D01*
X5010Y32630D01*
X5014Y32642D01*
X5018Y32653D01*
X5022Y32666D01*
X5028Y32679D01*
X5034Y32692D01*
X5041Y32705D01*
X5048Y32718D01*
X5048Y32719D01*
X5050Y32722D01*
X5053Y32725D01*
X5056Y32731D01*
X5061Y32738D01*
X5068Y32746D01*
X5075Y32756D01*
X5084Y32767D01*
X5095Y32780D01*
X5106Y32794D01*
X5120Y32809D01*
X5135Y32825D01*
X5152Y32843D01*
X5171Y32861D01*
X5191Y32881D01*
X5213Y32902D01*
X5214Y32903D01*
X5214Y32903D01*
X5218Y32906D01*
X5223Y32911D01*
X5229Y32917D01*
X5237Y32925D01*
X5246Y32933D01*
X5255Y32943D01*
X5266Y32952D01*
X5286Y32974D01*
X5297Y32984D01*
X5306Y32994D01*
X5316Y33003D01*
X5324Y33012D01*
X5330Y33021D01*
X5335Y33027D01*
X5336Y33028D01*
X5336Y33029D01*
X5338Y33032D01*
X5340Y33035D01*
X5342Y33039D01*
X5345Y33044D01*
X5347Y33049D01*
X5351Y33055D01*
X5356Y33069D01*
X5361Y33084D01*
X5364Y33101D01*
X5365Y33109D01*
X5366Y33118D01*
Y33118D01*
Y33120D01*
Y33122D01*
X5365Y33126D01*
Y33130D01*
X5364Y33134D01*
X5362Y33145D01*
X5359Y33157D01*
X5355Y33170D01*
X5348Y33182D01*
X5343Y33188D01*
X5339Y33193D01*
X5338Y33193D01*
X5338Y33194D01*
X5336Y33195D01*
X5334Y33197D01*
X5331Y33199D01*
X5328Y33201D01*
X5324Y33204D01*
X5320Y33206D01*
X5310Y33211D01*
X5297Y33216D01*
X5283Y33218D01*
X5274Y33219D01*
X5266Y33219D01*
X5261D01*
X5258Y33219D01*
X5254D01*
X5250Y33218D01*
X5239Y33216D01*
X5228Y33213D01*
X5215Y33208D01*
X5209Y33204D01*
X5203Y33201D01*
X5198Y33197D01*
X5192Y33192D01*
X5192Y33191D01*
X5191Y33191D01*
X5189Y33189D01*
X5188Y33186D01*
X5186Y33183D01*
X5183Y33180D01*
X5181Y33175D01*
X5178Y33170D01*
X5176Y33164D01*
X5173Y33157D01*
X5170Y33150D01*
X5168Y33141D01*
X5166Y33132D01*
X5163Y33122D01*
X5162Y33111D01*
X5161Y33100D01*
X5015Y33114D01*
Y33115D01*
Y33116D01*
X5016Y33118D01*
Y33120D01*
X5016Y33122D01*
X5017Y33126D01*
X5018Y33134D01*
X5020Y33144D01*
X5023Y33155D01*
X5026Y33168D01*
X5030Y33181D01*
X5035Y33196D01*
X5041Y33210D01*
X5047Y33224D01*
X5055Y33239D01*
X5063Y33253D01*
X5073Y33265D01*
X5084Y33278D01*
X5096Y33288D01*
X5097Y33289D01*
X5100Y33290D01*
X5104Y33293D01*
X5109Y33296D01*
X5116Y33300D01*
X5124Y33305D01*
X5134Y33310D01*
X5144Y33315D01*
X5156Y33320D01*
X5169Y33325D01*
X5183Y33329D01*
X5198Y33333D01*
X5215Y33336D01*
X5232Y33339D01*
X5250Y33341D01*
X5269Y33341D01*
X5274D01*
X5280Y33341D01*
D02*
G37*
G36*
X4090D02*
X4098Y33340D01*
X4107Y33340D01*
X4118Y33338D01*
X4130Y33336D01*
X4144Y33333D01*
X4157Y33330D01*
X4172Y33326D01*
X4187Y33321D01*
X4202Y33315D01*
X4217Y33308D01*
X4231Y33300D01*
X4244Y33291D01*
X4257Y33280D01*
X4258Y33279D01*
X4260Y33277D01*
X4263Y33274D01*
X4267Y33269D01*
X4272Y33263D01*
X4278Y33256D01*
X4284Y33247D01*
X4290Y33238D01*
X4296Y33227D01*
X4302Y33216D01*
X4307Y33203D01*
X4312Y33190D01*
X4316Y33176D01*
X4320Y33160D01*
X4322Y33144D01*
X4322Y33127D01*
Y33127D01*
Y33125D01*
Y33122D01*
Y33119D01*
X4322Y33114D01*
X4321Y33109D01*
X4321Y33103D01*
X4320Y33096D01*
X4318Y33081D01*
X4315Y33064D01*
X4310Y33047D01*
X4304Y33029D01*
Y33028D01*
X4302Y33027D01*
X4301Y33024D01*
X4300Y33021D01*
X4298Y33017D01*
X4295Y33012D01*
X4292Y33006D01*
X4289Y33000D01*
X4285Y32992D01*
X4281Y32985D01*
X4271Y32968D01*
X4259Y32950D01*
X4245Y32931D01*
X4244Y32931D01*
X4244Y32930D01*
X4242Y32928D01*
X4240Y32925D01*
X4237Y32921D01*
X4233Y32917D01*
X4228Y32912D01*
X4223Y32907D01*
X4217Y32900D01*
X4209Y32893D01*
X4202Y32884D01*
X4193Y32876D01*
X4183Y32866D01*
X4173Y32856D01*
X4161Y32845D01*
X4149Y32833D01*
X4148Y32833D01*
X4146Y32831D01*
X4142Y32827D01*
X4137Y32823D01*
X4132Y32818D01*
X4125Y32812D01*
X4119Y32806D01*
X4111Y32799D01*
X4096Y32785D01*
X4082Y32771D01*
X4075Y32764D01*
X4069Y32759D01*
X4064Y32753D01*
X4060Y32749D01*
X4059Y32748D01*
X4057Y32745D01*
X4053Y32741D01*
X4049Y32736D01*
X4044Y32730D01*
X4039Y32723D01*
X4034Y32715D01*
X4030Y32708D01*
X4322D01*
Y32572D01*
X3807D01*
Y32573D01*
X3808Y32575D01*
X3809Y32580D01*
X3810Y32585D01*
X3811Y32592D01*
X3812Y32600D01*
X3814Y32609D01*
X3817Y32619D01*
X3820Y32630D01*
X3823Y32642D01*
X3827Y32653D01*
X3832Y32666D01*
X3837Y32679D01*
X3843Y32692D01*
X3850Y32705D01*
X3857Y32718D01*
X3858Y32719D01*
X3859Y32722D01*
X3862Y32725D01*
X3866Y32731D01*
X3871Y32738D01*
X3877Y32746D01*
X3885Y32756D01*
X3894Y32767D01*
X3904Y32780D01*
X3916Y32794D01*
X3930Y32809D01*
X3945Y32825D01*
X3962Y32843D01*
X3980Y32861D01*
X4001Y32881D01*
X4023Y32902D01*
X4023Y32903D01*
X4024Y32903D01*
X4027Y32906D01*
X4032Y32911D01*
X4039Y32917D01*
X4047Y32925D01*
X4055Y32933D01*
X4065Y32943D01*
X4075Y32952D01*
X4096Y32974D01*
X4106Y32984D01*
X4116Y32994D01*
X4125Y33003D01*
X4133Y33012D01*
X4140Y33021D01*
X4145Y33027D01*
X4145Y33028D01*
X4146Y33029D01*
X4147Y33032D01*
X4150Y33035D01*
X4152Y33039D01*
X4154Y33044D01*
X4157Y33049D01*
X4160Y33055D01*
X4166Y33069D01*
X4170Y33084D01*
X4174Y33101D01*
X4175Y33109D01*
X4175Y33118D01*
Y33118D01*
Y33120D01*
Y33122D01*
X4175Y33126D01*
Y33130D01*
X4174Y33134D01*
X4172Y33145D01*
X4168Y33157D01*
X4164Y33170D01*
X4157Y33182D01*
X4153Y33188D01*
X4149Y33193D01*
X4148Y33193D01*
X4147Y33194D01*
X4146Y33195D01*
X4144Y33197D01*
X4141Y33199D01*
X4137Y33201D01*
X4134Y33204D01*
X4130Y33206D01*
X4119Y33211D01*
X4106Y33216D01*
X4092Y33218D01*
X4084Y33219D01*
X4075Y33219D01*
X4071D01*
X4068Y33219D01*
X4064D01*
X4059Y33218D01*
X4049Y33216D01*
X4037Y33213D01*
X4024Y33208D01*
X4019Y33204D01*
X4013Y33201D01*
X4007Y33197D01*
X4002Y33192D01*
X4001Y33191D01*
X4001Y33191D01*
X3999Y33189D01*
X3997Y33186D01*
X3995Y33183D01*
X3993Y33180D01*
X3991Y33175D01*
X3988Y33170D01*
X3985Y33164D01*
X3982Y33157D01*
X3980Y33150D01*
X3977Y33141D01*
X3975Y33132D01*
X3973Y33122D01*
X3972Y33111D01*
X3971Y33100D01*
X3825Y33114D01*
Y33115D01*
Y33116D01*
X3825Y33118D01*
Y33120D01*
X3826Y33122D01*
X3826Y33126D01*
X3828Y33134D01*
X3830Y33144D01*
X3832Y33155D01*
X3836Y33168D01*
X3840Y33181D01*
X3845Y33196D01*
X3850Y33210D01*
X3857Y33224D01*
X3864Y33239D01*
X3873Y33253D01*
X3883Y33265D01*
X3894Y33278D01*
X3906Y33288D01*
X3907Y33289D01*
X3909Y33290D01*
X3913Y33293D01*
X3918Y33296D01*
X3925Y33300D01*
X3933Y33305D01*
X3943Y33310D01*
X3954Y33315D01*
X3965Y33320D01*
X3979Y33325D01*
X3993Y33329D01*
X4008Y33333D01*
X4024Y33336D01*
X4042Y33339D01*
X4060Y33341D01*
X4079Y33341D01*
X4084D01*
X4090Y33341D01*
D02*
G37*
G36*
X3707Y32572D02*
X3560D01*
Y32719D01*
X3707D01*
Y32572D01*
D02*
G37*
G36*
X2219D02*
X2073D01*
Y32719D01*
X2219D01*
Y32572D01*
D02*
G37*
G36*
X1948Y33222D02*
X1947Y33221D01*
X1945Y33219D01*
X1942Y33215D01*
X1938Y33210D01*
X1931Y33204D01*
X1925Y33196D01*
X1917Y33187D01*
X1909Y33177D01*
X1899Y33165D01*
X1889Y33152D01*
X1879Y33137D01*
X1868Y33121D01*
X1857Y33104D01*
X1845Y33086D01*
X1833Y33067D01*
X1821Y33046D01*
Y33045D01*
X1821Y33044D01*
X1820Y33043D01*
X1818Y33041D01*
X1817Y33038D01*
X1815Y33034D01*
X1813Y33030D01*
X1811Y33026D01*
X1805Y33015D01*
X1799Y33002D01*
X1792Y32988D01*
X1785Y32972D01*
X1777Y32955D01*
X1769Y32936D01*
X1761Y32915D01*
X1753Y32894D01*
X1745Y32872D01*
X1737Y32849D01*
X1730Y32826D01*
X1723Y32802D01*
Y32801D01*
X1723Y32800D01*
Y32799D01*
X1722Y32796D01*
X1721Y32793D01*
X1720Y32789D01*
X1719Y32785D01*
X1718Y32780D01*
X1715Y32769D01*
X1713Y32756D01*
X1710Y32741D01*
X1707Y32725D01*
X1704Y32708D01*
X1701Y32689D01*
X1698Y32670D01*
X1696Y32651D01*
X1693Y32631D01*
X1692Y32611D01*
X1691Y32591D01*
X1691Y32572D01*
X1549D01*
Y32573D01*
Y32574D01*
Y32576D01*
X1549Y32579D01*
Y32583D01*
Y32588D01*
X1550Y32593D01*
X1550Y32600D01*
X1551Y32606D01*
X1552Y32614D01*
X1552Y32622D01*
X1553Y32631D01*
X1554Y32641D01*
X1555Y32651D01*
X1558Y32672D01*
X1562Y32696D01*
X1566Y32721D01*
X1571Y32748D01*
X1578Y32776D01*
X1585Y32805D01*
X1594Y32835D01*
X1603Y32865D01*
X1614Y32896D01*
Y32897D01*
X1615Y32898D01*
X1616Y32900D01*
X1617Y32903D01*
X1619Y32908D01*
X1621Y32912D01*
X1623Y32918D01*
X1625Y32924D01*
X1629Y32931D01*
X1632Y32939D01*
X1635Y32946D01*
X1639Y32955D01*
X1648Y32974D01*
X1658Y32995D01*
X1670Y33017D01*
X1682Y33041D01*
X1696Y33065D01*
X1710Y33091D01*
X1726Y33116D01*
X1743Y33142D01*
X1761Y33167D01*
X1780Y33192D01*
X1446D01*
Y33328D01*
X1948D01*
Y33222D01*
D02*
G37*
G36*
X4680Y33341D02*
X4688Y33340D01*
X4697Y33339D01*
X4708Y33337D01*
X4720Y33335D01*
X4733Y33331D01*
X4747Y33327D01*
X4761Y33322D01*
X4775Y33315D01*
X4790Y33307D01*
X4804Y33299D01*
X4818Y33288D01*
X4831Y33275D01*
X4843Y33261D01*
X4845Y33260D01*
X4845Y33259D01*
X4847Y33257D01*
X4848Y33254D01*
X4851Y33251D01*
X4853Y33248D01*
X4855Y33243D01*
X4858Y33239D01*
X4861Y33233D01*
X4864Y33227D01*
X4867Y33220D01*
X4871Y33213D01*
X4874Y33205D01*
X4878Y33197D01*
X4881Y33187D01*
X4884Y33177D01*
X4888Y33167D01*
X4892Y33156D01*
X4895Y33144D01*
X4898Y33131D01*
X4901Y33119D01*
X4904Y33105D01*
X4907Y33090D01*
X4909Y33075D01*
X4912Y33059D01*
X4914Y33043D01*
X4915Y33026D01*
X4917Y33008D01*
X4918Y32989D01*
X4919Y32970D01*
Y32950D01*
Y32949D01*
Y32948D01*
Y32944D01*
Y32940D01*
Y32935D01*
X4918Y32929D01*
Y32922D01*
X4918Y32914D01*
X4917Y32905D01*
X4917Y32897D01*
X4916Y32887D01*
X4915Y32876D01*
X4913Y32853D01*
X4909Y32829D01*
X4905Y32804D01*
X4900Y32778D01*
X4894Y32751D01*
X4887Y32726D01*
X4878Y32701D01*
X4868Y32678D01*
X4863Y32667D01*
X4857Y32656D01*
X4850Y32646D01*
X4843Y32637D01*
X4843Y32636D01*
X4841Y32634D01*
X4837Y32630D01*
X4832Y32625D01*
X4826Y32619D01*
X4818Y32612D01*
X4809Y32605D01*
X4798Y32598D01*
X4786Y32590D01*
X4774Y32584D01*
X4759Y32577D01*
X4744Y32571D01*
X4727Y32566D01*
X4709Y32562D01*
X4690Y32560D01*
X4670Y32559D01*
X4665D01*
X4659Y32559D01*
X4651Y32560D01*
X4641Y32562D01*
X4631Y32563D01*
X4618Y32566D01*
X4605Y32569D01*
X4591Y32574D01*
X4577Y32580D01*
X4562Y32586D01*
X4546Y32595D01*
X4531Y32605D01*
X4517Y32616D01*
X4502Y32630D01*
X4489Y32645D01*
X4488Y32646D01*
X4486Y32648D01*
X4485Y32651D01*
X4483Y32654D01*
X4481Y32657D01*
X4479Y32661D01*
X4476Y32666D01*
X4474Y32671D01*
X4470Y32677D01*
X4467Y32683D01*
X4465Y32691D01*
X4461Y32698D01*
X4458Y32706D01*
X4455Y32715D01*
X4452Y32724D01*
X4449Y32735D01*
X4445Y32745D01*
X4443Y32757D01*
X4440Y32769D01*
X4437Y32782D01*
X4434Y32796D01*
X4431Y32810D01*
X4429Y32825D01*
X4427Y32841D01*
X4425Y32857D01*
X4424Y32874D01*
X4423Y32892D01*
X4421Y32911D01*
X4421Y32930D01*
Y32951D01*
Y32951D01*
Y32953D01*
Y32956D01*
Y32960D01*
X4421Y32965D01*
Y32971D01*
Y32979D01*
X4422Y32986D01*
X4423Y32995D01*
X4423Y33004D01*
X4424Y33014D01*
X4425Y33024D01*
X4427Y33047D01*
X4430Y33071D01*
X4434Y33096D01*
X4439Y33122D01*
X4445Y33148D01*
X4452Y33174D01*
X4461Y33198D01*
X4471Y33222D01*
X4477Y33233D01*
X4482Y33243D01*
X4489Y33253D01*
X4496Y33263D01*
X4496Y33264D01*
X4498Y33266D01*
X4502Y33270D01*
X4507Y33275D01*
X4513Y33281D01*
X4521Y33287D01*
X4531Y33295D01*
X4541Y33302D01*
X4553Y33309D01*
X4565Y33316D01*
X4580Y33323D01*
X4595Y33329D01*
X4612Y33334D01*
X4630Y33338D01*
X4649Y33340D01*
X4670Y33341D01*
X4675D01*
X4680Y33341D01*
D02*
G37*
G36*
X2597D02*
X2605Y33340D01*
X2614Y33339D01*
X2625Y33337D01*
X2637Y33335D01*
X2650Y33331D01*
X2663Y33327D01*
X2678Y33322D01*
X2692Y33315D01*
X2707Y33307D01*
X2721Y33299D01*
X2735Y33288D01*
X2748Y33275D01*
X2760Y33261D01*
X2761Y33260D01*
X2762Y33259D01*
X2764Y33257D01*
X2765Y33254D01*
X2768Y33251D01*
X2770Y33248D01*
X2772Y33243D01*
X2775Y33239D01*
X2778Y33233D01*
X2781Y33227D01*
X2784Y33220D01*
X2787Y33213D01*
X2791Y33205D01*
X2795Y33197D01*
X2798Y33187D01*
X2801Y33177D01*
X2805Y33167D01*
X2809Y33156D01*
X2812Y33144D01*
X2815Y33131D01*
X2818Y33119D01*
X2821Y33105D01*
X2824Y33090D01*
X2826Y33075D01*
X2828Y33059D01*
X2831Y33043D01*
X2832Y33026D01*
X2834Y33008D01*
X2835Y32989D01*
X2836Y32970D01*
Y32950D01*
Y32949D01*
Y32948D01*
Y32944D01*
Y32940D01*
Y32935D01*
X2835Y32929D01*
Y32922D01*
X2835Y32914D01*
X2834Y32905D01*
X2833Y32897D01*
X2833Y32887D01*
X2832Y32876D01*
X2830Y32853D01*
X2826Y32829D01*
X2822Y32804D01*
X2817Y32778D01*
X2811Y32751D01*
X2804Y32726D01*
X2795Y32701D01*
X2785Y32678D01*
X2780Y32667D01*
X2774Y32656D01*
X2767Y32646D01*
X2760Y32637D01*
X2760Y32636D01*
X2758Y32634D01*
X2754Y32630D01*
X2749Y32625D01*
X2743Y32619D01*
X2735Y32612D01*
X2725Y32605D01*
X2715Y32598D01*
X2703Y32590D01*
X2691Y32584D01*
X2676Y32577D01*
X2661Y32571D01*
X2644Y32566D01*
X2626Y32562D01*
X2607Y32560D01*
X2586Y32559D01*
X2581D01*
X2576Y32559D01*
X2568Y32560D01*
X2558Y32562D01*
X2548Y32563D01*
X2535Y32566D01*
X2522Y32569D01*
X2508Y32574D01*
X2493Y32580D01*
X2478Y32586D01*
X2463Y32595D01*
X2448Y32605D01*
X2434Y32616D01*
X2419Y32630D01*
X2406Y32645D01*
X2405Y32646D01*
X2403Y32648D01*
X2402Y32651D01*
X2400Y32654D01*
X2398Y32657D01*
X2395Y32661D01*
X2393Y32666D01*
X2390Y32671D01*
X2387Y32677D01*
X2384Y32683D01*
X2382Y32691D01*
X2378Y32698D01*
X2375Y32706D01*
X2372Y32715D01*
X2369Y32724D01*
X2366Y32735D01*
X2362Y32745D01*
X2359Y32757D01*
X2357Y32769D01*
X2354Y32782D01*
X2351Y32796D01*
X2348Y32810D01*
X2346Y32825D01*
X2344Y32841D01*
X2342Y32857D01*
X2341Y32874D01*
X2340Y32892D01*
X2338Y32911D01*
X2338Y32930D01*
Y32951D01*
Y32951D01*
Y32953D01*
Y32956D01*
Y32960D01*
X2338Y32965D01*
Y32971D01*
Y32979D01*
X2339Y32986D01*
X2340Y32995D01*
X2340Y33004D01*
X2341Y33014D01*
X2342Y33024D01*
X2344Y33047D01*
X2347Y33071D01*
X2351Y33096D01*
X2356Y33122D01*
X2362Y33148D01*
X2369Y33174D01*
X2378Y33198D01*
X2388Y33222D01*
X2394Y33233D01*
X2399Y33243D01*
X2406Y33253D01*
X2413Y33263D01*
X2413Y33264D01*
X2415Y33266D01*
X2419Y33270D01*
X2424Y33275D01*
X2430Y33281D01*
X2438Y33287D01*
X2447Y33295D01*
X2458Y33302D01*
X2470Y33309D01*
X2482Y33316D01*
X2497Y33323D01*
X2512Y33329D01*
X2529Y33334D01*
X2547Y33338D01*
X2566Y33340D01*
X2586Y33341D01*
X2591D01*
X2597Y33341D01*
D02*
G37*
G36*
X1109D02*
X1117Y33340D01*
X1126Y33339D01*
X1137Y33337D01*
X1149Y33335D01*
X1162Y33331D01*
X1176Y33327D01*
X1190Y33322D01*
X1204Y33315D01*
X1219Y33307D01*
X1233Y33299D01*
X1247Y33288D01*
X1260Y33275D01*
X1272Y33261D01*
X1274Y33260D01*
X1274Y33259D01*
X1276Y33257D01*
X1277Y33254D01*
X1280Y33251D01*
X1282Y33248D01*
X1284Y33243D01*
X1287Y33239D01*
X1290Y33233D01*
X1293Y33227D01*
X1296Y33220D01*
X1300Y33213D01*
X1303Y33205D01*
X1307Y33197D01*
X1310Y33187D01*
X1313Y33177D01*
X1317Y33167D01*
X1321Y33156D01*
X1324Y33144D01*
X1327Y33131D01*
X1330Y33119D01*
X1333Y33105D01*
X1336Y33090D01*
X1338Y33075D01*
X1341Y33059D01*
X1343Y33043D01*
X1344Y33026D01*
X1346Y33008D01*
X1347Y32989D01*
X1348Y32970D01*
Y32950D01*
Y32949D01*
Y32948D01*
Y32944D01*
Y32940D01*
Y32935D01*
X1347Y32929D01*
Y32922D01*
X1347Y32914D01*
X1346Y32905D01*
X1346Y32897D01*
X1345Y32887D01*
X1344Y32876D01*
X1342Y32853D01*
X1338Y32829D01*
X1335Y32804D01*
X1330Y32778D01*
X1323Y32751D01*
X1316Y32726D01*
X1307Y32701D01*
X1297Y32678D01*
X1292Y32667D01*
X1286Y32656D01*
X1279Y32646D01*
X1272Y32637D01*
X1272Y32636D01*
X1270Y32634D01*
X1266Y32630D01*
X1261Y32625D01*
X1255Y32619D01*
X1247Y32612D01*
X1238Y32605D01*
X1227Y32598D01*
X1215Y32590D01*
X1203Y32584D01*
X1188Y32577D01*
X1173Y32571D01*
X1156Y32566D01*
X1138Y32562D01*
X1119Y32560D01*
X1099Y32559D01*
X1094D01*
X1088Y32559D01*
X1080Y32560D01*
X1070Y32562D01*
X1060Y32563D01*
X1047Y32566D01*
X1034Y32569D01*
X1020Y32574D01*
X1006Y32580D01*
X991Y32586D01*
X975Y32595D01*
X960Y32605D01*
X946Y32616D01*
X931Y32630D01*
X918Y32645D01*
X918Y32646D01*
X915Y32648D01*
X914Y32651D01*
X912Y32654D01*
X910Y32657D01*
X908Y32661D01*
X905Y32666D01*
X903Y32671D01*
X899Y32677D01*
X897Y32683D01*
X894Y32691D01*
X890Y32698D01*
X887Y32706D01*
X884Y32715D01*
X881Y32724D01*
X878Y32735D01*
X874Y32745D01*
X872Y32757D01*
X869Y32769D01*
X866Y32782D01*
X863Y32796D01*
X861Y32810D01*
X858Y32825D01*
X856Y32841D01*
X854Y32857D01*
X853Y32874D01*
X852Y32892D01*
X851Y32911D01*
X850Y32930D01*
Y32951D01*
Y32951D01*
Y32953D01*
Y32956D01*
Y32960D01*
X851Y32965D01*
Y32971D01*
Y32979D01*
X851Y32986D01*
X852Y32995D01*
X852Y33004D01*
X853Y33014D01*
X854Y33024D01*
X856Y33047D01*
X859Y33071D01*
X863Y33096D01*
X868Y33122D01*
X874Y33148D01*
X882Y33174D01*
X890Y33198D01*
X900Y33222D01*
X906Y33233D01*
X911Y33243D01*
X918Y33253D01*
X925Y33263D01*
X925Y33264D01*
X928Y33266D01*
X931Y33270D01*
X936Y33275D01*
X942Y33281D01*
X950Y33287D01*
X960Y33295D01*
X970Y33302D01*
X982Y33309D01*
X995Y33316D01*
X1009Y33323D01*
X1024Y33329D01*
X1041Y33334D01*
X1059Y33338D01*
X1078Y33340D01*
X1099Y33341D01*
X1104D01*
X1109Y33341D01*
D02*
G37*
G36*
X4679Y34204D02*
X4532D01*
Y34340D01*
X4679D01*
Y34204D01*
D02*
G37*
G36*
X3727Y34140D02*
X3731Y34140D01*
X3736Y34139D01*
X3742Y34139D01*
X3749Y34137D01*
X3764Y34134D01*
X3780Y34129D01*
X3789Y34126D01*
X3797Y34122D01*
X3806Y34118D01*
X3815Y34113D01*
X3769Y33985D01*
X3769Y33985D01*
X3768Y33986D01*
X3765Y33987D01*
X3763Y33988D01*
X3760Y33990D01*
X3756Y33992D01*
X3747Y33997D01*
X3736Y34001D01*
X3724Y34005D01*
X3712Y34008D01*
X3706Y34009D01*
X3695D01*
X3689Y34008D01*
X3682Y34007D01*
X3673Y34005D01*
X3665Y34002D01*
X3656Y33997D01*
X3647Y33992D01*
X3646Y33991D01*
X3644Y33988D01*
X3640Y33984D01*
X3635Y33978D01*
X3630Y33969D01*
X3627Y33964D01*
X3625Y33959D01*
X3622Y33952D01*
X3619Y33946D01*
X3616Y33938D01*
X3614Y33930D01*
Y33930D01*
X3614Y33928D01*
X3613Y33925D01*
X3613Y33921D01*
X3611Y33916D01*
X3610Y33909D01*
X3609Y33900D01*
X3608Y33890D01*
X3607Y33879D01*
X3606Y33866D01*
X3605Y33850D01*
X3604Y33833D01*
X3603Y33814D01*
X3603Y33793D01*
X3602Y33770D01*
Y33758D01*
Y33744D01*
Y33573D01*
X3455D01*
Y34129D01*
X3591D01*
Y34049D01*
X3592Y34050D01*
X3593Y34052D01*
X3595Y34055D01*
X3598Y34058D01*
X3600Y34063D01*
X3604Y34068D01*
X3613Y34080D01*
X3622Y34092D01*
X3632Y34104D01*
X3638Y34110D01*
X3644Y34115D01*
X3649Y34119D01*
X3654Y34123D01*
X3655D01*
X3655Y34124D01*
X3657Y34125D01*
X3659Y34126D01*
X3665Y34129D01*
X3673Y34132D01*
X3682Y34135D01*
X3693Y34138D01*
X3705Y34140D01*
X3718Y34141D01*
X3723D01*
X3727Y34140D01*
D02*
G37*
G36*
X5050D02*
X5059Y34140D01*
X5070Y34139D01*
X5082Y34137D01*
X5095Y34136D01*
X5109Y34134D01*
X5122Y34131D01*
X5137Y34129D01*
X5151Y34125D01*
X5165Y34121D01*
X5177Y34115D01*
X5189Y34110D01*
X5201Y34103D01*
X5201Y34103D01*
X5203Y34101D01*
X5206Y34099D01*
X5209Y34096D01*
X5214Y34092D01*
X5219Y34088D01*
X5225Y34082D01*
X5231Y34075D01*
X5237Y34068D01*
X5244Y34060D01*
X5250Y34051D01*
X5256Y34041D01*
X5262Y34031D01*
X5268Y34019D01*
X5273Y34007D01*
X5277Y33993D01*
X5139Y33968D01*
Y33969D01*
X5138Y33970D01*
X5137Y33971D01*
X5137Y33974D01*
X5134Y33979D01*
X5131Y33986D01*
X5126Y33994D01*
X5120Y34002D01*
X5113Y34010D01*
X5104Y34017D01*
X5103Y34018D01*
X5101Y34019D01*
X5100Y34020D01*
X5097Y34021D01*
X5094Y34023D01*
X5087Y34026D01*
X5077Y34029D01*
X5064Y34032D01*
X5050Y34034D01*
X5034Y34035D01*
X5024D01*
X5020Y34034D01*
X5014Y34034D01*
X5008D01*
X5002Y34033D01*
X4988Y34031D01*
X4974Y34028D01*
X4961Y34024D01*
X4956Y34021D01*
X4951Y34018D01*
X4950Y34018D01*
X4948Y34016D01*
X4946Y34014D01*
X4943Y34011D01*
X4940Y34006D01*
X4937Y34001D01*
X4935Y33995D01*
X4934Y33988D01*
Y33988D01*
Y33986D01*
X4935Y33983D01*
X4936Y33980D01*
X4938Y33975D01*
X4940Y33971D01*
X4944Y33966D01*
X4949Y33962D01*
X4950Y33961D01*
X4951Y33960D01*
X4954Y33959D01*
X4957Y33958D01*
X4961Y33956D01*
X4966Y33954D01*
X4973Y33951D01*
X4981Y33949D01*
X4991Y33946D01*
X5002Y33942D01*
X5015Y33939D01*
X5029Y33935D01*
X5046Y33930D01*
X5064Y33926D01*
X5075Y33923D01*
X5085Y33921D01*
X5086D01*
X5087Y33920D01*
X5088D01*
X5090Y33920D01*
X5096Y33918D01*
X5104Y33916D01*
X5114Y33914D01*
X5125Y33910D01*
X5137Y33907D01*
X5150Y33903D01*
X5177Y33893D01*
X5191Y33888D01*
X5204Y33882D01*
X5217Y33876D01*
X5229Y33869D01*
X5240Y33863D01*
X5249Y33856D01*
X5250Y33855D01*
X5252Y33854D01*
X5254Y33852D01*
X5256Y33848D01*
X5260Y33845D01*
X5264Y33840D01*
X5268Y33834D01*
X5273Y33827D01*
X5277Y33820D01*
X5281Y33812D01*
X5285Y33803D01*
X5289Y33793D01*
X5291Y33783D01*
X5294Y33771D01*
X5295Y33759D01*
X5296Y33747D01*
Y33745D01*
Y33743D01*
X5295Y33739D01*
X5295Y33734D01*
X5294Y33727D01*
X5293Y33719D01*
X5290Y33711D01*
X5288Y33702D01*
X5284Y33692D01*
X5280Y33681D01*
X5275Y33670D01*
X5269Y33659D01*
X5261Y33648D01*
X5253Y33637D01*
X5243Y33626D01*
X5232Y33615D01*
X5231Y33615D01*
X5229Y33613D01*
X5225Y33610D01*
X5220Y33607D01*
X5213Y33603D01*
X5205Y33598D01*
X5195Y33593D01*
X5184Y33588D01*
X5172Y33583D01*
X5157Y33578D01*
X5142Y33573D01*
X5125Y33569D01*
X5107Y33565D01*
X5087Y33563D01*
X5066Y33561D01*
X5043Y33560D01*
X5038D01*
X5032Y33561D01*
X5024D01*
X5015Y33562D01*
X5004Y33563D01*
X4992Y33564D01*
X4979Y33566D01*
X4964Y33569D01*
X4950Y33572D01*
X4935Y33575D01*
X4919Y33580D01*
X4905Y33585D01*
X4890Y33591D01*
X4876Y33598D01*
X4863Y33606D01*
X4863Y33607D01*
X4861Y33609D01*
X4857Y33611D01*
X4853Y33615D01*
X4847Y33620D01*
X4841Y33625D01*
X4835Y33632D01*
X4828Y33639D01*
X4821Y33648D01*
X4814Y33657D01*
X4806Y33667D01*
X4799Y33678D01*
X4793Y33691D01*
X4787Y33703D01*
X4782Y33717D01*
X4778Y33732D01*
X4925Y33754D01*
Y33754D01*
X4925Y33753D01*
X4926Y33750D01*
X4926Y33747D01*
X4928Y33744D01*
X4929Y33739D01*
X4933Y33730D01*
X4938Y33719D01*
X4944Y33708D01*
X4953Y33698D01*
X4962Y33689D01*
X4963D01*
X4964Y33688D01*
X4965Y33687D01*
X4968Y33686D01*
X4971Y33684D01*
X4974Y33682D01*
X4979Y33680D01*
X4984Y33678D01*
X4989Y33676D01*
X4995Y33674D01*
X5002Y33672D01*
X5009Y33670D01*
X5017Y33669D01*
X5025Y33668D01*
X5034Y33667D01*
X5049D01*
X5053Y33667D01*
X5058D01*
X5063Y33668D01*
X5069Y33668D01*
X5075Y33670D01*
X5089Y33672D01*
X5104Y33676D01*
X5117Y33681D01*
X5124Y33684D01*
X5129Y33687D01*
X5130Y33688D01*
X5132Y33690D01*
X5135Y33693D01*
X5139Y33698D01*
X5142Y33703D01*
X5146Y33710D01*
X5148Y33718D01*
X5149Y33727D01*
Y33727D01*
Y33729D01*
X5148Y33733D01*
X5147Y33737D01*
X5146Y33740D01*
X5144Y33745D01*
X5141Y33750D01*
X5138Y33754D01*
X5137Y33755D01*
X5136Y33756D01*
X5132Y33758D01*
X5127Y33761D01*
X5121Y33764D01*
X5113Y33767D01*
X5108Y33769D01*
X5102Y33770D01*
X5095Y33772D01*
X5089Y33774D01*
X5088D01*
X5087Y33774D01*
X5084Y33775D01*
X5081Y33775D01*
X5077Y33776D01*
X5072Y33778D01*
X5067Y33779D01*
X5060Y33780D01*
X5053Y33782D01*
X5046Y33784D01*
X5030Y33788D01*
X5012Y33792D01*
X4994Y33797D01*
X4975Y33802D01*
X4956Y33809D01*
X4937Y33814D01*
X4919Y33820D01*
X4902Y33827D01*
X4887Y33833D01*
X4880Y33836D01*
X4874Y33839D01*
X4868Y33842D01*
X4863Y33845D01*
X4863Y33846D01*
X4861Y33847D01*
X4857Y33849D01*
X4853Y33853D01*
X4848Y33858D01*
X4843Y33863D01*
X4837Y33870D01*
X4831Y33878D01*
X4825Y33886D01*
X4819Y33895D01*
X4813Y33905D01*
X4808Y33917D01*
X4804Y33929D01*
X4801Y33942D01*
X4799Y33956D01*
X4798Y33970D01*
Y33971D01*
Y33974D01*
X4799Y33977D01*
X4799Y33982D01*
X4800Y33988D01*
X4801Y33996D01*
X4803Y34003D01*
X4805Y34012D01*
X4808Y34022D01*
X4812Y34032D01*
X4816Y34042D01*
X4822Y34052D01*
X4828Y34062D01*
X4836Y34072D01*
X4845Y34082D01*
X4854Y34091D01*
X4855Y34092D01*
X4857Y34094D01*
X4861Y34096D01*
X4866Y34099D01*
X4872Y34103D01*
X4879Y34107D01*
X4888Y34111D01*
X4898Y34116D01*
X4910Y34121D01*
X4923Y34125D01*
X4937Y34129D01*
X4953Y34133D01*
X4970Y34136D01*
X4989Y34139D01*
X5010Y34140D01*
X5031Y34141D01*
X5042D01*
X5050Y34140D01*
D02*
G37*
G36*
X5678D02*
X5687Y34140D01*
X5697Y34139D01*
X5708Y34137D01*
X5719Y34135D01*
X5732Y34133D01*
X5745Y34130D01*
X5759Y34126D01*
X5772Y34122D01*
X5785Y34117D01*
X5799Y34111D01*
X5811Y34104D01*
X5822Y34096D01*
X5823Y34096D01*
X5825Y34094D01*
X5828Y34092D01*
X5832Y34088D01*
X5837Y34084D01*
X5843Y34078D01*
X5849Y34071D01*
X5856Y34063D01*
X5863Y34055D01*
X5870Y34045D01*
X5877Y34034D01*
X5884Y34022D01*
X5891Y34009D01*
X5898Y33995D01*
X5903Y33980D01*
X5909Y33964D01*
X5764Y33938D01*
Y33938D01*
X5764Y33939D01*
X5763Y33941D01*
X5763Y33945D01*
X5761Y33948D01*
X5760Y33952D01*
X5757Y33962D01*
X5753Y33972D01*
X5747Y33984D01*
X5739Y33993D01*
X5730Y34003D01*
X5730D01*
X5729Y34004D01*
X5728Y34005D01*
X5726Y34006D01*
X5720Y34010D01*
X5712Y34014D01*
X5703Y34018D01*
X5691Y34022D01*
X5678Y34024D01*
X5663Y34025D01*
X5658D01*
X5654Y34024D01*
X5650Y34024D01*
X5644Y34023D01*
X5638Y34022D01*
X5632Y34020D01*
X5625Y34018D01*
X5618Y34016D01*
X5610Y34013D01*
X5603Y34009D01*
X5596Y34005D01*
X5589Y34000D01*
X5582Y33993D01*
X5575Y33987D01*
X5575Y33986D01*
X5574Y33985D01*
X5573Y33983D01*
X5570Y33980D01*
X5568Y33975D01*
X5565Y33970D01*
X5562Y33964D01*
X5559Y33957D01*
X5556Y33949D01*
X5553Y33939D01*
X5551Y33929D01*
X5548Y33918D01*
X5546Y33905D01*
X5544Y33891D01*
X5543Y33876D01*
X5543Y33860D01*
Y33859D01*
Y33856D01*
Y33851D01*
X5543Y33844D01*
X5544Y33836D01*
X5544Y33827D01*
X5546Y33816D01*
X5547Y33806D01*
X5551Y33783D01*
X5554Y33771D01*
X5557Y33760D01*
X5561Y33749D01*
X5565Y33738D01*
X5570Y33729D01*
X5576Y33720D01*
X5577Y33720D01*
X5578Y33719D01*
X5579Y33717D01*
X5582Y33714D01*
X5585Y33711D01*
X5589Y33708D01*
X5594Y33704D01*
X5600Y33701D01*
X5606Y33697D01*
X5613Y33693D01*
X5620Y33689D01*
X5628Y33686D01*
X5636Y33684D01*
X5645Y33682D01*
X5655Y33681D01*
X5665Y33680D01*
X5669D01*
X5672Y33681D01*
X5676D01*
X5680Y33681D01*
X5690Y33683D01*
X5700Y33686D01*
X5712Y33690D01*
X5723Y33696D01*
X5728Y33699D01*
X5733Y33704D01*
X5734Y33704D01*
X5734Y33705D01*
X5736Y33707D01*
X5738Y33708D01*
X5740Y33711D01*
X5743Y33714D01*
X5745Y33718D01*
X5748Y33723D01*
X5752Y33728D01*
X5754Y33734D01*
X5758Y33741D01*
X5761Y33749D01*
X5764Y33756D01*
X5766Y33766D01*
X5769Y33775D01*
X5771Y33786D01*
X5916Y33761D01*
Y33760D01*
X5915Y33757D01*
X5913Y33752D01*
X5912Y33745D01*
X5909Y33737D01*
X5905Y33727D01*
X5902Y33717D01*
X5897Y33706D01*
X5891Y33693D01*
X5885Y33681D01*
X5878Y33668D01*
X5870Y33656D01*
X5861Y33644D01*
X5852Y33632D01*
X5841Y33621D01*
X5830Y33611D01*
X5829Y33610D01*
X5827Y33609D01*
X5823Y33606D01*
X5818Y33603D01*
X5811Y33599D01*
X5804Y33595D01*
X5795Y33590D01*
X5784Y33586D01*
X5773Y33581D01*
X5760Y33577D01*
X5746Y33572D01*
X5730Y33568D01*
X5714Y33565D01*
X5697Y33563D01*
X5678Y33561D01*
X5659Y33560D01*
X5653D01*
X5650Y33561D01*
X5647D01*
X5639Y33562D01*
X5628Y33563D01*
X5616Y33564D01*
X5603Y33567D01*
X5589Y33570D01*
X5573Y33574D01*
X5558Y33579D01*
X5541Y33585D01*
X5525Y33593D01*
X5509Y33601D01*
X5494Y33611D01*
X5479Y33624D01*
X5464Y33637D01*
X5464Y33638D01*
X5461Y33640D01*
X5457Y33645D01*
X5453Y33651D01*
X5448Y33659D01*
X5441Y33668D01*
X5435Y33680D01*
X5428Y33692D01*
X5422Y33707D01*
X5415Y33723D01*
X5409Y33740D01*
X5403Y33759D01*
X5399Y33780D01*
X5395Y33802D01*
X5393Y33825D01*
X5392Y33850D01*
Y33851D01*
Y33852D01*
Y33853D01*
Y33856D01*
X5393Y33859D01*
Y33863D01*
Y33868D01*
X5393Y33873D01*
X5394Y33884D01*
X5396Y33898D01*
X5398Y33912D01*
X5401Y33928D01*
X5405Y33945D01*
X5410Y33962D01*
X5416Y33980D01*
X5423Y33998D01*
X5431Y34016D01*
X5441Y34033D01*
X5452Y34049D01*
X5465Y34064D01*
X5466Y34065D01*
X5468Y34067D01*
X5472Y34071D01*
X5478Y34076D01*
X5485Y34082D01*
X5494Y34088D01*
X5505Y34095D01*
X5517Y34103D01*
X5530Y34109D01*
X5544Y34116D01*
X5561Y34123D01*
X5578Y34129D01*
X5597Y34134D01*
X5617Y34137D01*
X5639Y34140D01*
X5661Y34141D01*
X5671D01*
X5678Y34140D01*
D02*
G37*
G36*
X6166Y34057D02*
X6167Y34058D01*
X6170Y34061D01*
X6173Y34065D01*
X6179Y34070D01*
X6186Y34077D01*
X6194Y34084D01*
X6203Y34091D01*
X6214Y34099D01*
X6226Y34107D01*
X6239Y34114D01*
X6253Y34121D01*
X6268Y34127D01*
X6284Y34133D01*
X6300Y34137D01*
X6318Y34140D01*
X6336Y34141D01*
X6345D01*
X6349Y34140D01*
X6355Y34140D01*
X6360Y34139D01*
X6367Y34139D01*
X6381Y34136D01*
X6396Y34133D01*
X6412Y34128D01*
X6427Y34122D01*
X6428D01*
X6429Y34121D01*
X6431Y34120D01*
X6434Y34119D01*
X6437Y34117D01*
X6441Y34114D01*
X6450Y34109D01*
X6460Y34102D01*
X6470Y34094D01*
X6480Y34084D01*
X6489Y34074D01*
Y34073D01*
X6490Y34073D01*
X6491Y34071D01*
X6492Y34069D01*
X6494Y34066D01*
X6496Y34063D01*
X6500Y34054D01*
X6505Y34045D01*
X6510Y34034D01*
X6514Y34022D01*
X6517Y34008D01*
Y34008D01*
X6518Y34007D01*
Y34005D01*
X6518Y34002D01*
X6519Y33998D01*
X6520Y33993D01*
X6521Y33988D01*
X6521Y33981D01*
X6522Y33974D01*
X6523Y33966D01*
X6523Y33957D01*
X6524Y33948D01*
X6525Y33936D01*
Y33925D01*
X6525Y33912D01*
Y33899D01*
Y33573D01*
X6378D01*
Y33866D01*
Y33867D01*
Y33870D01*
Y33874D01*
Y33880D01*
Y33887D01*
X6378Y33895D01*
Y33904D01*
X6377Y33913D01*
X6376Y33931D01*
X6376Y33941D01*
X6374Y33950D01*
X6373Y33958D01*
X6372Y33965D01*
X6371Y33972D01*
X6369Y33977D01*
X6369Y33978D01*
X6368Y33981D01*
X6366Y33985D01*
X6363Y33990D01*
X6359Y33996D01*
X6353Y34002D01*
X6347Y34008D01*
X6340Y34014D01*
X6339Y34015D01*
X6336Y34016D01*
X6332Y34018D01*
X6326Y34021D01*
X6318Y34024D01*
X6309Y34026D01*
X6299Y34028D01*
X6287Y34028D01*
X6281D01*
X6278Y34028D01*
X6274Y34027D01*
X6265Y34026D01*
X6255Y34024D01*
X6244Y34021D01*
X6233Y34016D01*
X6222Y34010D01*
X6221D01*
X6221Y34010D01*
X6217Y34007D01*
X6212Y34002D01*
X6206Y33997D01*
X6199Y33989D01*
X6192Y33980D01*
X6185Y33969D01*
X6180Y33956D01*
Y33956D01*
X6179Y33955D01*
X6178Y33952D01*
X6177Y33950D01*
X6176Y33946D01*
X6175Y33941D01*
X6174Y33936D01*
X6173Y33930D01*
X6172Y33923D01*
X6171Y33915D01*
X6170Y33907D01*
X6168Y33897D01*
X6167Y33887D01*
X6167Y33876D01*
X6166Y33864D01*
Y33851D01*
Y33573D01*
X6020D01*
Y34340D01*
X6166D01*
Y34057D01*
D02*
G37*
G36*
X4679Y33573D02*
X4532D01*
Y34129D01*
X4679D01*
Y33573D01*
D02*
G37*
G36*
X3100Y34140D02*
X3108D01*
X3117Y34140D01*
X3128Y34139D01*
X3139Y34138D01*
X3151Y34137D01*
X3163Y34135D01*
X3187Y34131D01*
X3199Y34129D01*
X3211Y34125D01*
X3221Y34121D01*
X3230Y34118D01*
X3231D01*
X3233Y34116D01*
X3235Y34115D01*
X3238Y34113D01*
X3242Y34111D01*
X3247Y34108D01*
X3257Y34101D01*
X3268Y34093D01*
X3279Y34083D01*
X3290Y34071D01*
X3294Y34065D01*
X3298Y34058D01*
Y34058D01*
X3299Y34057D01*
X3300Y34054D01*
X3301Y34051D01*
X3302Y34047D01*
X3304Y34042D01*
X3306Y34036D01*
X3308Y34028D01*
X3310Y34020D01*
X3312Y34010D01*
X3313Y34000D01*
X3315Y33987D01*
X3316Y33974D01*
X3317Y33960D01*
X3318Y33944D01*
Y33926D01*
X3316Y33755D01*
Y33755D01*
Y33752D01*
Y33748D01*
Y33743D01*
Y33737D01*
X3316Y33730D01*
Y33723D01*
X3317Y33714D01*
X3317Y33697D01*
X3318Y33679D01*
X3319Y33670D01*
X3320Y33662D01*
X3321Y33655D01*
X3322Y33647D01*
Y33647D01*
X3323Y33646D01*
Y33644D01*
X3324Y33641D01*
X3325Y33638D01*
X3326Y33634D01*
X3328Y33625D01*
X3332Y33614D01*
X3337Y33601D01*
X3342Y33588D01*
X3349Y33573D01*
X3204D01*
Y33574D01*
X3203Y33576D01*
X3202Y33579D01*
X3200Y33584D01*
X3198Y33590D01*
X3195Y33598D01*
X3192Y33606D01*
X3189Y33616D01*
Y33617D01*
X3189Y33619D01*
X3188Y33621D01*
X3187Y33624D01*
X3186Y33629D01*
X3185Y33631D01*
X3184Y33634D01*
X3184Y33633D01*
X3183Y33632D01*
X3181Y33630D01*
X3178Y33627D01*
X3175Y33625D01*
X3170Y33621D01*
X3166Y33617D01*
X3160Y33613D01*
X3148Y33604D01*
X3135Y33595D01*
X3120Y33586D01*
X3104Y33579D01*
X3103D01*
X3102Y33578D01*
X3099Y33577D01*
X3096Y33576D01*
X3092Y33574D01*
X3088Y33573D01*
X3082Y33572D01*
X3077Y33570D01*
X3070Y33568D01*
X3063Y33566D01*
X3047Y33563D01*
X3030Y33561D01*
X3012Y33560D01*
X3008D01*
X3004Y33561D01*
X2998D01*
X2991Y33562D01*
X2982Y33563D01*
X2974Y33564D01*
X2963Y33567D01*
X2952Y33569D01*
X2941Y33572D01*
X2930Y33575D01*
X2919Y33580D01*
X2908Y33585D01*
X2897Y33591D01*
X2887Y33599D01*
X2877Y33607D01*
X2877Y33608D01*
X2875Y33609D01*
X2873Y33612D01*
X2869Y33615D01*
X2866Y33620D01*
X2862Y33625D01*
X2857Y33632D01*
X2853Y33639D01*
X2848Y33647D01*
X2843Y33656D01*
X2840Y33666D01*
X2836Y33676D01*
X2832Y33687D01*
X2830Y33699D01*
X2828Y33712D01*
X2828Y33724D01*
Y33725D01*
Y33727D01*
Y33729D01*
X2828Y33732D01*
Y33737D01*
X2829Y33741D01*
X2830Y33747D01*
X2831Y33753D01*
X2833Y33765D01*
X2837Y33780D01*
X2843Y33794D01*
X2850Y33808D01*
X2851Y33809D01*
X2851Y33810D01*
X2852Y33811D01*
X2854Y33814D01*
X2859Y33821D01*
X2867Y33829D01*
X2876Y33838D01*
X2886Y33847D01*
X2899Y33857D01*
X2913Y33864D01*
X2914D01*
X2915Y33866D01*
X2918Y33867D01*
X2921Y33868D01*
X2925Y33869D01*
X2930Y33872D01*
X2936Y33874D01*
X2943Y33876D01*
X2951Y33879D01*
X2960Y33882D01*
X2969Y33884D01*
X2980Y33887D01*
X2991Y33890D01*
X3003Y33893D01*
X3016Y33896D01*
X3030Y33899D01*
X3031D01*
X3034Y33900D01*
X3040Y33900D01*
X3047Y33902D01*
X3055Y33904D01*
X3065Y33906D01*
X3075Y33908D01*
X3086Y33910D01*
X3110Y33917D01*
X3134Y33923D01*
X3145Y33925D01*
X3155Y33929D01*
X3165Y33932D01*
X3173Y33935D01*
Y33950D01*
Y33950D01*
Y33951D01*
Y33954D01*
X3172Y33956D01*
Y33960D01*
X3172Y33964D01*
X3170Y33973D01*
X3168Y33983D01*
X3164Y33993D01*
X3159Y34002D01*
X3156Y34006D01*
X3152Y34010D01*
X3151Y34011D01*
X3150Y34012D01*
X3147Y34013D01*
X3145Y34015D01*
X3142Y34016D01*
X3139Y34017D01*
X3134Y34019D01*
X3129Y34021D01*
X3123Y34023D01*
X3117Y34024D01*
X3110Y34026D01*
X3101Y34027D01*
X3093Y34028D01*
X3083Y34028D01*
X3066D01*
X3063Y34028D01*
X3059D01*
X3050Y34027D01*
X3041Y34024D01*
X3030Y34022D01*
X3020Y34018D01*
X3011Y34013D01*
X3010Y34012D01*
X3008Y34010D01*
X3003Y34006D01*
X2999Y34000D01*
X2993Y33993D01*
X2987Y33984D01*
X2982Y33972D01*
X2976Y33959D01*
X2843Y33982D01*
X2843Y33984D01*
X2844Y33986D01*
X2845Y33990D01*
X2847Y33996D01*
X2849Y34002D01*
X2853Y34010D01*
X2857Y34018D01*
X2861Y34027D01*
X2866Y34037D01*
X2872Y34047D01*
X2878Y34057D01*
X2885Y34067D01*
X2892Y34076D01*
X2901Y34085D01*
X2910Y34094D01*
X2920Y34101D01*
X2920Y34102D01*
X2923Y34103D01*
X2926Y34105D01*
X2930Y34108D01*
X2936Y34110D01*
X2943Y34114D01*
X2951Y34118D01*
X2961Y34121D01*
X2972Y34125D01*
X2984Y34129D01*
X2998Y34132D01*
X3012Y34135D01*
X3028Y34137D01*
X3046Y34139D01*
X3064Y34140D01*
X3084Y34141D01*
X3093D01*
X3100Y34140D01*
D02*
G37*
G36*
X2433Y34339D02*
X2442D01*
X2452Y34338D01*
X2475Y34338D01*
X2497Y34336D01*
X2508Y34336D01*
X2518Y34335D01*
X2528Y34333D01*
X2537Y34332D01*
X2537D01*
X2539Y34331D01*
X2541Y34331D01*
X2544Y34330D01*
X2548Y34329D01*
X2553Y34328D01*
X2558Y34327D01*
X2564Y34325D01*
X2576Y34321D01*
X2589Y34315D01*
X2603Y34308D01*
X2617Y34300D01*
X2617D01*
X2619Y34299D01*
X2620Y34297D01*
X2623Y34295D01*
X2629Y34290D01*
X2637Y34283D01*
X2647Y34274D01*
X2657Y34263D01*
X2666Y34250D01*
X2676Y34236D01*
X2676Y34235D01*
X2677Y34234D01*
X2678Y34232D01*
X2679Y34229D01*
X2681Y34225D01*
X2683Y34221D01*
X2686Y34216D01*
X2688Y34210D01*
X2690Y34203D01*
X2692Y34197D01*
X2696Y34181D01*
X2698Y34165D01*
X2699Y34156D01*
Y34146D01*
Y34146D01*
Y34144D01*
Y34141D01*
X2699Y34137D01*
X2698Y34132D01*
X2698Y34127D01*
X2697Y34121D01*
X2696Y34114D01*
X2692Y34099D01*
X2687Y34082D01*
X2684Y34074D01*
X2680Y34065D01*
X2675Y34056D01*
X2670Y34048D01*
X2670Y34047D01*
X2669Y34046D01*
X2667Y34043D01*
X2665Y34041D01*
X2662Y34037D01*
X2658Y34032D01*
X2654Y34028D01*
X2650Y34022D01*
X2644Y34017D01*
X2639Y34012D01*
X2625Y34000D01*
X2610Y33990D01*
X2592Y33980D01*
X2593D01*
X2595Y33979D01*
X2599Y33978D01*
X2604Y33976D01*
X2609Y33974D01*
X2616Y33971D01*
X2624Y33968D01*
X2632Y33964D01*
X2640Y33960D01*
X2649Y33955D01*
X2658Y33949D01*
X2667Y33943D01*
X2676Y33936D01*
X2684Y33928D01*
X2692Y33920D01*
X2699Y33911D01*
X2700Y33910D01*
X2701Y33909D01*
X2703Y33906D01*
X2706Y33902D01*
X2708Y33898D01*
X2712Y33892D01*
X2715Y33885D01*
X2718Y33878D01*
X2722Y33870D01*
X2725Y33861D01*
X2728Y33852D01*
X2731Y33841D01*
X2734Y33831D01*
X2735Y33819D01*
X2737Y33807D01*
X2737Y33795D01*
Y33795D01*
Y33793D01*
Y33790D01*
X2737Y33786D01*
Y33781D01*
X2736Y33776D01*
X2735Y33770D01*
X2734Y33763D01*
X2733Y33755D01*
X2731Y33748D01*
X2727Y33730D01*
X2721Y33712D01*
X2717Y33703D01*
X2713Y33693D01*
Y33693D01*
X2712Y33691D01*
X2710Y33688D01*
X2708Y33685D01*
X2706Y33681D01*
X2703Y33676D01*
X2696Y33665D01*
X2686Y33652D01*
X2675Y33639D01*
X2661Y33626D01*
X2646Y33614D01*
X2646Y33614D01*
X2645Y33613D01*
X2642Y33611D01*
X2639Y33610D01*
X2635Y33607D01*
X2630Y33605D01*
X2624Y33601D01*
X2617Y33599D01*
X2610Y33595D01*
X2603Y33593D01*
X2594Y33589D01*
X2585Y33586D01*
X2575Y33584D01*
X2564Y33582D01*
X2542Y33578D01*
X2541D01*
X2538Y33578D01*
X2534D01*
X2529Y33577D01*
X2522Y33577D01*
X2514D01*
X2505Y33576D01*
X2493Y33575D01*
X2480Y33575D01*
X2465D01*
X2447Y33574D01*
X2438D01*
X2428Y33574D01*
X2406D01*
X2394Y33573D01*
X2095D01*
Y34340D01*
X2424D01*
X2433Y34339D01*
D02*
G37*
G36*
X1646Y33573D02*
X1499D01*
Y33720D01*
X1646D01*
Y33573D01*
D02*
G37*
G36*
X1004Y33703D02*
X1389D01*
Y33573D01*
X850D01*
Y34333D01*
X1004D01*
Y33703D01*
D02*
G37*
G36*
X4018Y34063D02*
X4019Y34064D01*
X4022Y34067D01*
X4025Y34070D01*
X4031Y34075D01*
X4037Y34082D01*
X4044Y34088D01*
X4054Y34095D01*
X4064Y34102D01*
X4075Y34109D01*
X4087Y34116D01*
X4100Y34123D01*
X4115Y34129D01*
X4130Y34134D01*
X4145Y34137D01*
X4162Y34140D01*
X4179Y34141D01*
X4183D01*
X4189Y34140D01*
X4196Y34140D01*
X4204Y34139D01*
X4215Y34137D01*
X4226Y34135D01*
X4238Y34131D01*
X4252Y34127D01*
X4265Y34123D01*
X4279Y34117D01*
X4293Y34110D01*
X4307Y34101D01*
X4321Y34091D01*
X4335Y34080D01*
X4347Y34067D01*
X4348Y34066D01*
X4350Y34064D01*
X4353Y34059D01*
X4358Y34053D01*
X4363Y34046D01*
X4368Y34037D01*
X4374Y34026D01*
X4381Y34013D01*
X4387Y33999D01*
X4393Y33984D01*
X4398Y33966D01*
X4403Y33947D01*
X4408Y33926D01*
X4411Y33905D01*
X4413Y33881D01*
X4414Y33856D01*
Y33856D01*
Y33854D01*
Y33853D01*
Y33850D01*
Y33847D01*
X4413Y33842D01*
Y33838D01*
X4413Y33833D01*
X4412Y33821D01*
X4410Y33807D01*
X4408Y33792D01*
X4405Y33775D01*
X4402Y33758D01*
X4397Y33740D01*
X4392Y33722D01*
X4385Y33704D01*
X4377Y33686D01*
X4368Y33668D01*
X4358Y33652D01*
X4346Y33637D01*
X4345Y33636D01*
X4342Y33634D01*
X4339Y33630D01*
X4333Y33625D01*
X4327Y33619D01*
X4319Y33613D01*
X4310Y33606D01*
X4300Y33599D01*
X4289Y33591D01*
X4276Y33585D01*
X4262Y33578D01*
X4248Y33573D01*
X4232Y33568D01*
X4216Y33564D01*
X4199Y33562D01*
X4181Y33560D01*
X4177D01*
X4173Y33561D01*
X4169D01*
X4163Y33562D01*
X4158Y33563D01*
X4152Y33563D01*
X4137Y33567D01*
X4121Y33570D01*
X4104Y33577D01*
X4096Y33580D01*
X4087Y33584D01*
X4086Y33585D01*
X4085Y33585D01*
X4083Y33587D01*
X4079Y33589D01*
X4075Y33591D01*
X4071Y33594D01*
X4065Y33598D01*
X4060Y33602D01*
X4048Y33612D01*
X4034Y33624D01*
X4021Y33638D01*
X4008Y33655D01*
Y33573D01*
X3872D01*
Y34340D01*
X4018D01*
Y34063D01*
D02*
G37*
G36*
X1218Y35346D02*
X1222D01*
X1227Y35345D01*
X1232D01*
X1244Y35343D01*
X1257Y35342D01*
X1272Y35339D01*
X1289Y35336D01*
X1307Y35331D01*
X1326Y35326D01*
X1344Y35319D01*
X1364Y35311D01*
X1383Y35301D01*
X1401Y35290D01*
X1419Y35278D01*
X1436Y35263D01*
X1437Y35262D01*
X1439Y35260D01*
X1441Y35258D01*
X1445Y35254D01*
X1449Y35249D01*
X1454Y35242D01*
X1460Y35235D01*
X1466Y35227D01*
X1472Y35217D01*
X1478Y35207D01*
X1485Y35195D01*
X1492Y35183D01*
X1498Y35169D01*
X1504Y35155D01*
X1510Y35139D01*
X1515Y35122D01*
X1362Y35085D01*
Y35086D01*
X1361Y35088D01*
X1360Y35091D01*
X1359Y35095D01*
X1357Y35100D01*
X1355Y35106D01*
X1352Y35113D01*
X1349Y35119D01*
X1342Y35134D01*
X1337Y35142D01*
X1332Y35150D01*
X1326Y35157D01*
X1320Y35165D01*
X1312Y35172D01*
X1305Y35179D01*
X1304Y35180D01*
X1303Y35181D01*
X1300Y35182D01*
X1297Y35185D01*
X1293Y35187D01*
X1288Y35190D01*
X1282Y35193D01*
X1276Y35197D01*
X1268Y35199D01*
X1260Y35203D01*
X1251Y35206D01*
X1243Y35208D01*
X1233Y35211D01*
X1222Y35212D01*
X1212Y35213D01*
X1200Y35214D01*
X1196D01*
X1192Y35213D01*
X1186Y35213D01*
X1179Y35212D01*
X1171Y35211D01*
X1161Y35209D01*
X1151Y35206D01*
X1140Y35203D01*
X1129Y35199D01*
X1117Y35194D01*
X1106Y35188D01*
X1095Y35181D01*
X1083Y35173D01*
X1073Y35163D01*
X1062Y35152D01*
X1062Y35152D01*
X1060Y35150D01*
X1057Y35146D01*
X1054Y35141D01*
X1050Y35134D01*
X1045Y35126D01*
X1040Y35116D01*
X1036Y35105D01*
X1031Y35092D01*
X1026Y35077D01*
X1022Y35061D01*
X1018Y35043D01*
X1014Y35023D01*
X1012Y35002D01*
X1010Y34979D01*
X1009Y34954D01*
Y34954D01*
Y34952D01*
Y34950D01*
Y34948D01*
Y34944D01*
X1010Y34940D01*
Y34936D01*
X1011Y34930D01*
X1011Y34919D01*
X1012Y34905D01*
X1014Y34890D01*
X1016Y34874D01*
X1019Y34857D01*
X1022Y34840D01*
X1027Y34823D01*
X1032Y34806D01*
X1037Y34790D01*
X1044Y34774D01*
X1052Y34760D01*
X1062Y34748D01*
X1062Y34747D01*
X1064Y34745D01*
X1067Y34742D01*
X1071Y34738D01*
X1076Y34733D01*
X1083Y34728D01*
X1090Y34723D01*
X1098Y34717D01*
X1107Y34711D01*
X1117Y34706D01*
X1129Y34701D01*
X1141Y34696D01*
X1153Y34692D01*
X1167Y34689D01*
X1182Y34687D01*
X1197Y34686D01*
X1203D01*
X1208Y34687D01*
X1213Y34687D01*
X1219Y34688D01*
X1226Y34689D01*
X1234Y34691D01*
X1241Y34693D01*
X1250Y34696D01*
X1259Y34699D01*
X1268Y34703D01*
X1277Y34707D01*
X1286Y34712D01*
X1295Y34718D01*
X1303Y34725D01*
X1303Y34725D01*
X1305Y34727D01*
X1307Y34729D01*
X1310Y34733D01*
X1314Y34737D01*
X1318Y34742D01*
X1323Y34748D01*
X1328Y34755D01*
X1333Y34763D01*
X1338Y34773D01*
X1344Y34783D01*
X1349Y34794D01*
X1354Y34806D01*
X1359Y34819D01*
X1363Y34833D01*
X1367Y34849D01*
X1517Y34801D01*
Y34801D01*
X1517Y34800D01*
X1516Y34798D01*
X1516Y34796D01*
X1514Y34793D01*
X1513Y34789D01*
X1511Y34781D01*
X1507Y34770D01*
X1502Y34758D01*
X1496Y34745D01*
X1490Y34731D01*
X1482Y34716D01*
X1474Y34701D01*
X1465Y34685D01*
X1454Y34670D01*
X1442Y34655D01*
X1430Y34640D01*
X1416Y34627D01*
X1402Y34615D01*
X1401Y34614D01*
X1398Y34612D01*
X1394Y34609D01*
X1388Y34605D01*
X1380Y34601D01*
X1370Y34595D01*
X1359Y34590D01*
X1347Y34584D01*
X1333Y34579D01*
X1317Y34573D01*
X1301Y34568D01*
X1282Y34563D01*
X1264Y34559D01*
X1243Y34557D01*
X1222Y34554D01*
X1199Y34554D01*
X1192D01*
X1188Y34554D01*
X1184D01*
X1179Y34555D01*
X1173Y34555D01*
X1167Y34556D01*
X1161Y34557D01*
X1145Y34559D01*
X1129Y34563D01*
X1110Y34567D01*
X1091Y34572D01*
X1070Y34579D01*
X1050Y34588D01*
X1028Y34598D01*
X1008Y34610D01*
X987Y34624D01*
X977Y34631D01*
X967Y34640D01*
X957Y34648D01*
X948Y34658D01*
Y34658D01*
X947Y34659D01*
X946Y34661D01*
X944Y34663D01*
X941Y34666D01*
X939Y34669D01*
X936Y34673D01*
X933Y34677D01*
X929Y34682D01*
X925Y34688D01*
X921Y34694D01*
X917Y34701D01*
X908Y34715D01*
X899Y34733D01*
X890Y34752D01*
X881Y34773D01*
X873Y34797D01*
X865Y34822D01*
X859Y34849D01*
X854Y34879D01*
X851Y34910D01*
X851Y34926D01*
X850Y34943D01*
Y34944D01*
Y34945D01*
Y34948D01*
Y34951D01*
X851Y34956D01*
Y34961D01*
X851Y34967D01*
X852Y34975D01*
X852Y34982D01*
X853Y34991D01*
X854Y35000D01*
X855Y35009D01*
X858Y35029D01*
X862Y35052D01*
X868Y35075D01*
X874Y35100D01*
X882Y35124D01*
X892Y35149D01*
X903Y35173D01*
X916Y35197D01*
X931Y35219D01*
X940Y35230D01*
X949Y35240D01*
X949Y35240D01*
X950Y35241D01*
X951Y35243D01*
X953Y35244D01*
X959Y35250D01*
X966Y35256D01*
X976Y35265D01*
X988Y35274D01*
X1002Y35283D01*
X1018Y35293D01*
X1035Y35303D01*
X1055Y35312D01*
X1076Y35322D01*
X1100Y35330D01*
X1125Y35336D01*
X1151Y35342D01*
X1179Y35345D01*
X1193Y35346D01*
X1208Y35346D01*
X1214D01*
X1218Y35346D01*
D02*
G37*
G36*
X6077Y35134D02*
X6081Y35134D01*
X6086Y35133D01*
X6092Y35132D01*
X6099Y35131D01*
X6114Y35128D01*
X6130Y35123D01*
X6139Y35120D01*
X6147Y35116D01*
X6156Y35111D01*
X6165Y35106D01*
X6119Y34979D01*
X6119Y34979D01*
X6118Y34980D01*
X6115Y34981D01*
X6113Y34982D01*
X6110Y34984D01*
X6106Y34986D01*
X6096Y34991D01*
X6086Y34995D01*
X6074Y34999D01*
X6062Y35002D01*
X6056Y35003D01*
X6045D01*
X6039Y35002D01*
X6032Y35001D01*
X6023Y34998D01*
X6015Y34996D01*
X6006Y34991D01*
X5997Y34986D01*
X5996Y34985D01*
X5994Y34982D01*
X5990Y34978D01*
X5985Y34972D01*
X5980Y34963D01*
X5977Y34958D01*
X5975Y34952D01*
X5972Y34946D01*
X5969Y34940D01*
X5966Y34932D01*
X5964Y34924D01*
Y34924D01*
X5964Y34922D01*
X5963Y34919D01*
X5963Y34915D01*
X5961Y34910D01*
X5960Y34903D01*
X5959Y34894D01*
X5958Y34884D01*
X5957Y34873D01*
X5956Y34859D01*
X5955Y34844D01*
X5954Y34827D01*
X5953Y34808D01*
X5953Y34787D01*
X5952Y34764D01*
Y34751D01*
Y34738D01*
Y34567D01*
X5805D01*
Y35122D01*
X5941D01*
Y35043D01*
X5942Y35044D01*
X5943Y35046D01*
X5945Y35049D01*
X5948Y35052D01*
X5950Y35057D01*
X5954Y35062D01*
X5963Y35074D01*
X5972Y35086D01*
X5982Y35098D01*
X5988Y35104D01*
X5994Y35109D01*
X5999Y35113D01*
X6004Y35117D01*
X6005D01*
X6005Y35118D01*
X6007Y35119D01*
X6009Y35120D01*
X6015Y35122D01*
X6023Y35126D01*
X6032Y35129D01*
X6043Y35132D01*
X6055Y35134D01*
X6068Y35135D01*
X6073D01*
X6077Y35134D01*
D02*
G37*
G36*
X2984D02*
X2988Y35134D01*
X2993Y35133D01*
X3000Y35132D01*
X3006Y35131D01*
X3021Y35128D01*
X3038Y35123D01*
X3046Y35120D01*
X3055Y35116D01*
X3064Y35111D01*
X3073Y35106D01*
X3027Y34979D01*
X3026Y34979D01*
X3025Y34980D01*
X3023Y34981D01*
X3021Y34982D01*
X3017Y34984D01*
X3013Y34986D01*
X3004Y34991D01*
X2993Y34995D01*
X2982Y34999D01*
X2970Y35002D01*
X2964Y35003D01*
X2952D01*
X2946Y35002D01*
X2939Y35001D01*
X2931Y34998D01*
X2922Y34996D01*
X2913Y34991D01*
X2905Y34986D01*
X2904Y34985D01*
X2902Y34982D01*
X2898Y34978D01*
X2893Y34972D01*
X2888Y34963D01*
X2885Y34958D01*
X2882Y34952D01*
X2879Y34946D01*
X2877Y34940D01*
X2874Y34932D01*
X2872Y34924D01*
Y34924D01*
X2871Y34922D01*
X2871Y34919D01*
X2870Y34915D01*
X2869Y34910D01*
X2868Y34903D01*
X2867Y34894D01*
X2866Y34884D01*
X2864Y34873D01*
X2863Y34859D01*
X2862Y34844D01*
X2861Y34827D01*
X2861Y34808D01*
X2860Y34787D01*
X2859Y34764D01*
Y34751D01*
Y34738D01*
Y34567D01*
X2713D01*
Y35122D01*
X2849D01*
Y35043D01*
X2849Y35044D01*
X2851Y35046D01*
X2852Y35049D01*
X2855Y35052D01*
X2858Y35057D01*
X2862Y35062D01*
X2870Y35074D01*
X2879Y35086D01*
X2890Y35098D01*
X2895Y35104D01*
X2901Y35109D01*
X2907Y35113D01*
X2911Y35117D01*
X2912D01*
X2913Y35118D01*
X2914Y35119D01*
X2916Y35120D01*
X2923Y35122D01*
X2930Y35126D01*
X2940Y35129D01*
X2950Y35132D01*
X2962Y35134D01*
X2975Y35135D01*
X2980D01*
X2984Y35134D01*
D02*
G37*
G36*
X2568D02*
X2572Y35134D01*
X2577Y35133D01*
X2583Y35132D01*
X2590Y35131D01*
X2605Y35128D01*
X2621Y35123D01*
X2630Y35120D01*
X2639Y35116D01*
X2647Y35111D01*
X2656Y35106D01*
X2610Y34979D01*
X2610Y34979D01*
X2609Y34980D01*
X2606Y34981D01*
X2604Y34982D01*
X2601Y34984D01*
X2597Y34986D01*
X2588Y34991D01*
X2577Y34995D01*
X2565Y34999D01*
X2553Y35002D01*
X2547Y35003D01*
X2536D01*
X2530Y35002D01*
X2523Y35001D01*
X2514Y34998D01*
X2506Y34996D01*
X2497Y34991D01*
X2488Y34986D01*
X2487Y34985D01*
X2485Y34982D01*
X2481Y34978D01*
X2476Y34972D01*
X2471Y34963D01*
X2469Y34958D01*
X2466Y34952D01*
X2463Y34946D01*
X2460Y34940D01*
X2457Y34932D01*
X2455Y34924D01*
Y34924D01*
X2455Y34922D01*
X2454Y34919D01*
X2454Y34915D01*
X2452Y34910D01*
X2451Y34903D01*
X2450Y34894D01*
X2449Y34884D01*
X2448Y34873D01*
X2447Y34859D01*
X2446Y34844D01*
X2445Y34827D01*
X2444Y34808D01*
X2444Y34787D01*
X2443Y34764D01*
Y34751D01*
Y34738D01*
Y34567D01*
X2296D01*
Y35122D01*
X2433D01*
Y35043D01*
X2433Y35044D01*
X2434Y35046D01*
X2436Y35049D01*
X2439Y35052D01*
X2441Y35057D01*
X2445Y35062D01*
X2454Y35074D01*
X2463Y35086D01*
X2474Y35098D01*
X2479Y35104D01*
X2485Y35109D01*
X2490Y35113D01*
X2495Y35117D01*
X2496D01*
X2496Y35118D01*
X2498Y35119D01*
X2500Y35120D01*
X2506Y35122D01*
X2514Y35126D01*
X2523Y35129D01*
X2534Y35132D01*
X2546Y35134D01*
X2559Y35135D01*
X2564D01*
X2568Y35134D01*
D02*
G37*
G36*
X4062D02*
X4067Y35134D01*
X4072Y35133D01*
X4078Y35132D01*
X4092Y35130D01*
X4107Y35127D01*
X4122Y35123D01*
X4137Y35117D01*
X4138D01*
X4139Y35116D01*
X4141Y35115D01*
X4144Y35114D01*
X4147Y35112D01*
X4151Y35110D01*
X4160Y35105D01*
X4170Y35098D01*
X4180Y35090D01*
X4190Y35082D01*
X4198Y35072D01*
Y35072D01*
X4199Y35071D01*
X4201Y35069D01*
X4202Y35067D01*
X4206Y35062D01*
X4210Y35054D01*
X4215Y35045D01*
X4219Y35035D01*
X4224Y35023D01*
X4228Y35011D01*
Y35010D01*
X4228Y35009D01*
Y35007D01*
X4229Y35005D01*
X4230Y35001D01*
X4230Y34996D01*
X4231Y34991D01*
X4232Y34985D01*
X4233Y34979D01*
X4233Y34971D01*
X4234Y34963D01*
X4235Y34954D01*
X4235Y34945D01*
Y34934D01*
X4236Y34923D01*
Y34912D01*
Y34567D01*
X4089D01*
Y34850D01*
Y34851D01*
Y34854D01*
Y34858D01*
Y34864D01*
X4089Y34872D01*
Y34880D01*
Y34889D01*
X4088Y34898D01*
X4087Y34918D01*
X4086Y34928D01*
X4085Y34937D01*
X4084Y34946D01*
X4083Y34954D01*
X4081Y34961D01*
X4079Y34966D01*
Y34967D01*
X4079Y34967D01*
X4078Y34971D01*
X4075Y34976D01*
X4072Y34981D01*
X4068Y34988D01*
X4063Y34995D01*
X4056Y35001D01*
X4049Y35007D01*
X4048Y35008D01*
X4045Y35010D01*
X4041Y35012D01*
X4034Y35015D01*
X4027Y35017D01*
X4018Y35020D01*
X4008Y35022D01*
X3998Y35022D01*
X3994D01*
X3991Y35022D01*
X3988D01*
X3984Y35021D01*
X3975Y35019D01*
X3964Y35017D01*
X3952Y35013D01*
X3940Y35008D01*
X3929Y35001D01*
X3928D01*
X3928Y35000D01*
X3926Y34999D01*
X3924Y34997D01*
X3919Y34993D01*
X3912Y34986D01*
X3905Y34979D01*
X3898Y34969D01*
X3892Y34957D01*
X3887Y34945D01*
Y34945D01*
X3887Y34944D01*
X3886Y34941D01*
X3885Y34939D01*
X3884Y34935D01*
X3884Y34930D01*
X3883Y34924D01*
X3882Y34917D01*
X3881Y34908D01*
X3879Y34899D01*
X3879Y34889D01*
X3878Y34877D01*
X3877Y34864D01*
X3877Y34850D01*
X3876Y34835D01*
Y34818D01*
Y34567D01*
X3729D01*
Y35122D01*
X3866D01*
Y35041D01*
X3867Y35042D01*
X3869Y35044D01*
X3873Y35049D01*
X3879Y35055D01*
X3886Y35062D01*
X3894Y35070D01*
X3904Y35079D01*
X3916Y35088D01*
X3928Y35096D01*
X3942Y35105D01*
X3957Y35113D01*
X3974Y35120D01*
X3991Y35126D01*
X4009Y35131D01*
X4028Y35134D01*
X4049Y35135D01*
X4057D01*
X4062Y35134D01*
D02*
G37*
G36*
X5013Y34771D02*
X4725D01*
Y34918D01*
X5013D01*
Y34771D01*
D02*
G37*
G36*
X2151Y34567D02*
X2014D01*
Y34650D01*
X2014Y34650D01*
X2013Y34648D01*
X2011Y34646D01*
X2009Y34643D01*
X2006Y34639D01*
X2002Y34635D01*
X1998Y34630D01*
X1993Y34625D01*
X1987Y34619D01*
X1981Y34613D01*
X1968Y34601D01*
X1952Y34590D01*
X1934Y34580D01*
X1934D01*
X1932Y34579D01*
X1929Y34578D01*
X1926Y34576D01*
X1921Y34574D01*
X1916Y34572D01*
X1910Y34569D01*
X1903Y34567D01*
X1895Y34565D01*
X1887Y34563D01*
X1869Y34558D01*
X1851Y34555D01*
X1840Y34555D01*
X1830Y34554D01*
X1825D01*
X1821Y34555D01*
X1816D01*
X1810Y34555D01*
X1804Y34557D01*
X1796Y34558D01*
X1781Y34560D01*
X1764Y34565D01*
X1746Y34571D01*
X1738Y34574D01*
X1729Y34579D01*
X1729Y34579D01*
X1728Y34580D01*
X1725Y34582D01*
X1722Y34583D01*
X1718Y34586D01*
X1714Y34589D01*
X1705Y34596D01*
X1694Y34606D01*
X1683Y34618D01*
X1673Y34632D01*
X1669Y34639D01*
X1665Y34647D01*
Y34648D01*
X1665Y34650D01*
X1663Y34652D01*
X1662Y34656D01*
X1661Y34660D01*
X1659Y34666D01*
X1657Y34672D01*
X1656Y34680D01*
X1653Y34688D01*
X1652Y34697D01*
X1650Y34707D01*
X1649Y34718D01*
X1647Y34730D01*
X1647Y34743D01*
X1646Y34756D01*
Y34771D01*
Y35122D01*
X1792D01*
Y34867D01*
Y34867D01*
Y34866D01*
Y34864D01*
Y34862D01*
Y34856D01*
Y34848D01*
Y34840D01*
X1793Y34829D01*
Y34817D01*
X1794Y34806D01*
X1794Y34781D01*
X1795Y34769D01*
X1796Y34758D01*
X1797Y34747D01*
X1797Y34738D01*
X1799Y34730D01*
X1800Y34724D01*
Y34723D01*
X1801Y34723D01*
X1802Y34719D01*
X1804Y34714D01*
X1807Y34709D01*
X1811Y34702D01*
X1816Y34695D01*
X1822Y34688D01*
X1830Y34682D01*
X1831Y34681D01*
X1833Y34680D01*
X1838Y34677D01*
X1844Y34675D01*
X1852Y34672D01*
X1862Y34669D01*
X1873Y34667D01*
X1884Y34667D01*
X1888D01*
X1891Y34667D01*
X1894D01*
X1898Y34668D01*
X1907Y34670D01*
X1918Y34672D01*
X1929Y34676D01*
X1940Y34681D01*
X1952Y34687D01*
X1952D01*
X1953Y34688D01*
X1955Y34689D01*
X1957Y34691D01*
X1962Y34696D01*
X1969Y34701D01*
X1975Y34709D01*
X1982Y34717D01*
X1988Y34727D01*
X1993Y34738D01*
Y34739D01*
X1993Y34740D01*
X1994Y34742D01*
X1995Y34745D01*
X1996Y34749D01*
X1996Y34754D01*
X1997Y34760D01*
X1998Y34769D01*
X2000Y34778D01*
X2001Y34788D01*
X2001Y34800D01*
X2002Y34815D01*
X2003Y34830D01*
X2003Y34847D01*
X2004Y34867D01*
Y34888D01*
Y35122D01*
X2151D01*
Y34567D01*
D02*
G37*
G36*
X5381Y35333D02*
X5394D01*
X5408Y35332D01*
X5423Y35332D01*
X5454Y35331D01*
X5469Y35330D01*
X5484Y35328D01*
X5498Y35327D01*
X5511Y35326D01*
X5522Y35324D01*
X5526Y35323D01*
X5531Y35322D01*
X5531D01*
X5533Y35321D01*
X5537Y35320D01*
X5542Y35319D01*
X5547Y35316D01*
X5554Y35314D01*
X5561Y35310D01*
X5569Y35306D01*
X5578Y35301D01*
X5587Y35296D01*
X5595Y35290D01*
X5605Y35283D01*
X5614Y35275D01*
X5624Y35266D01*
X5632Y35257D01*
X5641Y35247D01*
X5641Y35246D01*
X5643Y35244D01*
X5645Y35240D01*
X5648Y35236D01*
X5651Y35230D01*
X5655Y35223D01*
X5659Y35216D01*
X5663Y35206D01*
X5667Y35196D01*
X5671Y35185D01*
X5675Y35173D01*
X5678Y35160D01*
X5682Y35145D01*
X5684Y35130D01*
X5685Y35114D01*
X5686Y35098D01*
Y35097D01*
Y35094D01*
Y35091D01*
X5685Y35086D01*
Y35080D01*
X5685Y35073D01*
X5683Y35065D01*
X5682Y35056D01*
X5681Y35047D01*
X5680Y35037D01*
X5675Y35017D01*
X5668Y34997D01*
X5664Y34988D01*
X5660Y34979D01*
X5659Y34978D01*
X5659Y34976D01*
X5657Y34974D01*
X5655Y34971D01*
X5652Y34967D01*
X5650Y34962D01*
X5642Y34951D01*
X5632Y34939D01*
X5621Y34926D01*
X5609Y34914D01*
X5595Y34903D01*
X5594Y34903D01*
X5593Y34902D01*
X5591Y34900D01*
X5588Y34899D01*
X5584Y34897D01*
X5580Y34894D01*
X5575Y34891D01*
X5570Y34888D01*
X5558Y34882D01*
X5544Y34876D01*
X5530Y34871D01*
X5515Y34867D01*
X5514D01*
X5512Y34866D01*
X5509Y34866D01*
X5504Y34865D01*
X5498Y34864D01*
X5491Y34863D01*
X5484Y34862D01*
X5474Y34862D01*
X5463Y34861D01*
X5451Y34859D01*
X5438Y34858D01*
X5424Y34858D01*
X5408Y34857D01*
X5392Y34857D01*
X5373Y34856D01*
X5254D01*
Y34567D01*
X5099D01*
Y35333D01*
X5369D01*
X5381Y35333D01*
D02*
G37*
G36*
X7756Y35134D02*
X7759D01*
X7768Y35134D01*
X7779Y35132D01*
X7790Y35130D01*
X7804Y35128D01*
X7819Y35125D01*
X7834Y35120D01*
X7850Y35115D01*
X7866Y35108D01*
X7882Y35100D01*
X7898Y35091D01*
X7914Y35080D01*
X7929Y35067D01*
X7943Y35053D01*
X7943Y35052D01*
X7946Y35049D01*
X7949Y35044D01*
X7954Y35037D01*
X7959Y35028D01*
X7965Y35018D01*
X7971Y35005D01*
X7978Y34991D01*
X7985Y34974D01*
X7991Y34955D01*
X7997Y34935D01*
X8002Y34912D01*
X8006Y34888D01*
X8010Y34861D01*
X8011Y34832D01*
X8012Y34802D01*
X7644D01*
Y34801D01*
Y34799D01*
X7644Y34796D01*
Y34791D01*
X7645Y34786D01*
X7646Y34779D01*
X7647Y34773D01*
X7649Y34765D01*
X7652Y34748D01*
X7655Y34740D01*
X7659Y34732D01*
X7663Y34723D01*
X7667Y34715D01*
X7672Y34707D01*
X7678Y34700D01*
X7679Y34699D01*
X7680Y34698D01*
X7682Y34697D01*
X7685Y34694D01*
X7688Y34692D01*
X7692Y34688D01*
X7697Y34686D01*
X7702Y34682D01*
X7708Y34678D01*
X7714Y34676D01*
X7729Y34670D01*
X7737Y34667D01*
X7745Y34666D01*
X7754Y34665D01*
X7764Y34664D01*
X7767D01*
X7770Y34665D01*
X7776Y34665D01*
X7784Y34666D01*
X7793Y34668D01*
X7803Y34672D01*
X7812Y34676D01*
X7822Y34682D01*
X7822D01*
X7823Y34683D01*
X7826Y34686D01*
X7830Y34691D01*
X7835Y34697D01*
X7841Y34706D01*
X7847Y34716D01*
X7853Y34728D01*
X7858Y34743D01*
X8004Y34719D01*
X8004Y34718D01*
X8003Y34715D01*
X8001Y34711D01*
X7999Y34706D01*
X7996Y34699D01*
X7992Y34691D01*
X7987Y34682D01*
X7982Y34673D01*
X7976Y34663D01*
X7970Y34653D01*
X7962Y34643D01*
X7954Y34633D01*
X7945Y34623D01*
X7936Y34613D01*
X7925Y34604D01*
X7914Y34596D01*
X7914Y34595D01*
X7912Y34594D01*
X7908Y34592D01*
X7903Y34589D01*
X7897Y34586D01*
X7891Y34583D01*
X7882Y34579D01*
X7872Y34575D01*
X7862Y34572D01*
X7851Y34568D01*
X7838Y34564D01*
X7825Y34561D01*
X7810Y34558D01*
X7795Y34556D01*
X7779Y34555D01*
X7762Y34554D01*
X7756D01*
X7752Y34555D01*
X7748D01*
X7744Y34555D01*
X7738Y34556D01*
X7726Y34557D01*
X7713Y34559D01*
X7697Y34562D01*
X7681Y34566D01*
X7664Y34571D01*
X7646Y34578D01*
X7628Y34585D01*
X7610Y34594D01*
X7593Y34605D01*
X7577Y34617D01*
X7562Y34632D01*
X7548Y34648D01*
X7547Y34650D01*
X7546Y34652D01*
X7543Y34656D01*
X7539Y34662D01*
X7535Y34670D01*
X7531Y34678D01*
X7526Y34689D01*
X7521Y34701D01*
X7515Y34714D01*
X7510Y34729D01*
X7506Y34744D01*
X7502Y34761D01*
X7498Y34779D01*
X7495Y34799D01*
X7494Y34819D01*
X7493Y34840D01*
Y34841D01*
Y34842D01*
Y34843D01*
Y34846D01*
X7494Y34849D01*
Y34853D01*
Y34858D01*
X7494Y34863D01*
X7495Y34874D01*
X7497Y34888D01*
X7499Y34903D01*
X7502Y34919D01*
X7506Y34936D01*
X7511Y34954D01*
X7516Y34971D01*
X7523Y34990D01*
X7532Y35007D01*
X7541Y35024D01*
X7552Y35041D01*
X7565Y35056D01*
X7566Y35057D01*
X7568Y35059D01*
X7572Y35063D01*
X7578Y35068D01*
X7585Y35074D01*
X7594Y35081D01*
X7604Y35088D01*
X7615Y35095D01*
X7628Y35103D01*
X7641Y35110D01*
X7656Y35116D01*
X7672Y35122D01*
X7690Y35127D01*
X7708Y35131D01*
X7727Y35134D01*
X7748Y35135D01*
X7753D01*
X7756Y35134D01*
D02*
G37*
G36*
X7022Y35057D02*
X7023Y35058D01*
X7026Y35060D01*
X7029Y35064D01*
X7035Y35069D01*
X7041Y35075D01*
X7048Y35082D01*
X7058Y35089D01*
X7068Y35096D01*
X7079Y35103D01*
X7091Y35110D01*
X7104Y35117D01*
X7119Y35122D01*
X7134Y35127D01*
X7149Y35131D01*
X7166Y35134D01*
X7183Y35135D01*
X7187D01*
X7193Y35134D01*
X7200Y35134D01*
X7208Y35132D01*
X7219Y35131D01*
X7230Y35129D01*
X7242Y35125D01*
X7255Y35121D01*
X7269Y35117D01*
X7283Y35111D01*
X7297Y35104D01*
X7311Y35095D01*
X7325Y35085D01*
X7338Y35074D01*
X7351Y35061D01*
X7352Y35060D01*
X7354Y35058D01*
X7357Y35053D01*
X7362Y35047D01*
X7367Y35040D01*
X7372Y35031D01*
X7378Y35019D01*
X7384Y35007D01*
X7391Y34993D01*
X7397Y34977D01*
X7402Y34960D01*
X7407Y34941D01*
X7412Y34920D01*
X7415Y34899D01*
X7417Y34875D01*
X7418Y34850D01*
Y34849D01*
Y34848D01*
Y34847D01*
Y34844D01*
Y34841D01*
X7417Y34836D01*
Y34832D01*
X7417Y34827D01*
X7415Y34815D01*
X7414Y34801D01*
X7412Y34786D01*
X7409Y34769D01*
X7405Y34752D01*
X7401Y34734D01*
X7396Y34715D01*
X7389Y34698D01*
X7381Y34680D01*
X7372Y34662D01*
X7362Y34646D01*
X7350Y34631D01*
X7349Y34630D01*
X7346Y34627D01*
X7343Y34624D01*
X7337Y34619D01*
X7331Y34613D01*
X7323Y34606D01*
X7314Y34600D01*
X7304Y34593D01*
X7293Y34585D01*
X7280Y34579D01*
X7266Y34572D01*
X7252Y34567D01*
X7236Y34562D01*
X7220Y34558D01*
X7203Y34555D01*
X7185Y34554D01*
X7181D01*
X7177Y34555D01*
X7173D01*
X7167Y34555D01*
X7162Y34557D01*
X7156Y34557D01*
X7141Y34560D01*
X7125Y34564D01*
X7108Y34570D01*
X7100Y34574D01*
X7091Y34578D01*
X7090Y34579D01*
X7089Y34579D01*
X7087Y34581D01*
X7083Y34583D01*
X7079Y34585D01*
X7075Y34588D01*
X7069Y34592D01*
X7064Y34596D01*
X7052Y34606D01*
X7038Y34618D01*
X7025Y34632D01*
X7012Y34648D01*
Y34567D01*
X6876D01*
Y35333D01*
X7022D01*
Y35057D01*
D02*
G37*
G36*
X6489Y35134D02*
X6492D01*
X6501Y35134D01*
X6511Y35132D01*
X6524Y35130D01*
X6538Y35128D01*
X6553Y35125D01*
X6569Y35120D01*
X6585Y35115D01*
X6603Y35108D01*
X6620Y35100D01*
X6637Y35091D01*
X6654Y35080D01*
X6671Y35067D01*
X6686Y35053D01*
X6687Y35052D01*
X6690Y35049D01*
X6694Y35044D01*
X6699Y35038D01*
X6705Y35030D01*
X6712Y35020D01*
X6719Y35009D01*
X6727Y34996D01*
X6734Y34982D01*
X6742Y34966D01*
X6748Y34949D01*
X6754Y34931D01*
X6760Y34911D01*
X6764Y34890D01*
X6766Y34868D01*
X6767Y34846D01*
Y34845D01*
Y34844D01*
Y34842D01*
Y34840D01*
X6766Y34837D01*
Y34833D01*
X6766Y34825D01*
X6765Y34814D01*
X6763Y34801D01*
X6760Y34787D01*
X6757Y34773D01*
X6753Y34756D01*
X6747Y34739D01*
X6740Y34722D01*
X6733Y34704D01*
X6723Y34687D01*
X6713Y34670D01*
X6700Y34653D01*
X6686Y34637D01*
X6685Y34636D01*
X6682Y34634D01*
X6677Y34629D01*
X6671Y34624D01*
X6663Y34617D01*
X6654Y34611D01*
X6642Y34603D01*
X6630Y34596D01*
X6615Y34588D01*
X6600Y34580D01*
X6583Y34574D01*
X6565Y34567D01*
X6546Y34562D01*
X6525Y34558D01*
X6503Y34555D01*
X6481Y34554D01*
X6473D01*
X6468Y34555D01*
X6461Y34555D01*
X6453Y34556D01*
X6444Y34557D01*
X6434Y34559D01*
X6423Y34560D01*
X6412Y34563D01*
X6399Y34565D01*
X6387Y34569D01*
X6374Y34573D01*
X6361Y34578D01*
X6348Y34583D01*
X6335Y34589D01*
X6335Y34589D01*
X6332Y34590D01*
X6328Y34593D01*
X6324Y34595D01*
X6318Y34599D01*
X6311Y34603D01*
X6304Y34608D01*
X6296Y34614D01*
X6288Y34621D01*
X6279Y34629D01*
X6270Y34637D01*
X6261Y34646D01*
X6253Y34656D01*
X6245Y34666D01*
X6237Y34677D01*
X6230Y34689D01*
X6229Y34690D01*
X6228Y34693D01*
X6227Y34696D01*
X6224Y34702D01*
X6222Y34708D01*
X6218Y34715D01*
X6216Y34725D01*
X6212Y34735D01*
X6208Y34747D01*
X6206Y34759D01*
X6202Y34772D01*
X6199Y34786D01*
X6197Y34802D01*
X6196Y34818D01*
X6194Y34835D01*
X6194Y34852D01*
Y34853D01*
Y34856D01*
Y34859D01*
X6194Y34865D01*
X6195Y34871D01*
X6196Y34879D01*
X6197Y34888D01*
X6198Y34897D01*
X6201Y34908D01*
X6203Y34919D01*
X6206Y34930D01*
X6209Y34943D01*
X6213Y34955D01*
X6218Y34968D01*
X6224Y34981D01*
X6230Y34993D01*
X6231Y34994D01*
X6232Y34996D01*
X6234Y35000D01*
X6237Y35005D01*
X6240Y35011D01*
X6245Y35017D01*
X6250Y35024D01*
X6256Y35032D01*
X6263Y35041D01*
X6271Y35049D01*
X6279Y35058D01*
X6288Y35067D01*
X6298Y35075D01*
X6309Y35083D01*
X6320Y35091D01*
X6332Y35098D01*
X6332Y35099D01*
X6335Y35100D01*
X6338Y35101D01*
X6343Y35104D01*
X6350Y35106D01*
X6357Y35110D01*
X6366Y35113D01*
X6375Y35116D01*
X6386Y35120D01*
X6397Y35123D01*
X6409Y35126D01*
X6422Y35129D01*
X6436Y35131D01*
X6450Y35133D01*
X6465Y35134D01*
X6480Y35135D01*
X6485D01*
X6489Y35134D01*
D02*
G37*
G36*
X4538Y35122D02*
X4639D01*
Y35006D01*
X4538D01*
Y34781D01*
Y34781D01*
Y34779D01*
Y34775D01*
Y34770D01*
Y34765D01*
Y34759D01*
X4539Y34746D01*
Y34732D01*
X4539Y34725D01*
Y34719D01*
X4540Y34713D01*
Y34708D01*
X4541Y34704D01*
X4541Y34702D01*
Y34701D01*
X4542Y34700D01*
X4543Y34698D01*
X4544Y34695D01*
X4546Y34692D01*
X4548Y34689D01*
X4551Y34686D01*
X4554Y34683D01*
X4554Y34683D01*
X4555Y34682D01*
X4558Y34681D01*
X4561Y34680D01*
X4564Y34678D01*
X4569Y34677D01*
X4574Y34677D01*
X4579Y34676D01*
X4583D01*
X4587Y34677D01*
X4594Y34678D01*
X4602Y34680D01*
X4613Y34682D01*
X4624Y34686D01*
X4638Y34690D01*
X4651Y34576D01*
X4650D01*
X4649Y34575D01*
X4646Y34574D01*
X4642Y34573D01*
X4637Y34571D01*
X4631Y34569D01*
X4624Y34567D01*
X4617Y34565D01*
X4609Y34563D01*
X4600Y34561D01*
X4590Y34559D01*
X4580Y34558D01*
X4558Y34555D01*
X4534Y34554D01*
X4528D01*
X4524Y34555D01*
X4521D01*
X4511Y34556D01*
X4500Y34558D01*
X4488Y34560D01*
X4475Y34563D01*
X4463Y34568D01*
X4462D01*
X4462Y34568D01*
X4460Y34569D01*
X4458Y34570D01*
X4452Y34573D01*
X4445Y34577D01*
X4438Y34582D01*
X4430Y34588D01*
X4423Y34594D01*
X4417Y34602D01*
X4416Y34603D01*
X4414Y34606D01*
X4412Y34611D01*
X4408Y34617D01*
X4405Y34625D01*
X4402Y34635D01*
X4398Y34647D01*
X4396Y34660D01*
Y34660D01*
Y34661D01*
X4395Y34662D01*
Y34665D01*
X4395Y34668D01*
Y34672D01*
X4394Y34677D01*
X4394Y34682D01*
X4393Y34688D01*
Y34696D01*
X4393Y34704D01*
X4392Y34714D01*
Y34724D01*
X4392Y34737D01*
Y34749D01*
Y34763D01*
Y35006D01*
X4324D01*
Y35122D01*
X4392D01*
Y35233D01*
X4538Y35319D01*
Y35122D01*
D02*
G37*
G36*
X3356Y35134D02*
X3359D01*
X3368Y35134D01*
X3378Y35132D01*
X3390Y35130D01*
X3404Y35128D01*
X3418Y35125D01*
X3433Y35120D01*
X3449Y35115D01*
X3465Y35108D01*
X3482Y35100D01*
X3498Y35091D01*
X3513Y35080D01*
X3528Y35067D01*
X3542Y35053D01*
X3543Y35052D01*
X3546Y35049D01*
X3549Y35044D01*
X3553Y35037D01*
X3559Y35028D01*
X3565Y35018D01*
X3571Y35005D01*
X3578Y34991D01*
X3584Y34974D01*
X3591Y34955D01*
X3596Y34935D01*
X3602Y34912D01*
X3606Y34888D01*
X3609Y34861D01*
X3611Y34832D01*
X3611Y34802D01*
X3243D01*
Y34801D01*
Y34799D01*
X3244Y34796D01*
Y34791D01*
X3244Y34786D01*
X3245Y34779D01*
X3247Y34773D01*
X3248Y34765D01*
X3252Y34748D01*
X3255Y34740D01*
X3258Y34732D01*
X3263Y34723D01*
X3267Y34715D01*
X3272Y34707D01*
X3278Y34700D01*
X3279Y34699D01*
X3280Y34698D01*
X3281Y34697D01*
X3284Y34694D01*
X3287Y34692D01*
X3292Y34688D01*
X3296Y34686D01*
X3302Y34682D01*
X3307Y34678D01*
X3314Y34676D01*
X3328Y34670D01*
X3337Y34667D01*
X3345Y34666D01*
X3354Y34665D01*
X3363Y34664D01*
X3367D01*
X3369Y34665D01*
X3376Y34665D01*
X3384Y34666D01*
X3393Y34668D01*
X3403Y34672D01*
X3412Y34676D01*
X3421Y34682D01*
X3422D01*
X3423Y34683D01*
X3425Y34686D01*
X3430Y34691D01*
X3435Y34697D01*
X3441Y34706D01*
X3447Y34716D01*
X3452Y34728D01*
X3457Y34743D01*
X3604Y34719D01*
X3603Y34718D01*
X3603Y34715D01*
X3601Y34711D01*
X3598Y34706D01*
X3595Y34699D01*
X3591Y34691D01*
X3587Y34682D01*
X3582Y34673D01*
X3576Y34663D01*
X3569Y34653D01*
X3562Y34643D01*
X3554Y34633D01*
X3545Y34623D01*
X3536Y34613D01*
X3525Y34604D01*
X3514Y34596D01*
X3513Y34595D01*
X3511Y34594D01*
X3508Y34592D01*
X3503Y34589D01*
X3497Y34586D01*
X3490Y34583D01*
X3481Y34579D01*
X3472Y34575D01*
X3461Y34572D01*
X3450Y34568D01*
X3438Y34564D01*
X3424Y34561D01*
X3410Y34558D01*
X3394Y34556D01*
X3378Y34555D01*
X3362Y34554D01*
X3356D01*
X3352Y34555D01*
X3348D01*
X3343Y34555D01*
X3338Y34556D01*
X3326Y34557D01*
X3312Y34559D01*
X3297Y34562D01*
X3280Y34566D01*
X3263Y34571D01*
X3245Y34578D01*
X3228Y34585D01*
X3210Y34594D01*
X3193Y34605D01*
X3177Y34617D01*
X3161Y34632D01*
X3147Y34648D01*
X3147Y34650D01*
X3145Y34652D01*
X3142Y34656D01*
X3139Y34662D01*
X3135Y34670D01*
X3130Y34678D01*
X3125Y34689D01*
X3120Y34701D01*
X3115Y34714D01*
X3110Y34729D01*
X3105Y34744D01*
X3101Y34761D01*
X3098Y34779D01*
X3095Y34799D01*
X3093Y34819D01*
X3093Y34840D01*
Y34841D01*
Y34842D01*
Y34843D01*
Y34846D01*
X3093Y34849D01*
Y34853D01*
Y34858D01*
X3094Y34863D01*
X3095Y34874D01*
X3096Y34888D01*
X3099Y34903D01*
X3101Y34919D01*
X3105Y34936D01*
X3110Y34954D01*
X3116Y34971D01*
X3123Y34990D01*
X3131Y35007D01*
X3141Y35024D01*
X3152Y35041D01*
X3165Y35056D01*
X3166Y35057D01*
X3168Y35059D01*
X3172Y35063D01*
X3177Y35068D01*
X3184Y35074D01*
X3193Y35081D01*
X3203Y35088D01*
X3214Y35095D01*
X3227Y35103D01*
X3241Y35110D01*
X3256Y35116D01*
X3272Y35122D01*
X3289Y35127D01*
X3307Y35131D01*
X3327Y35134D01*
X3347Y35135D01*
X3353D01*
X3356Y35134D01*
D02*
G37*
%LPC*%
G36*
X13718Y31717D02*
X11842D01*
Y31707D01*
X11832D01*
Y31698D01*
X11823D01*
Y31688D01*
X11813D01*
Y31670D01*
X11804D01*
Y30647D01*
X11813D01*
Y30628D01*
X11823D01*
Y30619D01*
X11832D01*
Y30610D01*
X11851D01*
Y30600D01*
X13718D01*
Y30610D01*
X13727D01*
Y30619D01*
X13736D01*
Y30628D01*
X13746D01*
Y30647D01*
X13755D01*
Y31660D01*
X13746D01*
Y31688D01*
X13736D01*
Y31698D01*
X13727D01*
Y31707D01*
X13718D01*
Y31717D01*
D02*
G37*
G36*
X13493Y30488D02*
X12029D01*
Y30478D01*
X12020D01*
Y30450D01*
X12010D01*
Y30422D01*
X12001D01*
Y30394D01*
X11992D01*
Y30347D01*
X11982D01*
Y30300D01*
X11973D01*
Y30263D01*
X11964D01*
Y30206D01*
X11954D01*
Y30131D01*
X11945D01*
Y30056D01*
X11935D01*
Y29775D01*
X11945D01*
Y29700D01*
X11954D01*
Y29634D01*
X11964D01*
Y29587D01*
X11973D01*
Y29550D01*
X11982D01*
Y29503D01*
X11992D01*
Y29475D01*
X12001D01*
Y29447D01*
X12010D01*
Y29418D01*
X12020D01*
Y29390D01*
X12029D01*
Y29362D01*
X12039D01*
Y29343D01*
X12048D01*
Y29315D01*
X12057D01*
Y29296D01*
X12067D01*
Y29278D01*
X12076D01*
Y29259D01*
X12086D01*
Y29240D01*
X12095D01*
Y29221D01*
X12104D01*
Y29203D01*
X12114D01*
Y29184D01*
X12123D01*
Y29175D01*
X12132D01*
Y29156D01*
X12142D01*
Y29137D01*
X12151D01*
Y29128D01*
X12161D01*
Y29109D01*
X12170D01*
Y29099D01*
X12179D01*
Y29081D01*
X12189D01*
Y29071D01*
X12198D01*
Y29062D01*
X12207D01*
Y29043D01*
X12217D01*
Y29034D01*
X12226D01*
Y29024D01*
X12236D01*
Y29006D01*
X12245D01*
Y28996D01*
X12254D01*
Y28987D01*
X12264D01*
Y28978D01*
X12273D01*
Y28968D01*
X12283D01*
Y28949D01*
X12301D01*
Y28931D01*
X12311D01*
Y28921D01*
X12320D01*
Y28912D01*
X12329D01*
Y28902D01*
X12339D01*
Y28893D01*
X12348D01*
Y28884D01*
X12358D01*
Y28874D01*
X12367D01*
Y28865D01*
X12376D01*
Y28856D01*
X12386D01*
Y28846D01*
X12395D01*
Y28827D01*
X12404D01*
Y28818D01*
X12414D01*
Y28809D01*
X12423D01*
Y28790D01*
X12433D01*
Y28781D01*
X12442D01*
Y28762D01*
X12451D01*
Y28743D01*
X12461D01*
Y28724D01*
X12470D01*
Y28705D01*
X12479D01*
Y28687D01*
X12489D01*
Y28677D01*
X12498D01*
Y28649D01*
X12508D01*
Y28621D01*
X12517D01*
Y28602D01*
X12526D01*
Y28574D01*
X12536D01*
Y28546D01*
X12545D01*
Y28518D01*
X12555D01*
Y28499D01*
X12564D01*
Y28471D01*
X12573D01*
Y28452D01*
X12583D01*
Y28424D01*
X12592D01*
Y28405D01*
X12601D01*
Y28377D01*
X12611D01*
Y28358D01*
X12620D01*
Y28330D01*
X12630D01*
Y28312D01*
X12639D01*
Y28283D01*
X12648D01*
Y28265D01*
X12658D01*
Y28236D01*
X12667D01*
Y28218D01*
X12676D01*
Y28190D01*
X12686D01*
Y28171D01*
X12695D01*
Y28143D01*
X12705D01*
Y28124D01*
X12714D01*
Y28096D01*
X12723D01*
Y28077D01*
X12733D01*
Y28049D01*
X12742D01*
Y28030D01*
X12752D01*
Y28002D01*
X12761D01*
Y27974D01*
X12770D01*
Y27955D01*
X12780D01*
Y27936D01*
X12789D01*
Y27908D01*
X12798D01*
Y27889D01*
X12808D01*
Y27861D01*
X12817D01*
Y27843D01*
X12827D01*
Y27814D01*
X12836D01*
Y27796D01*
X12845D01*
Y27767D01*
X12855D01*
Y27749D01*
X12864D01*
Y27721D01*
X12873D01*
Y27702D01*
X12883D01*
Y27674D01*
X12892D01*
Y27655D01*
X12902D01*
Y27627D01*
X12911D01*
Y27599D01*
X12920D01*
Y27580D01*
X12930D01*
Y27552D01*
X12939D01*
Y27533D01*
X12949D01*
Y27514D01*
X12958D01*
Y27495D01*
X12967D01*
Y27486D01*
X12977D01*
Y27477D01*
X12986D01*
Y27458D01*
X12995D01*
Y27449D01*
X13005D01*
Y27439D01*
X13024D01*
Y27430D01*
X13033D01*
Y27420D01*
X13042D01*
Y27411D01*
X13061D01*
Y27402D01*
X13070D01*
Y27392D01*
X13089D01*
Y27383D01*
X13127D01*
Y27373D01*
X13155D01*
Y27364D01*
X13258D01*
Y27373D01*
X13296D01*
Y27383D01*
X13324D01*
Y27392D01*
X13333D01*
Y27402D01*
X13361D01*
Y27411D01*
X13371D01*
Y27420D01*
X13389D01*
Y27430D01*
X13399D01*
Y27439D01*
X13408D01*
Y27449D01*
X13418D01*
Y27458D01*
X13427D01*
Y27477D01*
X13446D01*
Y27495D01*
X13455D01*
Y27514D01*
X13464D01*
Y27533D01*
X13474D01*
Y27552D01*
X13483D01*
Y27570D01*
X13493D01*
Y27617D01*
X13502D01*
Y27692D01*
X13493D01*
Y27739D01*
X13483D01*
Y27767D01*
X13474D01*
Y27805D01*
X13464D01*
Y27843D01*
X13455D01*
Y27871D01*
X13446D01*
Y27908D01*
X13436D01*
Y27936D01*
X13427D01*
Y27955D01*
X13418D01*
Y28002D01*
X13408D01*
Y28039D01*
X13399D01*
Y28058D01*
X13389D01*
Y28096D01*
X13380D01*
Y28143D01*
X13371D01*
Y28180D01*
X13361D01*
Y28208D01*
X13352D01*
Y28236D01*
X13342D01*
Y28265D01*
X13333D01*
Y28302D01*
X13324D01*
Y28330D01*
X13314D01*
Y28377D01*
X13305D01*
Y28415D01*
X13296D01*
Y28443D01*
X13286D01*
Y28480D01*
X13277D01*
Y28509D01*
X13267D01*
Y28546D01*
X13258D01*
Y28584D01*
X13249D01*
Y28612D01*
X13239D01*
Y28640D01*
X13230D01*
Y28677D01*
X13221D01*
Y28715D01*
X13211D01*
Y28743D01*
X13202D01*
Y28781D01*
X13192D01*
Y28818D01*
X13183D01*
Y28846D01*
X13174D01*
Y28884D01*
X13164D01*
Y28912D01*
X13155D01*
Y28949D01*
X13146D01*
Y28987D01*
X13136D01*
Y29015D01*
X13127D01*
Y29053D01*
X13117D01*
Y29081D01*
X13108D01*
Y29118D01*
X13099D01*
Y29156D01*
X13089D01*
Y29184D01*
X13080D01*
Y29221D01*
X13070D01*
Y29250D01*
X13061D01*
Y29287D01*
X13052D01*
Y29315D01*
X13042D01*
Y29353D01*
X13033D01*
Y29390D01*
X13042D01*
Y29409D01*
X13052D01*
Y29418D01*
X13061D01*
Y29428D01*
X13117D01*
Y29418D01*
X13127D01*
Y29400D01*
X13136D01*
Y29381D01*
X13146D01*
Y29353D01*
X13155D01*
Y29315D01*
X13164D01*
Y29278D01*
X13174D01*
Y29250D01*
X13183D01*
Y29212D01*
X13192D01*
Y29175D01*
X13202D01*
Y29146D01*
X13211D01*
Y29109D01*
X13221D01*
Y29081D01*
X13230D01*
Y29053D01*
X13239D01*
Y29015D01*
X13249D01*
Y28978D01*
X13258D01*
Y28940D01*
X13267D01*
Y28912D01*
X13277D01*
Y28874D01*
X13286D01*
Y28846D01*
X13296D01*
Y28809D01*
X13305D01*
Y28781D01*
X13314D01*
Y28743D01*
X13324D01*
Y28715D01*
X13333D01*
Y28677D01*
X13342D01*
Y28640D01*
X13352D01*
Y28593D01*
X13361D01*
Y28574D01*
X13371D01*
Y28537D01*
X13380D01*
Y28509D01*
X13389D01*
Y28480D01*
X13399D01*
Y28443D01*
X13408D01*
Y28424D01*
X13418D01*
Y28433D01*
X13427D01*
Y28443D01*
X13446D01*
Y28452D01*
X13455D01*
Y28462D01*
X13474D01*
Y28471D01*
X13493D01*
Y28480D01*
X13502D01*
Y28490D01*
X13521D01*
Y28499D01*
X13530D01*
Y28509D01*
X13549D01*
Y28518D01*
X13568D01*
Y28527D01*
X13577D01*
Y28537D01*
X13596D01*
Y28546D01*
X13605D01*
Y28555D01*
X13624D01*
Y28565D01*
X13633D01*
Y28574D01*
X13652D01*
Y28584D01*
X13671D01*
Y28593D01*
X13680D01*
Y28602D01*
X13699D01*
Y28612D01*
X13708D01*
Y28621D01*
X13727D01*
Y28630D01*
X13736D01*
Y28640D01*
X13755D01*
Y28649D01*
X13774D01*
Y28659D01*
X13783D01*
Y28668D01*
X13802D01*
Y28677D01*
X13812D01*
Y28687D01*
X13830D01*
Y28696D01*
X13849D01*
Y28705D01*
X13858D01*
Y28715D01*
X13877D01*
Y28724D01*
X13887D01*
Y28734D01*
X13905D01*
Y28743D01*
X13915D01*
Y28752D01*
X13933D01*
Y28762D01*
X13952D01*
Y28771D01*
X13962D01*
Y28781D01*
X13980D01*
Y28790D01*
X13990D01*
Y28799D01*
X14009D01*
Y28809D01*
X14027D01*
Y28818D01*
X14037D01*
Y28827D01*
X14055D01*
Y28837D01*
X14065D01*
Y28846D01*
X14084D01*
Y28856D01*
X14093D01*
Y28865D01*
X14112D01*
Y28874D01*
X14130D01*
Y28884D01*
X14140D01*
Y28893D01*
X14159D01*
Y28902D01*
X14168D01*
Y28912D01*
X14187D01*
Y28921D01*
X14196D01*
Y28940D01*
X14205D01*
Y28959D01*
X14196D01*
Y28968D01*
X14205D01*
Y28978D01*
X14196D01*
Y28987D01*
X14205D01*
Y28996D01*
X14196D01*
Y29006D01*
X14205D01*
Y29015D01*
X14196D01*
Y29053D01*
X14205D01*
Y29062D01*
X14196D01*
Y29165D01*
X14187D01*
Y29221D01*
X14177D01*
Y29296D01*
X14168D01*
Y29343D01*
X14159D01*
Y29381D01*
X14149D01*
Y29418D01*
X14140D01*
Y29447D01*
X14130D01*
Y29465D01*
X14121D01*
Y29493D01*
X14112D01*
Y29512D01*
X14102D01*
Y29531D01*
X14093D01*
Y29550D01*
X14084D01*
Y29569D01*
X14074D01*
Y29587D01*
X14065D01*
Y29606D01*
X14055D01*
Y29625D01*
X14046D01*
Y29644D01*
X14037D01*
Y29662D01*
X14027D01*
Y29681D01*
X14018D01*
Y29690D01*
X14009D01*
Y29709D01*
X13999D01*
Y29728D01*
X13990D01*
Y29747D01*
X13980D01*
Y29756D01*
X13971D01*
Y29775D01*
X13962D01*
Y29794D01*
X13952D01*
Y29812D01*
X13943D01*
Y29822D01*
X13933D01*
Y29841D01*
X13924D01*
Y29859D01*
X13915D01*
Y29869D01*
X13905D01*
Y29887D01*
X13896D01*
Y29897D01*
X13887D01*
Y29916D01*
X13877D01*
Y29934D01*
X13868D01*
Y29944D01*
X13858D01*
Y29962D01*
X13849D01*
Y29972D01*
X13840D01*
Y29991D01*
X13830D01*
Y30000D01*
X13821D01*
Y30019D01*
X13812D01*
Y30028D01*
X13802D01*
Y30047D01*
X13793D01*
Y30056D01*
X13783D01*
Y30075D01*
X13774D01*
Y30094D01*
X13765D01*
Y30103D01*
X13755D01*
Y30122D01*
X13746D01*
Y30131D01*
X13736D01*
Y30150D01*
X13727D01*
Y30159D01*
X13718D01*
Y30169D01*
X13708D01*
Y30188D01*
X13699D01*
Y30197D01*
X13690D01*
Y30216D01*
X13680D01*
Y30235D01*
X13671D01*
Y30244D01*
X13661D01*
Y30253D01*
X13652D01*
Y30272D01*
X13643D01*
Y30281D01*
X13633D01*
Y30291D01*
X13624D01*
Y30300D01*
X13615D01*
Y30319D01*
X13605D01*
Y30338D01*
X13596D01*
Y30347D01*
X13586D01*
Y30366D01*
X13577D01*
Y30375D01*
X13568D01*
Y30394D01*
X13558D01*
Y30403D01*
X13549D01*
Y30422D01*
X13539D01*
Y30431D01*
X13530D01*
Y30441D01*
X13521D01*
Y30450D01*
X13511D01*
Y30469D01*
X13502D01*
Y30478D01*
X13493D01*
Y30488D01*
D02*
G37*
G36*
X12104Y29015D02*
X12076D01*
Y29006D01*
X12067D01*
Y28996D01*
X12057D01*
Y28987D01*
X12048D01*
Y28978D01*
X12039D01*
Y28968D01*
X12029D01*
Y28959D01*
X12020D01*
Y28940D01*
X12010D01*
Y28921D01*
X12001D01*
Y28912D01*
X11992D01*
Y28884D01*
X11982D01*
Y28762D01*
X11992D01*
Y28734D01*
X12001D01*
Y28715D01*
X12010D01*
Y28705D01*
X12020D01*
Y28687D01*
X12029D01*
Y28677D01*
X12048D01*
Y28659D01*
X12057D01*
Y28649D01*
X12076D01*
Y28640D01*
X12086D01*
Y28630D01*
X12104D01*
Y28621D01*
X12123D01*
Y28612D01*
X12161D01*
Y28602D01*
X12236D01*
Y28612D01*
X12339D01*
Y28621D01*
X12395D01*
Y28640D01*
X12386D01*
Y28659D01*
X12376D01*
Y28677D01*
X12367D01*
Y28687D01*
X12358D01*
Y28705D01*
X12348D01*
Y28724D01*
X12339D01*
Y28734D01*
X12329D01*
Y28752D01*
X12320D01*
Y28762D01*
X12311D01*
Y28781D01*
X12301D01*
Y28790D01*
X12292D01*
Y28799D01*
X12283D01*
Y28809D01*
X12273D01*
Y28818D01*
X12264D01*
Y28827D01*
X12254D01*
Y28837D01*
X12245D01*
Y28846D01*
X12236D01*
Y28856D01*
X12226D01*
Y28865D01*
X12217D01*
Y28874D01*
X12207D01*
Y28893D01*
X12198D01*
Y28902D01*
X12189D01*
Y28912D01*
X12179D01*
Y28921D01*
X12170D01*
Y28931D01*
X12161D01*
Y28940D01*
X12151D01*
Y28949D01*
X12142D01*
Y28968D01*
X12132D01*
Y28978D01*
X12123D01*
Y28987D01*
X12114D01*
Y29006D01*
X12104D01*
Y29015D01*
D02*
G37*
G36*
X12442Y28518D02*
X12367D01*
Y28509D01*
X12283D01*
Y28499D01*
X12226D01*
Y28490D01*
X12198D01*
Y28480D01*
X12179D01*
Y28471D01*
X12161D01*
Y28462D01*
X12151D01*
Y28452D01*
X12132D01*
Y28443D01*
X12123D01*
Y28433D01*
X12114D01*
Y28415D01*
X12104D01*
Y28405D01*
X12095D01*
Y28387D01*
X12086D01*
Y28368D01*
X12076D01*
Y28340D01*
X12067D01*
Y28227D01*
X12076D01*
Y28199D01*
X12086D01*
Y28180D01*
X12095D01*
Y28161D01*
X12104D01*
Y28152D01*
X12114D01*
Y28133D01*
X12123D01*
Y28124D01*
X12132D01*
Y28115D01*
X12151D01*
Y28105D01*
X12161D01*
Y28096D01*
X12170D01*
Y28086D01*
X12189D01*
Y28077D01*
X12198D01*
Y28068D01*
X12217D01*
Y28058D01*
X12245D01*
Y28049D01*
X12283D01*
Y28039D01*
X12292D01*
Y28030D01*
X12348D01*
Y28039D01*
X12358D01*
Y28049D01*
X12376D01*
Y28058D01*
X12386D01*
Y28068D01*
X12395D01*
Y28077D01*
X12414D01*
Y28086D01*
X12442D01*
Y28096D01*
X12451D01*
Y28105D01*
X12461D01*
Y28115D01*
X12479D01*
Y28124D01*
X12498D01*
Y28133D01*
X12508D01*
Y28143D01*
X12526D01*
Y28152D01*
X12545D01*
Y28161D01*
X12555D01*
Y28171D01*
X12564D01*
Y28208D01*
X12555D01*
Y28227D01*
X12545D01*
Y28255D01*
X12536D01*
Y28274D01*
X12526D01*
Y28302D01*
X12517D01*
Y28321D01*
X12508D01*
Y28349D01*
X12498D01*
Y28368D01*
X12489D01*
Y28396D01*
X12479D01*
Y28415D01*
X12470D01*
Y28443D01*
X12461D01*
Y28462D01*
X12451D01*
Y28490D01*
X12442D01*
Y28518D01*
D02*
G37*
G36*
X14121Y28358D02*
X14112D01*
Y28349D01*
X14093D01*
Y28340D01*
X14084D01*
Y28330D01*
X14065D01*
Y28321D01*
X14055D01*
Y28312D01*
X14037D01*
Y28302D01*
X14027D01*
Y28293D01*
X14009D01*
Y28283D01*
X13990D01*
Y28274D01*
X13980D01*
Y28265D01*
X13962D01*
Y28255D01*
X13952D01*
Y28246D01*
X13933D01*
Y28236D01*
X13924D01*
X13915D01*
Y28227D01*
X13905D01*
Y28218D01*
X13887D01*
Y28208D01*
X13877D01*
Y28199D01*
X13858D01*
Y28190D01*
X13849D01*
Y28180D01*
X13830D01*
Y28171D01*
X13812D01*
Y28161D01*
X13802D01*
Y28152D01*
X13783D01*
Y28143D01*
X13774D01*
Y28133D01*
X13755D01*
Y28124D01*
X13736D01*
Y28115D01*
X13727D01*
Y28105D01*
X13708D01*
Y28096D01*
X13699D01*
Y28086D01*
X13680D01*
Y28077D01*
X13671D01*
Y28068D01*
X13652D01*
Y28058D01*
X13633D01*
Y28049D01*
X13624D01*
Y28039D01*
X13605D01*
Y28030D01*
X13596D01*
Y28021D01*
X13577D01*
Y28011D01*
X13558D01*
Y28002D01*
X13549D01*
Y27993D01*
X13530D01*
Y27983D01*
X13539D01*
Y27946D01*
X13549D01*
Y27899D01*
X13558D01*
Y27889D01*
X13568D01*
Y27861D01*
X13577D01*
Y27824D01*
X13586D01*
Y27767D01*
X13596D01*
Y27730D01*
X13605D01*
Y27580D01*
X13596D01*
Y27542D01*
X13586D01*
Y27514D01*
X13577D01*
Y27495D01*
X13568D01*
Y27477D01*
X13558D01*
Y27458D01*
X13549D01*
Y27439D01*
X13539D01*
Y27430D01*
X13530D01*
Y27411D01*
X13521D01*
Y27402D01*
X13511D01*
Y27392D01*
X13502D01*
Y27383D01*
X13493D01*
Y27373D01*
X13483D01*
Y27364D01*
X13474D01*
Y27355D01*
X13464D01*
Y27345D01*
X13455D01*
Y27336D01*
X13436D01*
Y27327D01*
X13427D01*
Y27317D01*
X13408D01*
Y27308D01*
X13399D01*
Y27298D01*
X13380D01*
Y27289D01*
X13352D01*
Y27280D01*
X13333D01*
Y27270D01*
X13286D01*
Y27261D01*
X13127D01*
Y27270D01*
X13089D01*
Y27280D01*
X13061D01*
Y27289D01*
X13042D01*
Y27298D01*
X13014D01*
Y27308D01*
X13005D01*
Y27317D01*
X12986D01*
Y27327D01*
X12977D01*
Y27336D01*
X12967D01*
Y27345D01*
X12949D01*
Y27355D01*
X12939D01*
Y27364D01*
X12930D01*
Y27373D01*
X12920D01*
Y27383D01*
X12911D01*
Y27392D01*
X12902D01*
Y27402D01*
X12892D01*
Y27411D01*
X12883D01*
Y27420D01*
X12873D01*
Y27439D01*
X12864D01*
Y27458D01*
X12855D01*
Y27467D01*
X12845D01*
Y27458D01*
X12827D01*
Y27449D01*
X12808D01*
Y27439D01*
X12789D01*
Y27430D01*
X12770D01*
Y27420D01*
X12761D01*
Y27411D01*
X12742D01*
Y27402D01*
X12733D01*
Y27392D01*
X12723D01*
Y27383D01*
X12714D01*
Y27373D01*
X12695D01*
Y27364D01*
X12686D01*
Y27355D01*
X12667D01*
Y27345D01*
X12658D01*
Y27336D01*
X12639D01*
Y27327D01*
X12630D01*
Y27317D01*
X12611D01*
Y27308D01*
X12592D01*
Y27298D01*
X12583D01*
Y27289D01*
X12564D01*
Y27280D01*
X12555D01*
Y27270D01*
X12545D01*
Y27252D01*
X12536D01*
Y27242D01*
X12526D01*
Y27223D01*
X12517D01*
Y27205D01*
X12508D01*
Y27176D01*
X12498D01*
Y27111D01*
X12489D01*
Y27101D01*
X12498D01*
Y27083D01*
X12508D01*
Y27064D01*
X12517D01*
Y27045D01*
X12526D01*
Y27036D01*
X12536D01*
Y27026D01*
X12545D01*
Y27017D01*
X12555D01*
Y27008D01*
X12564D01*
Y26998D01*
X12573D01*
Y26989D01*
X12583D01*
Y26979D01*
X12601D01*
Y26970D01*
X12620D01*
Y26961D01*
X12639D01*
Y26951D01*
X12752D01*
Y26961D01*
X12770D01*
Y26970D01*
X12789D01*
Y26979D01*
X12817D01*
Y26989D01*
X12845D01*
Y26998D01*
X12864D01*
Y27008D01*
X12892D01*
Y27017D01*
X12911D01*
Y27026D01*
X12939D01*
Y27036D01*
X12958D01*
Y27045D01*
X12986D01*
Y27055D01*
X13014D01*
Y27064D01*
X13033D01*
Y27073D01*
X13061D01*
Y27083D01*
X13080D01*
Y27092D01*
X13099D01*
Y27101D01*
X13127D01*
Y27111D01*
X13155D01*
Y27120D01*
X13174D01*
Y27130D01*
X13202D01*
Y27139D01*
X13221D01*
Y27148D01*
X13239D01*
Y27158D01*
X13267D01*
Y27167D01*
X13296D01*
Y27176D01*
X13314D01*
Y27186D01*
X13342D01*
Y27195D01*
X13361D01*
Y27205D01*
X13389D01*
Y27214D01*
X13408D01*
Y27223D01*
X13436D01*
Y27233D01*
X13455D01*
Y27242D01*
X13464D01*
Y27252D01*
X13493D01*
Y27261D01*
X13502D01*
Y27270D01*
X13521D01*
Y27280D01*
X13530D01*
Y27289D01*
X13549D01*
Y27298D01*
X13558D01*
Y27308D01*
X13568D01*
Y27317D01*
X13586D01*
Y27327D01*
X13596D01*
Y27336D01*
X13605D01*
Y27345D01*
X13615D01*
Y27355D01*
X13624D01*
Y27364D01*
X13633D01*
Y27373D01*
X13643D01*
Y27383D01*
X13652D01*
Y27392D01*
X13661D01*
Y27402D01*
X13671D01*
Y27411D01*
X13680D01*
Y27420D01*
X13690D01*
Y27430D01*
X13699D01*
Y27439D01*
X13708D01*
Y27449D01*
X13718D01*
Y27467D01*
X13727D01*
Y27477D01*
X13736D01*
Y27486D01*
X13746D01*
Y27495D01*
X13755D01*
Y27514D01*
X13765D01*
Y27524D01*
X13774D01*
Y27533D01*
X13783D01*
Y27552D01*
X13793D01*
Y27561D01*
X13802D01*
Y27580D01*
X13812D01*
Y27589D01*
X13821D01*
Y27608D01*
X13830D01*
Y27627D01*
X13840D01*
Y27636D01*
X13849D01*
Y27655D01*
X13858D01*
Y27664D01*
X13868D01*
Y27683D01*
X13877D01*
Y27702D01*
X13887D01*
Y27711D01*
X13896D01*
Y27730D01*
X13905D01*
Y27749D01*
X13915D01*
Y27767D01*
X13924D01*
Y27786D01*
X13933D01*
Y27805D01*
X13943D01*
Y27824D01*
X13952D01*
Y27852D01*
X13962D01*
Y27871D01*
X13971D01*
Y27889D01*
X13980D01*
Y27908D01*
X13990D01*
Y27936D01*
X13999D01*
Y27955D01*
X14009D01*
Y27983D01*
X14018D01*
Y28011D01*
X14027D01*
Y28039D01*
X14037D01*
Y28058D01*
X14046D01*
Y28086D01*
X14055D01*
Y28105D01*
X14065D01*
Y28124D01*
X14074D01*
Y28152D01*
X14084D01*
Y28199D01*
X14093D01*
Y28208D01*
X14084D01*
Y28218D01*
X14093D01*
Y28236D01*
X14102D01*
Y28274D01*
X14112D01*
Y28283D01*
X14102D01*
Y28293D01*
X14112D01*
Y28330D01*
X14121D01*
Y28358D01*
D02*
G37*
G36*
X12592Y28068D02*
Y28058D01*
X12573D01*
Y28049D01*
X12564D01*
Y28039D01*
X12545D01*
Y28030D01*
X12536D01*
Y28021D01*
X12517D01*
Y28011D01*
X12508D01*
Y28002D01*
X12489D01*
Y27993D01*
X12470D01*
Y27983D01*
X12461D01*
Y27974D01*
X12451D01*
Y27964D01*
X12433D01*
Y27955D01*
X12414D01*
Y27946D01*
X12404D01*
Y27936D01*
X12376D01*
Y27918D01*
X12367D01*
Y27908D01*
X12348D01*
Y27889D01*
X12339D01*
Y27880D01*
X12329D01*
Y27871D01*
X12320D01*
Y27833D01*
X12311D01*
Y27824D01*
X12301D01*
Y27814D01*
X12311D01*
Y27805D01*
X12301D01*
Y27730D01*
X12320D01*
Y27739D01*
X12329D01*
Y27749D01*
X12348D01*
Y27758D01*
X12358D01*
Y27767D01*
X12376D01*
Y27777D01*
X12395D01*
Y27786D01*
X12404D01*
Y27796D01*
X12423D01*
Y27805D01*
X12433D01*
Y27814D01*
X12451D01*
Y27824D01*
X12461D01*
Y27833D01*
X12479D01*
Y27843D01*
X12498D01*
Y27852D01*
X12508D01*
Y27861D01*
X12526D01*
Y27871D01*
X12536D01*
Y27880D01*
X12555D01*
Y27889D01*
X12573D01*
Y27899D01*
X12583D01*
Y27908D01*
X12601D01*
Y27918D01*
X12611D01*
Y27927D01*
X12630D01*
Y27936D01*
X12639D01*
Y27946D01*
X12658D01*
Y27964D01*
X12648D01*
Y27993D01*
X12639D01*
Y28021D01*
X12630D01*
Y28039D01*
X12620D01*
Y28058D01*
X12611D01*
Y28068D01*
X12592D01*
D02*
G37*
G36*
X12433Y27289D02*
X12423D01*
Y27280D01*
X12433D01*
Y27289D01*
D02*
G37*
G36*
X3199Y32962D02*
X3195D01*
X3192Y32961D01*
X3188Y32961D01*
X3184Y32960D01*
X3174Y32957D01*
X3162Y32954D01*
X3157Y32951D01*
X3151Y32948D01*
X3145Y32944D01*
X3139Y32939D01*
X3132Y32934D01*
X3127Y32928D01*
X3126Y32928D01*
X3126Y32926D01*
X3124Y32925D01*
X3122Y32922D01*
X3120Y32919D01*
X3118Y32914D01*
X3115Y32909D01*
X3112Y32903D01*
X3110Y32897D01*
X3107Y32889D01*
X3105Y32882D01*
X3103Y32873D01*
X3101Y32863D01*
X3099Y32853D01*
X3099Y32842D01*
X3098Y32830D01*
Y32830D01*
Y32827D01*
Y32823D01*
X3099Y32818D01*
X3099Y32812D01*
X3100Y32805D01*
X3101Y32797D01*
X3102Y32789D01*
X3106Y32771D01*
X3109Y32762D01*
X3112Y32753D01*
X3116Y32744D01*
X3120Y32735D01*
X3125Y32727D01*
X3131Y32719D01*
X3131Y32719D01*
X3132Y32718D01*
X3134Y32716D01*
X3136Y32713D01*
X3140Y32711D01*
X3144Y32707D01*
X3147Y32704D01*
X3152Y32700D01*
X3163Y32693D01*
X3176Y32687D01*
X3183Y32684D01*
X3191Y32682D01*
X3198Y32681D01*
X3206Y32681D01*
X3210D01*
X3213Y32681D01*
X3216Y32682D01*
X3220Y32682D01*
X3230Y32684D01*
X3240Y32688D01*
X3246Y32691D01*
X3251Y32694D01*
X3258Y32698D01*
X3263Y32702D01*
X3269Y32707D01*
X3274Y32712D01*
X3274Y32713D01*
X3275Y32714D01*
X3276Y32715D01*
X3278Y32718D01*
X3280Y32722D01*
X3282Y32726D01*
X3285Y32732D01*
X3287Y32737D01*
X3290Y32744D01*
X3292Y32752D01*
X3295Y32760D01*
X3297Y32770D01*
X3299Y32780D01*
X3300Y32791D01*
X3301Y32804D01*
X3301Y32817D01*
Y32818D01*
Y32820D01*
Y32824D01*
X3301Y32829D01*
X3300Y32835D01*
X3300Y32842D01*
X3299Y32851D01*
X3297Y32859D01*
X3294Y32877D01*
X3289Y32895D01*
X3286Y32904D01*
X3282Y32912D01*
X3277Y32920D01*
X3272Y32927D01*
X3271Y32928D01*
X3271Y32929D01*
X3269Y32930D01*
X3267Y32933D01*
X3264Y32935D01*
X3260Y32938D01*
X3256Y32941D01*
X3252Y32945D01*
X3242Y32951D01*
X3229Y32956D01*
X3222Y32959D01*
X3214Y32960D01*
X3207Y32961D01*
X3199Y32962D01*
D02*
G37*
G36*
X5900Y33116D02*
X5724Y32854D01*
X5900D01*
Y33116D01*
D02*
G37*
G36*
X4670Y33219D02*
X4665D01*
X4660Y33218D01*
X4654Y33217D01*
X4646Y33215D01*
X4639Y33212D01*
X4630Y33208D01*
X4622Y33202D01*
X4621Y33202D01*
X4619Y33199D01*
X4615Y33194D01*
X4610Y33188D01*
X4605Y33180D01*
X4602Y33175D01*
X4599Y33170D01*
X4596Y33163D01*
X4594Y33156D01*
X4591Y33149D01*
X4589Y33141D01*
Y33141D01*
X4589Y33139D01*
X4588Y33135D01*
X4587Y33130D01*
X4586Y33124D01*
X4584Y33116D01*
X4583Y33107D01*
X4582Y33096D01*
X4580Y33084D01*
X4579Y33069D01*
X4578Y33054D01*
X4577Y33037D01*
X4576Y33017D01*
X4575Y32997D01*
X4574Y32974D01*
Y32950D01*
Y32949D01*
Y32948D01*
Y32946D01*
Y32944D01*
Y32941D01*
Y32937D01*
Y32928D01*
X4575Y32917D01*
Y32904D01*
X4575Y32890D01*
X4576Y32876D01*
X4577Y32861D01*
X4578Y32845D01*
X4579Y32830D01*
X4580Y32815D01*
X4582Y32800D01*
X4583Y32787D01*
X4585Y32775D01*
X4588Y32764D01*
Y32764D01*
X4588Y32762D01*
X4589Y32759D01*
X4590Y32756D01*
X4591Y32752D01*
X4593Y32748D01*
X4597Y32737D01*
X4602Y32726D01*
X4608Y32715D01*
X4615Y32705D01*
X4618Y32701D01*
X4622Y32697D01*
X4623Y32697D01*
X4626Y32694D01*
X4630Y32692D01*
X4636Y32689D01*
X4643Y32686D01*
X4651Y32683D01*
X4660Y32681D01*
X4670Y32681D01*
X4671D01*
X4674Y32681D01*
X4679Y32682D01*
X4686Y32683D01*
X4693Y32684D01*
X4701Y32688D01*
X4709Y32692D01*
X4717Y32697D01*
X4718Y32698D01*
X4720Y32701D01*
X4724Y32705D01*
X4729Y32711D01*
X4734Y32720D01*
X4737Y32725D01*
X4740Y32730D01*
X4743Y32737D01*
X4745Y32743D01*
X4748Y32750D01*
X4750Y32758D01*
Y32759D01*
X4750Y32761D01*
X4752Y32764D01*
X4752Y32769D01*
X4754Y32775D01*
X4755Y32783D01*
X4756Y32792D01*
X4758Y32804D01*
X4759Y32816D01*
X4760Y32830D01*
X4762Y32846D01*
X4763Y32863D01*
X4764Y32882D01*
X4765Y32903D01*
X4765Y32925D01*
Y32950D01*
Y32950D01*
Y32951D01*
Y32953D01*
Y32956D01*
Y32959D01*
Y32962D01*
Y32971D01*
X4765Y32982D01*
Y32995D01*
X4764Y33008D01*
X4764Y33023D01*
X4763Y33038D01*
X4762Y33054D01*
X4761Y33069D01*
X4759Y33084D01*
X4758Y33099D01*
X4756Y33113D01*
X4754Y33124D01*
X4752Y33135D01*
Y33135D01*
X4751Y33137D01*
X4750Y33140D01*
X4749Y33143D01*
X4748Y33147D01*
X4746Y33151D01*
X4742Y33162D01*
X4737Y33173D01*
X4731Y33185D01*
X4724Y33194D01*
X4720Y33199D01*
X4717Y33202D01*
X4716Y33203D01*
X4713Y33205D01*
X4709Y33208D01*
X4703Y33211D01*
X4696Y33214D01*
X4688Y33217D01*
X4679Y33219D01*
X4670Y33219D01*
D02*
G37*
G36*
X2586D02*
X2582D01*
X2577Y33218D01*
X2570Y33217D01*
X2563Y33215D01*
X2555Y33212D01*
X2547Y33208D01*
X2539Y33202D01*
X2538Y33202D01*
X2536Y33199D01*
X2532Y33194D01*
X2527Y33188D01*
X2522Y33180D01*
X2519Y33175D01*
X2516Y33170D01*
X2513Y33163D01*
X2511Y33156D01*
X2508Y33149D01*
X2506Y33141D01*
Y33141D01*
X2506Y33139D01*
X2505Y33135D01*
X2504Y33130D01*
X2503Y33124D01*
X2501Y33116D01*
X2500Y33107D01*
X2499Y33096D01*
X2497Y33084D01*
X2496Y33069D01*
X2495Y33054D01*
X2493Y33037D01*
X2493Y33017D01*
X2492Y32997D01*
X2491Y32974D01*
Y32950D01*
Y32949D01*
Y32948D01*
Y32946D01*
Y32944D01*
Y32941D01*
Y32937D01*
Y32928D01*
X2492Y32917D01*
Y32904D01*
X2492Y32890D01*
X2493Y32876D01*
X2493Y32861D01*
X2495Y32845D01*
X2496Y32830D01*
X2497Y32815D01*
X2498Y32800D01*
X2500Y32787D01*
X2502Y32775D01*
X2505Y32764D01*
Y32764D01*
X2505Y32762D01*
X2506Y32759D01*
X2507Y32756D01*
X2508Y32752D01*
X2510Y32748D01*
X2514Y32737D01*
X2519Y32726D01*
X2525Y32715D01*
X2532Y32705D01*
X2535Y32701D01*
X2539Y32697D01*
X2540Y32697D01*
X2543Y32694D01*
X2547Y32692D01*
X2553Y32689D01*
X2560Y32686D01*
X2568Y32683D01*
X2577Y32681D01*
X2586Y32681D01*
X2588D01*
X2591Y32681D01*
X2596Y32682D01*
X2603Y32683D01*
X2610Y32684D01*
X2618Y32688D01*
X2626Y32692D01*
X2634Y32697D01*
X2635Y32698D01*
X2637Y32701D01*
X2641Y32705D01*
X2646Y32711D01*
X2651Y32720D01*
X2654Y32725D01*
X2657Y32730D01*
X2660Y32737D01*
X2662Y32743D01*
X2665Y32750D01*
X2667Y32758D01*
Y32759D01*
X2667Y32761D01*
X2668Y32764D01*
X2669Y32769D01*
X2671Y32775D01*
X2672Y32783D01*
X2673Y32792D01*
X2675Y32804D01*
X2676Y32816D01*
X2677Y32830D01*
X2679Y32846D01*
X2680Y32863D01*
X2681Y32882D01*
X2682Y32903D01*
X2682Y32925D01*
Y32950D01*
Y32950D01*
Y32951D01*
Y32953D01*
Y32956D01*
Y32959D01*
Y32962D01*
Y32971D01*
X2682Y32982D01*
Y32995D01*
X2681Y33008D01*
X2681Y33023D01*
X2680Y33038D01*
X2679Y33054D01*
X2678Y33069D01*
X2676Y33084D01*
X2675Y33099D01*
X2673Y33113D01*
X2671Y33124D01*
X2668Y33135D01*
Y33135D01*
X2668Y33137D01*
X2667Y33140D01*
X2666Y33143D01*
X2665Y33147D01*
X2663Y33151D01*
X2659Y33162D01*
X2654Y33173D01*
X2648Y33185D01*
X2641Y33194D01*
X2637Y33199D01*
X2634Y33202D01*
X2632Y33203D01*
X2630Y33205D01*
X2626Y33208D01*
X2620Y33211D01*
X2613Y33214D01*
X2605Y33217D01*
X2596Y33219D01*
X2586Y33219D01*
D02*
G37*
G36*
X1099D02*
X1094D01*
X1089Y33218D01*
X1083Y33217D01*
X1075Y33215D01*
X1068Y33212D01*
X1059Y33208D01*
X1051Y33202D01*
X1050Y33202D01*
X1048Y33199D01*
X1044Y33194D01*
X1039Y33188D01*
X1034Y33180D01*
X1031Y33175D01*
X1028Y33170D01*
X1026Y33163D01*
X1023Y33156D01*
X1021Y33149D01*
X1018Y33141D01*
Y33141D01*
X1018Y33139D01*
X1017Y33135D01*
X1016Y33130D01*
X1015Y33124D01*
X1013Y33116D01*
X1012Y33107D01*
X1011Y33096D01*
X1009Y33084D01*
X1008Y33069D01*
X1007Y33054D01*
X1006Y33037D01*
X1005Y33017D01*
X1004Y32997D01*
X1003Y32974D01*
Y32950D01*
Y32949D01*
Y32948D01*
Y32946D01*
Y32944D01*
Y32941D01*
Y32937D01*
Y32928D01*
X1004Y32917D01*
Y32904D01*
X1004Y32890D01*
X1005Y32876D01*
X1006Y32861D01*
X1007Y32845D01*
X1008Y32830D01*
X1009Y32815D01*
X1011Y32800D01*
X1012Y32787D01*
X1014Y32775D01*
X1017Y32764D01*
Y32764D01*
X1017Y32762D01*
X1018Y32759D01*
X1019Y32756D01*
X1021Y32752D01*
X1022Y32748D01*
X1026Y32737D01*
X1031Y32726D01*
X1037Y32715D01*
X1044Y32705D01*
X1047Y32701D01*
X1051Y32697D01*
X1052Y32697D01*
X1055Y32694D01*
X1059Y32692D01*
X1065Y32689D01*
X1072Y32686D01*
X1080Y32683D01*
X1089Y32681D01*
X1099Y32681D01*
X1100D01*
X1103Y32681D01*
X1108Y32682D01*
X1115Y32683D01*
X1122Y32684D01*
X1130Y32688D01*
X1138Y32692D01*
X1146Y32697D01*
X1147Y32698D01*
X1150Y32701D01*
X1153Y32705D01*
X1158Y32711D01*
X1163Y32720D01*
X1166Y32725D01*
X1169Y32730D01*
X1172Y32737D01*
X1174Y32743D01*
X1177Y32750D01*
X1179Y32758D01*
Y32759D01*
X1179Y32761D01*
X1181Y32764D01*
X1181Y32769D01*
X1183Y32775D01*
X1184Y32783D01*
X1185Y32792D01*
X1187Y32804D01*
X1188Y32816D01*
X1189Y32830D01*
X1191Y32846D01*
X1192Y32863D01*
X1193Y32882D01*
X1194Y32903D01*
X1194Y32925D01*
Y32950D01*
Y32950D01*
Y32951D01*
Y32953D01*
Y32956D01*
Y32959D01*
Y32962D01*
Y32971D01*
X1194Y32982D01*
Y32995D01*
X1193Y33008D01*
X1193Y33023D01*
X1192Y33038D01*
X1191Y33054D01*
X1190Y33069D01*
X1188Y33084D01*
X1187Y33099D01*
X1185Y33113D01*
X1183Y33124D01*
X1181Y33135D01*
Y33135D01*
X1180Y33137D01*
X1179Y33140D01*
X1178Y33143D01*
X1177Y33147D01*
X1175Y33151D01*
X1171Y33162D01*
X1166Y33173D01*
X1160Y33185D01*
X1153Y33194D01*
X1150Y33199D01*
X1146Y33202D01*
X1145Y33203D01*
X1142Y33205D01*
X1138Y33208D01*
X1132Y33211D01*
X1125Y33214D01*
X1117Y33217D01*
X1108Y33219D01*
X1099Y33219D01*
D02*
G37*
G36*
X3173Y33840D02*
X3172D01*
X3172Y33839D01*
X3170Y33838D01*
X3167Y33838D01*
X3165Y33837D01*
X3161Y33836D01*
X3156Y33835D01*
X3151Y33833D01*
X3145Y33832D01*
X3138Y33830D01*
X3131Y33828D01*
X3122Y33826D01*
X3114Y33824D01*
X3104Y33822D01*
X3094Y33819D01*
X3083Y33817D01*
X3082D01*
X3080Y33816D01*
X3077Y33816D01*
X3073Y33815D01*
X3068Y33814D01*
X3062Y33812D01*
X3050Y33809D01*
X3037Y33805D01*
X3023Y33801D01*
X3017Y33798D01*
X3012Y33796D01*
X3007Y33794D01*
X3003Y33791D01*
X3002D01*
X3002Y33790D01*
X2998Y33787D01*
X2994Y33783D01*
X2989Y33777D01*
X2983Y33770D01*
X2979Y33761D01*
X2976Y33750D01*
X2975Y33745D01*
X2975Y33739D01*
Y33739D01*
Y33738D01*
Y33737D01*
X2975Y33734D01*
X2976Y33728D01*
X2977Y33721D01*
X2980Y33713D01*
X2984Y33704D01*
X2990Y33695D01*
X2997Y33686D01*
X2998Y33685D01*
X3002Y33683D01*
X3007Y33679D01*
X3013Y33675D01*
X3022Y33671D01*
X3032Y33667D01*
X3043Y33665D01*
X3056Y33664D01*
X3060D01*
X3063Y33665D01*
X3067D01*
X3070Y33666D01*
X3080Y33667D01*
X3092Y33671D01*
X3105Y33675D01*
X3118Y33682D01*
X3125Y33686D01*
X3132Y33690D01*
X3132D01*
X3133Y33691D01*
X3136Y33693D01*
X3141Y33698D01*
X3146Y33703D01*
X3152Y33711D01*
X3158Y33719D01*
X3163Y33728D01*
X3167Y33738D01*
X3167Y33739D01*
X3168Y33742D01*
X3168Y33744D01*
X3169Y33747D01*
X3170Y33750D01*
X3170Y33754D01*
X3171Y33759D01*
X3171Y33764D01*
Y33770D01*
X3172Y33776D01*
X3172Y33784D01*
X3173Y33792D01*
Y33801D01*
Y33810D01*
Y33840D01*
D02*
G37*
G36*
X2391Y34212D02*
X2250D01*
Y34035D01*
X2390D01*
X2399Y34036D01*
X2428D01*
X2436Y34036D01*
X2445D01*
X2452Y34037D01*
X2459D01*
X2464Y34037D01*
X2465D01*
X2467Y34038D01*
X2470Y34038D01*
X2474Y34039D01*
X2477Y34040D01*
X2486Y34043D01*
X2496Y34046D01*
X2506Y34051D01*
X2516Y34057D01*
X2526Y34065D01*
X2527Y34066D01*
X2529Y34069D01*
X2533Y34074D01*
X2537Y34081D01*
X2542Y34089D01*
X2545Y34100D01*
X2548Y34111D01*
X2549Y34125D01*
Y34125D01*
Y34126D01*
Y34128D01*
X2548Y34131D01*
X2548Y34137D01*
X2547Y34145D01*
X2544Y34155D01*
X2541Y34164D01*
X2536Y34173D01*
X2529Y34182D01*
X2528Y34183D01*
X2525Y34186D01*
X2521Y34189D01*
X2514Y34194D01*
X2506Y34199D01*
X2496Y34203D01*
X2485Y34207D01*
X2471Y34209D01*
X2468D01*
X2465Y34210D01*
X2462D01*
X2457Y34211D01*
X2452D01*
X2445Y34211D01*
X2428D01*
X2418Y34212D01*
X2405D01*
X2391Y34212D01*
D02*
G37*
G36*
X2394Y33908D02*
X2250D01*
Y33703D01*
X2421D01*
X2429Y33703D01*
X2438D01*
X2456Y33704D01*
X2465Y33704D01*
X2474D01*
X2481Y33705D01*
X2488Y33706D01*
X2495Y33707D01*
X2500Y33707D01*
X2500D01*
X2501Y33708D01*
X2503D01*
X2505Y33708D01*
X2512Y33711D01*
X2519Y33713D01*
X2528Y33717D01*
X2538Y33723D01*
X2547Y33729D01*
X2555Y33738D01*
Y33738D01*
X2557Y33739D01*
X2559Y33742D01*
X2563Y33748D01*
X2567Y33755D01*
X2570Y33764D01*
X2574Y33775D01*
X2576Y33789D01*
X2578Y33803D01*
Y33804D01*
Y33805D01*
Y33806D01*
Y33809D01*
X2576Y33815D01*
X2575Y33823D01*
X2573Y33832D01*
X2570Y33842D01*
X2566Y33852D01*
X2560Y33861D01*
Y33862D01*
X2560Y33862D01*
X2557Y33865D01*
X2554Y33869D01*
X2548Y33875D01*
X2542Y33881D01*
X2533Y33887D01*
X2523Y33892D01*
X2512Y33897D01*
X2512D01*
X2511Y33897D01*
X2509Y33898D01*
X2506Y33898D01*
X2502Y33899D01*
X2497Y33900D01*
X2491Y33901D01*
X2483Y33902D01*
X2475Y33903D01*
X2465Y33904D01*
X2454Y33905D01*
X2441Y33906D01*
X2427Y33907D01*
X2411Y33907D01*
X2394Y33908D01*
D02*
G37*
G36*
X4140Y34028D02*
X4135D01*
X4131Y34028D01*
X4127Y34027D01*
X4121Y34026D01*
X4116Y34025D01*
X4109Y34023D01*
X4103Y34021D01*
X4095Y34018D01*
X4088Y34015D01*
X4080Y34011D01*
X4073Y34006D01*
X4066Y34001D01*
X4059Y33994D01*
X4052Y33987D01*
X4052Y33986D01*
X4050Y33985D01*
X4049Y33982D01*
X4047Y33979D01*
X4044Y33975D01*
X4041Y33970D01*
X4038Y33963D01*
X4035Y33956D01*
X4032Y33948D01*
X4028Y33939D01*
X4026Y33928D01*
X4023Y33917D01*
X4021Y33905D01*
X4019Y33892D01*
X4018Y33877D01*
X4017Y33862D01*
Y33861D01*
Y33858D01*
Y33854D01*
X4018Y33848D01*
X4018Y33841D01*
X4019Y33833D01*
X4019Y33824D01*
X4021Y33814D01*
X4024Y33794D01*
X4029Y33773D01*
X4032Y33762D01*
X4036Y33752D01*
X4039Y33743D01*
X4044Y33735D01*
X4045Y33734D01*
X4046Y33733D01*
X4048Y33729D01*
X4052Y33726D01*
X4055Y33722D01*
X4060Y33717D01*
X4065Y33711D01*
X4072Y33706D01*
X4078Y33701D01*
X4086Y33695D01*
X4094Y33690D01*
X4103Y33686D01*
X4113Y33682D01*
X4123Y33680D01*
X4134Y33677D01*
X4146Y33677D01*
X4148D01*
X4151Y33677D01*
X4154D01*
X4158Y33678D01*
X4163Y33679D01*
X4168Y33680D01*
X4175Y33682D01*
X4181Y33684D01*
X4187Y33687D01*
X4194Y33690D01*
X4201Y33694D01*
X4208Y33699D01*
X4216Y33704D01*
X4222Y33711D01*
X4229Y33718D01*
X4229Y33719D01*
X4230Y33720D01*
X4232Y33723D01*
X4234Y33726D01*
X4237Y33730D01*
X4240Y33736D01*
X4243Y33743D01*
X4246Y33750D01*
X4249Y33759D01*
X4252Y33769D01*
X4255Y33779D01*
X4258Y33791D01*
X4260Y33804D01*
X4261Y33818D01*
X4263Y33833D01*
X4263Y33849D01*
Y33849D01*
Y33850D01*
Y33853D01*
Y33858D01*
X4263Y33864D01*
X4262Y33872D01*
X4261Y33881D01*
X4260Y33891D01*
X4259Y33902D01*
X4255Y33924D01*
X4252Y33936D01*
X4248Y33947D01*
X4244Y33958D01*
X4240Y33969D01*
X4234Y33978D01*
X4228Y33986D01*
X4228Y33987D01*
X4227Y33988D01*
X4225Y33990D01*
X4222Y33993D01*
X4219Y33996D01*
X4214Y34000D01*
X4210Y34003D01*
X4204Y34007D01*
X4198Y34011D01*
X4192Y34015D01*
X4185Y34018D01*
X4177Y34022D01*
X4168Y34024D01*
X4160Y34027D01*
X4150Y34028D01*
X4140Y34028D01*
D02*
G37*
G36*
X5357Y35204D02*
X5254D01*
Y34986D01*
X5353D01*
X5360Y34986D01*
X5368D01*
X5378Y34987D01*
X5387Y34987D01*
X5408Y34988D01*
X5428Y34991D01*
X5437Y34992D01*
X5446Y34993D01*
X5453Y34995D01*
X5460Y34997D01*
X5460D01*
X5461Y34998D01*
X5462Y34998D01*
X5465Y35000D01*
X5470Y35002D01*
X5477Y35007D01*
X5485Y35012D01*
X5493Y35018D01*
X5501Y35026D01*
X5508Y35035D01*
Y35036D01*
X5509Y35036D01*
X5510Y35038D01*
X5511Y35039D01*
X5514Y35045D01*
X5517Y35052D01*
X5521Y35061D01*
X5523Y35071D01*
X5526Y35083D01*
X5526Y35095D01*
Y35095D01*
Y35096D01*
Y35099D01*
X5526Y35102D01*
Y35105D01*
X5525Y35110D01*
X5523Y35119D01*
X5520Y35130D01*
X5516Y35142D01*
X5510Y35153D01*
X5506Y35159D01*
X5501Y35164D01*
Y35165D01*
X5500Y35165D01*
X5497Y35168D01*
X5492Y35173D01*
X5485Y35179D01*
X5475Y35185D01*
X5465Y35190D01*
X5453Y35195D01*
X5439Y35198D01*
X5438D01*
X5436Y35199D01*
X5434Y35199D01*
X5430D01*
X5426Y35200D01*
X5421Y35201D01*
X5415Y35201D01*
X5408Y35202D01*
X5400Y35202D01*
X5391Y35203D01*
X5381D01*
X5369Y35203D01*
X5357Y35204D01*
D02*
G37*
G36*
X7757Y35022D02*
X7752D01*
X7749Y35022D01*
X7744Y35021D01*
X7739Y35021D01*
X7734Y35019D01*
X7728Y35018D01*
X7716Y35013D01*
X7709Y35011D01*
X7703Y35007D01*
X7696Y35003D01*
X7690Y34998D01*
X7683Y34993D01*
X7677Y34987D01*
X7676Y34986D01*
X7676Y34985D01*
X7674Y34983D01*
X7672Y34980D01*
X7670Y34977D01*
X7667Y34972D01*
X7664Y34967D01*
X7661Y34962D01*
X7658Y34955D01*
X7655Y34948D01*
X7653Y34940D01*
X7650Y34932D01*
X7649Y34923D01*
X7647Y34913D01*
X7646Y34903D01*
Y34892D01*
X7866D01*
Y34892D01*
Y34894D01*
X7866Y34898D01*
Y34902D01*
X7865Y34908D01*
X7864Y34914D01*
X7863Y34920D01*
X7861Y34928D01*
X7857Y34943D01*
X7851Y34959D01*
X7848Y34967D01*
X7843Y34975D01*
X7839Y34982D01*
X7833Y34988D01*
X7832Y34989D01*
X7831Y34990D01*
X7830Y34992D01*
X7827Y34994D01*
X7824Y34996D01*
X7821Y34999D01*
X7816Y35002D01*
X7811Y35006D01*
X7800Y35012D01*
X7788Y35017D01*
X7780Y35019D01*
X7773Y35021D01*
X7765Y35022D01*
X7757Y35022D01*
D02*
G37*
G36*
X7144D02*
X7139D01*
X7135Y35022D01*
X7131Y35021D01*
X7125Y35020D01*
X7120Y35019D01*
X7113Y35017D01*
X7106Y35015D01*
X7099Y35012D01*
X7092Y35009D01*
X7084Y35005D01*
X7077Y35000D01*
X7070Y34995D01*
X7063Y34988D01*
X7056Y34981D01*
X7056Y34980D01*
X7054Y34979D01*
X7053Y34976D01*
X7051Y34973D01*
X7048Y34969D01*
X7045Y34964D01*
X7042Y34957D01*
X7039Y34950D01*
X7036Y34941D01*
X7032Y34933D01*
X7030Y34922D01*
X7027Y34911D01*
X7025Y34899D01*
X7023Y34885D01*
X7022Y34871D01*
X7021Y34856D01*
Y34855D01*
Y34852D01*
Y34848D01*
X7022Y34842D01*
X7022Y34835D01*
X7023Y34827D01*
X7023Y34818D01*
X7025Y34808D01*
X7028Y34787D01*
X7033Y34766D01*
X7036Y34756D01*
X7039Y34746D01*
X7043Y34737D01*
X7048Y34729D01*
X7049Y34728D01*
X7050Y34727D01*
X7052Y34723D01*
X7056Y34720D01*
X7059Y34715D01*
X7064Y34711D01*
X7069Y34705D01*
X7075Y34700D01*
X7082Y34694D01*
X7090Y34689D01*
X7098Y34684D01*
X7107Y34680D01*
X7117Y34676D01*
X7127Y34673D01*
X7138Y34671D01*
X7150Y34671D01*
X7152D01*
X7155Y34671D01*
X7158D01*
X7162Y34672D01*
X7167Y34673D01*
X7172Y34674D01*
X7178Y34676D01*
X7185Y34678D01*
X7191Y34681D01*
X7198Y34684D01*
X7205Y34688D01*
X7212Y34693D01*
X7219Y34698D01*
X7226Y34705D01*
X7233Y34712D01*
X7233Y34713D01*
X7234Y34714D01*
X7236Y34717D01*
X7238Y34720D01*
X7240Y34724D01*
X7244Y34730D01*
X7247Y34737D01*
X7250Y34744D01*
X7253Y34753D01*
X7256Y34763D01*
X7259Y34773D01*
X7262Y34785D01*
X7264Y34797D01*
X7265Y34812D01*
X7267Y34827D01*
X7267Y34843D01*
Y34843D01*
Y34844D01*
Y34847D01*
Y34852D01*
X7267Y34858D01*
X7266Y34866D01*
X7265Y34875D01*
X7264Y34885D01*
X7263Y34896D01*
X7259Y34918D01*
X7256Y34930D01*
X7252Y34941D01*
X7248Y34952D01*
X7244Y34962D01*
X7238Y34972D01*
X7232Y34980D01*
X7232Y34981D01*
X7231Y34982D01*
X7229Y34984D01*
X7226Y34987D01*
X7223Y34990D01*
X7218Y34993D01*
X7214Y34997D01*
X7208Y35001D01*
X7202Y35005D01*
X7196Y35009D01*
X7188Y35012D01*
X7181Y35016D01*
X7172Y35018D01*
X7164Y35021D01*
X7154Y35022D01*
X7144Y35022D01*
D02*
G37*
G36*
X6480Y35015D02*
X6475D01*
X6471Y35015D01*
X6466Y35014D01*
X6460Y35013D01*
X6454Y35011D01*
X6446Y35010D01*
X6439Y35007D01*
X6431Y35005D01*
X6423Y35001D01*
X6415Y34996D01*
X6407Y34991D01*
X6399Y34985D01*
X6391Y34979D01*
X6383Y34971D01*
X6383Y34970D01*
X6382Y34969D01*
X6380Y34966D01*
X6377Y34962D01*
X6374Y34958D01*
X6371Y34952D01*
X6368Y34946D01*
X6364Y34939D01*
X6361Y34930D01*
X6357Y34921D01*
X6353Y34910D01*
X6351Y34899D01*
X6348Y34887D01*
X6346Y34874D01*
X6345Y34859D01*
X6345Y34845D01*
Y34843D01*
Y34841D01*
Y34837D01*
X6345Y34831D01*
X6346Y34824D01*
X6347Y34816D01*
X6348Y34807D01*
X6350Y34797D01*
X6351Y34787D01*
X6354Y34777D01*
X6357Y34766D01*
X6361Y34756D01*
X6366Y34746D01*
X6371Y34736D01*
X6377Y34727D01*
X6383Y34718D01*
X6384Y34717D01*
X6385Y34716D01*
X6387Y34714D01*
X6391Y34711D01*
X6394Y34708D01*
X6399Y34704D01*
X6404Y34700D01*
X6410Y34696D01*
X6417Y34692D01*
X6424Y34688D01*
X6432Y34684D01*
X6441Y34681D01*
X6450Y34678D01*
X6460Y34676D01*
X6470Y34675D01*
X6480Y34674D01*
X6483D01*
X6486Y34675D01*
X6490D01*
X6495Y34675D01*
X6501Y34676D01*
X6507Y34678D01*
X6514Y34680D01*
X6521Y34682D01*
X6529Y34684D01*
X6537Y34688D01*
X6545Y34692D01*
X6553Y34697D01*
X6561Y34703D01*
X6569Y34710D01*
X6577Y34718D01*
X6577Y34718D01*
X6578Y34720D01*
X6580Y34722D01*
X6583Y34726D01*
X6585Y34730D01*
X6589Y34736D01*
X6593Y34743D01*
X6596Y34750D01*
X6600Y34759D01*
X6604Y34768D01*
X6607Y34779D01*
X6610Y34790D01*
X6612Y34802D01*
X6614Y34816D01*
X6615Y34830D01*
X6616Y34845D01*
Y34846D01*
Y34849D01*
Y34853D01*
X6615Y34858D01*
X6615Y34866D01*
X6614Y34873D01*
X6613Y34882D01*
X6611Y34892D01*
X6609Y34902D01*
X6606Y34912D01*
X6603Y34922D01*
X6599Y34933D01*
X6595Y34943D01*
X6589Y34953D01*
X6584Y34962D01*
X6577Y34971D01*
X6576Y34971D01*
X6575Y34972D01*
X6573Y34975D01*
X6569Y34978D01*
X6566Y34981D01*
X6561Y34985D01*
X6556Y34989D01*
X6550Y34993D01*
X6543Y34997D01*
X6536Y35001D01*
X6528Y35005D01*
X6520Y35008D01*
X6511Y35011D01*
X6501Y35013D01*
X6491Y35015D01*
X6480Y35015D01*
D02*
G37*
G36*
X3356Y35022D02*
X3352D01*
X3348Y35022D01*
X3344Y35021D01*
X3339Y35021D01*
X3334Y35019D01*
X3328Y35018D01*
X3316Y35013D01*
X3309Y35011D01*
X3302Y35007D01*
X3295Y35003D01*
X3289Y34998D01*
X3282Y34993D01*
X3276Y34987D01*
X3276Y34986D01*
X3275Y34985D01*
X3274Y34983D01*
X3271Y34980D01*
X3269Y34977D01*
X3266Y34972D01*
X3264Y34967D01*
X3261Y34962D01*
X3258Y34955D01*
X3255Y34948D01*
X3253Y34940D01*
X3250Y34932D01*
X3248Y34923D01*
X3247Y34913D01*
X3245Y34903D01*
Y34892D01*
X3466D01*
Y34892D01*
Y34894D01*
X3465Y34898D01*
Y34902D01*
X3465Y34908D01*
X3464Y34914D01*
X3462Y34920D01*
X3461Y34928D01*
X3457Y34943D01*
X3451Y34959D01*
X3447Y34967D01*
X3443Y34975D01*
X3438Y34982D01*
X3433Y34988D01*
X3432Y34989D01*
X3431Y34990D01*
X3429Y34992D01*
X3427Y34994D01*
X3424Y34996D01*
X3420Y34999D01*
X3416Y35002D01*
X3411Y35006D01*
X3400Y35012D01*
X3387Y35017D01*
X3380Y35019D01*
X3372Y35021D01*
X3364Y35022D01*
X3356Y35022D01*
D02*
G37*
%LPD*%
D10*
X15380Y38700D02*
G03*
X15380Y38700I-125J0D01*
G01*
X23130Y26950D02*
G03*
X23130Y26950I-125J0D01*
G01*
X11050Y27903D02*
G03*
X11050Y27903I-125J0D01*
G01*
X12500Y36000D02*
X17500D01*
Y44500D01*
X7500Y36000D02*
Y44500D01*
Y36000D02*
X12500D01*
D11*
X14275Y36575D02*
G03*
X14275Y36575I-300J0D01*
G01*
X22025Y24825D02*
G03*
X22025Y24825I-300J0D01*
G01*
D12*
X10750Y24148D02*
G03*
X10750Y24148I-250J0D01*
G01*
D13*
X15651Y19607D02*
X15851D01*
X15649Y17893D02*
X15849D01*
X14420Y21158D02*
Y21342D01*
X16090Y21158D02*
Y21342D01*
X10050Y37550D02*
X14950D01*
X10050Y34450D02*
X14950D01*
Y37550D01*
X10050Y34450D02*
Y37550D01*
X5130Y32332D02*
X5370D01*
X5130Y31168D02*
X5370D01*
X10880Y16418D02*
X11120D01*
X10880Y17582D02*
X11120D01*
X8380D02*
X8620D01*
X8380Y16418D02*
X8620D01*
X5418Y29630D02*
Y29870D01*
X6582Y29630D02*
Y29870D01*
X3918Y29630D02*
Y29870D01*
X5082Y29630D02*
Y29870D01*
X1168Y14880D02*
Y15120D01*
X2332Y14880D02*
Y15120D01*
X3818Y14730D02*
Y14970D01*
X4982Y14730D02*
Y14970D01*
X3718Y17270D02*
X3882D01*
X3718Y16230D02*
X3882Y16230D01*
X3682Y14730D02*
Y14970D01*
X2518Y14970D02*
X2518Y14730D01*
X11230Y10580D02*
X13770D01*
Y420D02*
Y10580D01*
X11230Y420D02*
X13770D01*
X11230D02*
Y10580D01*
X19658Y28170D02*
X19842D01*
X19658Y29840D02*
X19842D01*
X18908Y19580D02*
X19092D01*
X18908Y17910D02*
X19092D01*
X21908Y17920D02*
X22092D01*
X21908Y19590D02*
X22092D01*
X17800Y25800D02*
X22700Y25800D01*
X17800Y22700D02*
X22700Y22700D01*
Y25800D01*
X17800Y22700D02*
Y25800D01*
X4518Y9820D02*
X4682D01*
X4518Y8780D02*
X4682Y8780D01*
X4480Y7318D02*
X4720D01*
X4480Y8482D02*
X4720D01*
X2930Y13505D02*
X5225Y13505D01*
X2930Y10442D02*
X5608Y10442D01*
X2930Y12343D02*
X2930Y11549D01*
X10777Y13025D02*
Y15475D01*
X7720Y12682D02*
Y15475D01*
X8582Y10880D02*
Y11120D01*
X7418Y10880D02*
Y11120D01*
X9918Y12270D02*
X10082D01*
X9918Y11230D02*
X10082Y11230D01*
X2668Y22370D02*
X2668Y22130D01*
X3832Y22130D02*
Y22370D01*
X21350Y12125D02*
X22650D01*
X20925Y13875D02*
X22650Y13875D01*
X3770Y24918D02*
Y25082D01*
X2730Y25082D02*
X2730Y24918D01*
X11918Y22380D02*
Y22620D01*
X13082Y22380D02*
Y22620D01*
X18901Y13857D02*
X19101Y13857D01*
X18899Y12143D02*
X19099D01*
X21658Y10170D02*
X21842D01*
X21658Y11840D02*
X21842D01*
X22380Y16582D02*
X22620Y16582D01*
X22380Y15418D02*
X22620Y15418D01*
X18658Y15830D02*
X18842D01*
X18658Y14160D02*
X18842D01*
X18658Y11830D02*
X18842D01*
X18658Y10160D02*
X18842D01*
X22380Y14168D02*
X22620D01*
X22380Y15332D02*
X22620Y15332D01*
X1180Y11268D02*
Y11432D01*
X2220Y11268D02*
Y11432D01*
X8668Y29270D02*
X8832D01*
X8668Y28230D02*
X8832Y28230D01*
D14*
X11250Y22102D02*
Y24898D01*
X4750Y22102D02*
X11250D01*
X4750D02*
Y24898D01*
X11250D01*
M02*
