G04*
G04 #@! TF.GenerationSoftware,Altium Limited,Altium Designer,23.3.1 (30)*
G04*
G04 Layer_Physical_Order=2*
G04 Layer_Color=36540*
%FSLAX43Y43*%
%MOMM*%
G71*
G04*
G04 #@! TF.SameCoordinates,291B95C8-E4AE-492A-8979-900EF43719B7*
G04*
G04*
G04 #@! TF.FilePolarity,Positive*
G04*
G01*
G75*
G04:AMPARAMS|DCode=61|XSize=1.925mm|YSize=1.925mm|CornerRadius=0.193mm|HoleSize=0mm|Usage=FLASHONLY|Rotation=270.000|XOffset=0mm|YOffset=0mm|HoleType=Round|Shape=RoundedRectangle|*
%AMROUNDEDRECTD61*
21,1,1.925,1.540,0,0,270.0*
21,1,1.540,1.925,0,0,270.0*
1,1,0.385,-0.770,-0.770*
1,1,0.385,-0.770,0.770*
1,1,0.385,0.770,0.770*
1,1,0.385,0.770,-0.770*
%
%ADD61ROUNDEDRECTD61*%
%ADD64C,0.700*%
G36*
X24490Y8796D02*
X24401Y8728D01*
X24340Y8702D01*
X24217Y8739D01*
X24070Y8754D01*
X23923Y8739D01*
X23782Y8696D01*
X23651Y8627D01*
X23537Y8533D01*
X23443Y8419D01*
X23374Y8288D01*
X23331Y8147D01*
X23316Y8000D01*
Y7000D01*
X23331Y6853D01*
X23374Y6712D01*
X23443Y6581D01*
X23537Y6467D01*
X23651Y6373D01*
X23782Y6304D01*
X23923Y6261D01*
X24070Y6246D01*
X24217Y6261D01*
X24340Y6298D01*
X24401Y6272D01*
X24490Y6204D01*
X24490Y3686D01*
X24401Y3618D01*
X24340Y3592D01*
X24217Y3629D01*
X24070Y3644D01*
X23923Y3629D01*
X23782Y3586D01*
X23651Y3517D01*
X23537Y3423D01*
X23443Y3309D01*
X23374Y3178D01*
X23331Y3037D01*
X23316Y2890D01*
Y1390D01*
X23331Y1243D01*
X23374Y1102D01*
X23443Y971D01*
X23537Y857D01*
X23651Y763D01*
X23782Y694D01*
X23894Y660D01*
X23871Y510D01*
X15629D01*
X15606Y660D01*
X15718Y694D01*
X15849Y763D01*
X15963Y857D01*
X16057Y971D01*
X16126Y1102D01*
X16169Y1243D01*
X16184Y1390D01*
Y2890D01*
X16169Y3037D01*
X16126Y3178D01*
X16057Y3309D01*
X15963Y3423D01*
X15849Y3517D01*
X15718Y3586D01*
X15577Y3629D01*
X15430Y3644D01*
X15283Y3629D01*
X15142Y3586D01*
X15011Y3517D01*
X14897Y3423D01*
X14803Y3309D01*
X14734Y3178D01*
X14691Y3037D01*
X14676Y2890D01*
Y1390D01*
X14691Y1243D01*
X14734Y1102D01*
X14803Y971D01*
X14897Y857D01*
X15011Y763D01*
X15142Y694D01*
X15254Y660D01*
X15231Y510D01*
X13075D01*
X13039Y660D01*
X13109Y696D01*
X13257Y803D01*
X13387Y933D01*
X13494Y1081D01*
X13577Y1244D01*
X13634Y1418D01*
X13663Y1599D01*
Y1781D01*
X13634Y1962D01*
X13577Y2136D01*
X13494Y2299D01*
X13387Y2447D01*
X13257Y2577D01*
X13109Y2684D01*
X12946Y2767D01*
X12772Y2824D01*
X12591Y2852D01*
X12409D01*
X12228Y2824D01*
X12054Y2767D01*
X11891Y2684D01*
X11743Y2577D01*
X11613Y2447D01*
X11506Y2299D01*
X11423Y2136D01*
X11366Y1962D01*
X11337Y1781D01*
Y1599D01*
X11366Y1418D01*
X11423Y1244D01*
X11506Y1081D01*
X11613Y933D01*
X11743Y803D01*
X11891Y696D01*
X11961Y660D01*
X11925Y510D01*
X510D01*
X510Y44490D01*
X24490Y44490D01*
X24490Y8796D01*
D02*
G37*
%LPC*%
G36*
X21638Y43600D02*
X21362D01*
X21089Y43564D01*
X20824Y43493D01*
X20569Y43387D01*
X20331Y43250D01*
X20112Y43082D01*
X19918Y42888D01*
X19750Y42669D01*
X19613Y42431D01*
X19507Y42176D01*
X19436Y41911D01*
X19400Y41638D01*
Y41362D01*
X19436Y41089D01*
X19507Y40824D01*
X19613Y40569D01*
X19750Y40331D01*
X19918Y40112D01*
X20112Y39918D01*
X20331Y39750D01*
X20569Y39613D01*
X20824Y39507D01*
X21089Y39436D01*
X21362Y39400D01*
X21638D01*
X21911Y39436D01*
X22176Y39507D01*
X22431Y39613D01*
X22669Y39750D01*
X22888Y39918D01*
X23082Y40112D01*
X23250Y40331D01*
X23387Y40569D01*
X23493Y40824D01*
X23564Y41089D01*
X23600Y41362D01*
Y41638D01*
X23564Y41911D01*
X23493Y42176D01*
X23387Y42431D01*
X23250Y42669D01*
X23082Y42888D01*
X22888Y43082D01*
X22669Y43250D01*
X22431Y43387D01*
X22176Y43493D01*
X21911Y43564D01*
X21638Y43600D01*
D02*
G37*
G36*
X3638Y43600D02*
X3362D01*
X3089Y43564D01*
X2824Y43493D01*
X2569Y43387D01*
X2331Y43250D01*
X2112Y43082D01*
X1918Y42888D01*
X1750Y42669D01*
X1613Y42431D01*
X1507Y42176D01*
X1436Y41911D01*
X1400Y41638D01*
Y41362D01*
X1436Y41089D01*
X1507Y40824D01*
X1613Y40569D01*
X1750Y40331D01*
X1918Y40112D01*
X2112Y39918D01*
X2331Y39750D01*
X2569Y39613D01*
X2824Y39507D01*
X3089Y39436D01*
X3362Y39400D01*
X3638D01*
X3911Y39436D01*
X4176Y39507D01*
X4431Y39613D01*
X4669Y39750D01*
X4888Y39918D01*
X5082Y40112D01*
X5250Y40331D01*
X5387Y40569D01*
X5493Y40824D01*
X5564Y41089D01*
X5600Y41362D01*
Y41638D01*
X5564Y41911D01*
X5493Y42176D01*
X5387Y42431D01*
X5250Y42669D01*
X5082Y42888D01*
X4888Y43082D01*
X4669Y43250D01*
X4431Y43387D01*
X4176Y43493D01*
X3911Y43564D01*
X3638Y43600D01*
D02*
G37*
G36*
X14477Y35300D02*
X14333D01*
X14193Y35263D01*
X14067Y35190D01*
X13965Y35088D01*
X13892Y34962D01*
X13855Y34822D01*
Y34678D01*
X13892Y34538D01*
X13965Y34412D01*
X14067Y34310D01*
X14193Y34237D01*
X14333Y34200D01*
X14477D01*
X14617Y34237D01*
X14743Y34310D01*
X14845Y34412D01*
X14918Y34538D01*
X14955Y34678D01*
Y34822D01*
X14918Y34962D01*
X14845Y35088D01*
X14743Y35190D01*
X14617Y35263D01*
X14477Y35300D01*
D02*
G37*
G36*
X10667D02*
X10523D01*
X10383Y35263D01*
X10257Y35190D01*
X10155Y35088D01*
X10082Y34962D01*
X10045Y34822D01*
Y34678D01*
X10082Y34538D01*
X10155Y34412D01*
X10257Y34310D01*
X10383Y34237D01*
X10523Y34200D01*
X10667D01*
X10807Y34237D01*
X10933Y34310D01*
X11035Y34412D01*
X11108Y34538D01*
X11145Y34678D01*
Y34822D01*
X11108Y34962D01*
X11035Y35088D01*
X10933Y35190D01*
X10807Y35263D01*
X10667Y35300D01*
D02*
G37*
G36*
X8572Y31000D02*
X8428D01*
X8288Y30963D01*
X8162Y30890D01*
X8060Y30788D01*
X7987Y30662D01*
X7950Y30522D01*
Y30378D01*
X7987Y30238D01*
X8060Y30112D01*
X8162Y30010D01*
X8288Y29937D01*
X8428Y29900D01*
X8572D01*
X8712Y29937D01*
X8838Y30010D01*
X8940Y30112D01*
X9013Y30238D01*
X9050Y30378D01*
Y30522D01*
X9013Y30662D01*
X8940Y30788D01*
X8838Y30890D01*
X8712Y30963D01*
X8572Y31000D01*
D02*
G37*
G36*
X6072Y28550D02*
X5928D01*
X5788Y28513D01*
X5662Y28440D01*
X5560Y28338D01*
X5487Y28212D01*
X5450Y28072D01*
Y27928D01*
X5487Y27788D01*
X5560Y27662D01*
X5662Y27560D01*
X5788Y27487D01*
X5928Y27450D01*
X6072D01*
X6212Y27487D01*
X6338Y27560D01*
X6440Y27662D01*
X6513Y27788D01*
X6550Y27928D01*
Y28072D01*
X6513Y28212D01*
X6440Y28338D01*
X6338Y28440D01*
X6212Y28513D01*
X6072Y28550D01*
D02*
G37*
G36*
X4572D02*
X4428D01*
X4288Y28513D01*
X4162Y28440D01*
X4060Y28338D01*
X3987Y28212D01*
X3950Y28072D01*
Y27928D01*
X3987Y27788D01*
X4060Y27662D01*
X4162Y27560D01*
X4288Y27487D01*
X4428Y27450D01*
X4572D01*
X4712Y27487D01*
X4838Y27560D01*
X4940Y27662D01*
X5013Y27788D01*
X5050Y27928D01*
Y28072D01*
X5013Y28212D01*
X4940Y28338D01*
X4838Y28440D01*
X4712Y28513D01*
X4572Y28550D01*
D02*
G37*
G36*
X3322Y27190D02*
X3178D01*
X3038Y27153D01*
X2912Y27081D01*
X2810Y26978D01*
X2737Y26853D01*
X2700Y26713D01*
Y26568D01*
X2737Y26428D01*
X2810Y26303D01*
X2912Y26200D01*
X3038Y26128D01*
X3178Y26090D01*
X3322D01*
X3462Y26128D01*
X3588Y26200D01*
X3690Y26303D01*
X3763Y26428D01*
X3800Y26568D01*
Y26713D01*
X3763Y26853D01*
X3690Y26978D01*
X3588Y27081D01*
X3462Y27153D01*
X3322Y27190D01*
D02*
G37*
G36*
X19822Y25800D02*
X19678D01*
X19538Y25763D01*
X19412Y25690D01*
X19310Y25588D01*
X19237Y25462D01*
X19200Y25322D01*
Y25178D01*
X19237Y25038D01*
X19310Y24912D01*
X19412Y24810D01*
X19538Y24737D01*
X19678Y24700D01*
X19822D01*
X19962Y24737D01*
X20088Y24810D01*
X20190Y24912D01*
X20263Y25038D01*
X20300Y25178D01*
Y25322D01*
X20263Y25462D01*
X20190Y25588D01*
X20088Y25690D01*
X19962Y25763D01*
X19822Y25800D01*
D02*
G37*
G36*
X12572Y24800D02*
X12428D01*
X12288Y24763D01*
X12162Y24690D01*
X12060Y24588D01*
X11987Y24462D01*
X11950Y24322D01*
Y24178D01*
X11987Y24038D01*
X12060Y23912D01*
X12162Y23810D01*
X12288Y23737D01*
X12428Y23700D01*
X12572D01*
X12712Y23737D01*
X12838Y23810D01*
X12940Y23912D01*
X13013Y24038D01*
X13050Y24178D01*
Y24322D01*
X13013Y24462D01*
X12940Y24588D01*
X12838Y24690D01*
X12712Y24763D01*
X12572Y24800D01*
D02*
G37*
G36*
X9697Y25300D02*
X9553D01*
X9413Y25263D01*
X9287Y25190D01*
X9185Y25088D01*
X9112Y24962D01*
X9075Y24822D01*
Y24678D01*
X9112Y24538D01*
X9185Y24412D01*
X9287Y24310D01*
X9413Y24237D01*
X9553Y24200D01*
X9604D01*
X9721Y24076D01*
X9725Y24057D01*
Y23928D01*
X9762Y23788D01*
X9835Y23662D01*
X9937Y23560D01*
X10063Y23487D01*
X10203Y23450D01*
X10347D01*
X10487Y23487D01*
X10613Y23560D01*
X10715Y23662D01*
X10788Y23788D01*
X10825Y23928D01*
Y24072D01*
X10788Y24212D01*
X10715Y24338D01*
X10613Y24440D01*
X10487Y24513D01*
X10347Y24550D01*
X10296D01*
X10179Y24674D01*
X10175Y24693D01*
Y24822D01*
X10138Y24962D01*
X10065Y25088D01*
X9963Y25190D01*
X9837Y25263D01*
X9697Y25300D01*
D02*
G37*
G36*
X23822Y23735D02*
X23678D01*
X23538Y23698D01*
X23412Y23625D01*
X23310Y23523D01*
X23237Y23397D01*
X23200Y23257D01*
Y23113D01*
X23237Y22973D01*
X23310Y22847D01*
X23412Y22745D01*
X23538Y22672D01*
X23678Y22635D01*
X23822D01*
X23962Y22672D01*
X24088Y22745D01*
X24190Y22847D01*
X24263Y22973D01*
X24300Y23113D01*
Y23257D01*
X24263Y23397D01*
X24190Y23523D01*
X24088Y23625D01*
X23962Y23698D01*
X23822Y23735D01*
D02*
G37*
G36*
X15322Y23540D02*
X15178D01*
X15038Y23503D01*
X14912Y23431D01*
X14810Y23328D01*
X14737Y23203D01*
X14700Y23063D01*
Y22918D01*
X14737Y22778D01*
X14810Y22653D01*
X14912Y22550D01*
X15038Y22478D01*
X15178Y22440D01*
X15322D01*
X15462Y22478D01*
X15588Y22550D01*
X15690Y22653D01*
X15763Y22778D01*
X15800Y22918D01*
Y23063D01*
X15763Y23203D01*
X15690Y23328D01*
X15588Y23431D01*
X15462Y23503D01*
X15322Y23540D01*
D02*
G37*
G36*
X17072Y20800D02*
X16928D01*
X16788Y20763D01*
X16662Y20690D01*
X16560Y20588D01*
X16487Y20462D01*
X16450Y20322D01*
Y20178D01*
X16487Y20038D01*
X16560Y19912D01*
X16662Y19810D01*
X16788Y19737D01*
X16928Y19700D01*
X17072D01*
X17212Y19737D01*
X17338Y19810D01*
X17440Y19912D01*
X17513Y20038D01*
X17550Y20178D01*
Y20322D01*
X17513Y20462D01*
X17440Y20588D01*
X17338Y20690D01*
X17212Y20763D01*
X17072Y20800D01*
D02*
G37*
G36*
X21322Y20550D02*
X21178D01*
X21038Y20513D01*
X20912Y20440D01*
X20810Y20338D01*
X20737Y20212D01*
X20700Y20072D01*
Y19928D01*
X20737Y19788D01*
X20810Y19662D01*
X20912Y19560D01*
X21038Y19487D01*
X21178Y19450D01*
X21322D01*
X21462Y19487D01*
X21588Y19560D01*
X21690Y19662D01*
X21763Y19788D01*
X21800Y19928D01*
Y20072D01*
X21763Y20212D01*
X21690Y20338D01*
X21588Y20440D01*
X21462Y20513D01*
X21322Y20550D01*
D02*
G37*
G36*
X19822D02*
X19678D01*
X19538Y20513D01*
X19412Y20440D01*
X19310Y20338D01*
X19237Y20212D01*
X19200Y20072D01*
Y19928D01*
X19237Y19788D01*
X19310Y19662D01*
X19412Y19560D01*
X19538Y19487D01*
X19678Y19450D01*
X19822D01*
X19962Y19487D01*
X20088Y19560D01*
X20190Y19662D01*
X20263Y19788D01*
X20300Y19928D01*
Y20072D01*
X20263Y20212D01*
X20190Y20338D01*
X20088Y20440D01*
X19962Y20513D01*
X19822Y20550D01*
D02*
G37*
G36*
X3172Y18300D02*
X3028D01*
X2888Y18263D01*
X2762Y18190D01*
X2660Y18088D01*
X2587Y17962D01*
X2550Y17822D01*
Y17678D01*
X2587Y17538D01*
X2660Y17412D01*
X2762Y17310D01*
X2888Y17237D01*
X3028Y17200D01*
X3172D01*
X3312Y17237D01*
X3438Y17310D01*
X3540Y17412D01*
X3613Y17538D01*
X3650Y17678D01*
Y17822D01*
X3613Y17962D01*
X3540Y18088D01*
X3438Y18190D01*
X3312Y18263D01*
X3172Y18300D01*
D02*
G37*
G36*
X6822Y17300D02*
X6678D01*
X6538Y17263D01*
X6412Y17190D01*
X6310Y17088D01*
X6237Y16962D01*
X6200Y16822D01*
Y16678D01*
X6237Y16538D01*
X6310Y16412D01*
X6412Y16310D01*
X6538Y16237D01*
X6678Y16200D01*
X6822D01*
X6962Y16237D01*
X7088Y16310D01*
X7190Y16412D01*
X7263Y16538D01*
X7300Y16678D01*
Y16822D01*
X7263Y16962D01*
X7190Y17088D01*
X7088Y17190D01*
X6962Y17263D01*
X6822Y17300D01*
D02*
G37*
G36*
X1822D02*
X1678D01*
X1538Y17263D01*
X1412Y17190D01*
X1310Y17088D01*
X1237Y16962D01*
X1200Y16822D01*
Y16678D01*
X1237Y16538D01*
X1310Y16412D01*
X1412Y16310D01*
X1538Y16237D01*
X1678Y16200D01*
X1822D01*
X1962Y16237D01*
X2088Y16310D01*
X2190Y16412D01*
X2263Y16538D01*
X2300Y16678D01*
Y16822D01*
X2263Y16962D01*
X2190Y17088D01*
X2088Y17190D01*
X1962Y17263D01*
X1822Y17300D01*
D02*
G37*
G36*
X14322Y17550D02*
X14178D01*
X14038Y17513D01*
X13912Y17440D01*
X13810Y17338D01*
X13737Y17212D01*
X13700Y17072D01*
Y16928D01*
X13737Y16788D01*
X13810Y16662D01*
X13912Y16560D01*
X14038Y16487D01*
X14178Y16450D01*
X14322D01*
X14462Y16487D01*
X14546Y16536D01*
X14638Y16416D01*
X14560Y16338D01*
X14487Y16212D01*
X14450Y16072D01*
Y15928D01*
X14487Y15788D01*
X14560Y15662D01*
X14662Y15560D01*
X14788Y15487D01*
X14928Y15450D01*
X15072D01*
X15212Y15487D01*
X15338Y15560D01*
X15440Y15662D01*
X15513Y15788D01*
X15550Y15928D01*
Y16072D01*
X15513Y16212D01*
X15440Y16338D01*
X15338Y16440D01*
X15212Y16513D01*
X15072Y16550D01*
X14928D01*
X14788Y16513D01*
X14704Y16464D01*
X14612Y16584D01*
X14690Y16662D01*
X14763Y16788D01*
X14800Y16928D01*
Y17072D01*
X14763Y17212D01*
X14690Y17338D01*
X14588Y17440D01*
X14462Y17513D01*
X14322Y17550D01*
D02*
G37*
G36*
X20822Y16050D02*
X20678D01*
X20538Y16013D01*
X20412Y15940D01*
X20310Y15838D01*
X20237Y15712D01*
X20200Y15572D01*
Y15428D01*
X20237Y15288D01*
X20310Y15162D01*
X20378Y15094D01*
X20399Y15000D01*
X20378Y14906D01*
X20310Y14838D01*
X20237Y14712D01*
X20200Y14572D01*
Y14428D01*
X20237Y14288D01*
X20310Y14162D01*
X20412Y14060D01*
X20538Y13987D01*
X20678Y13950D01*
X20822D01*
X20962Y13987D01*
X21088Y14060D01*
X21190Y14162D01*
X21263Y14288D01*
X21300Y14428D01*
Y14572D01*
X21263Y14712D01*
X21190Y14838D01*
X21122Y14906D01*
X21101Y15000D01*
X21122Y15094D01*
X21190Y15162D01*
X21263Y15288D01*
X21300Y15428D01*
Y15572D01*
X21263Y15712D01*
X21190Y15838D01*
X21088Y15940D01*
X20962Y16013D01*
X20822Y16050D01*
D02*
G37*
G36*
X14822Y14550D02*
X14678D01*
X14538Y14513D01*
X14412Y14440D01*
X14310Y14338D01*
X14237Y14212D01*
X14200Y14072D01*
Y13928D01*
X14237Y13788D01*
X14310Y13662D01*
X14412Y13560D01*
X14538Y13487D01*
X14678Y13450D01*
X14822D01*
X14962Y13487D01*
X15088Y13560D01*
X15190Y13662D01*
X15263Y13788D01*
X15300Y13928D01*
Y14072D01*
X15263Y14212D01*
X15190Y14338D01*
X15088Y14440D01*
X14962Y14513D01*
X14822Y14550D01*
D02*
G37*
G36*
X5922D02*
X5778D01*
X5638Y14513D01*
X5512Y14440D01*
X5410Y14338D01*
X5337Y14212D01*
X5300Y14072D01*
Y13928D01*
X5337Y13788D01*
X5410Y13662D01*
X5512Y13560D01*
X5638Y13487D01*
X5778Y13450D01*
X5922D01*
X6062Y13487D01*
X6188Y13560D01*
X6290Y13662D01*
X6363Y13788D01*
X6400Y13928D01*
Y14072D01*
X6363Y14212D01*
X6290Y14338D01*
X6188Y14440D01*
X6062Y14513D01*
X5922Y14550D01*
D02*
G37*
G36*
X14822Y13235D02*
X14678D01*
X14538Y13198D01*
X14412Y13125D01*
X14310Y13023D01*
X14237Y12897D01*
X14200Y12757D01*
Y12613D01*
X14237Y12473D01*
X14310Y12347D01*
X14412Y12245D01*
X14538Y12172D01*
X14678Y12135D01*
X14822D01*
X14962Y12172D01*
X15088Y12245D01*
X15190Y12347D01*
X15263Y12473D01*
X15300Y12613D01*
Y12757D01*
X15263Y12897D01*
X15190Y13023D01*
X15088Y13125D01*
X14962Y13198D01*
X14822Y13235D01*
D02*
G37*
G36*
X11757D02*
X11613D01*
X11473Y13198D01*
X11347Y13125D01*
X11245Y13023D01*
X11172Y12897D01*
X11135Y12757D01*
Y12613D01*
X11172Y12473D01*
X11245Y12347D01*
X11347Y12245D01*
X11473Y12172D01*
X11613Y12135D01*
X11757D01*
X11897Y12172D01*
X12023Y12245D01*
X12125Y12347D01*
X12198Y12473D01*
X12235Y12613D01*
Y12757D01*
X12198Y12897D01*
X12125Y13023D01*
X12023Y13125D01*
X11897Y13198D01*
X11757Y13235D01*
D02*
G37*
G36*
X6272Y12500D02*
X6128D01*
X5988Y12463D01*
X5862Y12390D01*
X5760Y12288D01*
X5687Y12162D01*
X5650Y12022D01*
Y11878D01*
X5687Y11738D01*
X5760Y11612D01*
X5862Y11510D01*
X5988Y11437D01*
X6128Y11400D01*
X6272D01*
X6412Y11437D01*
X6538Y11510D01*
X6640Y11612D01*
X6713Y11738D01*
X6750Y11878D01*
Y12022D01*
X6713Y12162D01*
X6640Y12288D01*
X6538Y12390D01*
X6412Y12463D01*
X6272Y12500D01*
D02*
G37*
G36*
X2972D02*
X2828D01*
X2688Y12463D01*
X2562Y12390D01*
X2460Y12288D01*
X2387Y12162D01*
X2350Y12022D01*
Y11878D01*
X2387Y11738D01*
X2460Y11612D01*
X2562Y11510D01*
X2688Y11437D01*
X2828Y11400D01*
X2972D01*
X3112Y11437D01*
X3238Y11510D01*
X3340Y11612D01*
X3413Y11738D01*
X3450Y11878D01*
Y12022D01*
X3413Y12162D01*
X3340Y12288D01*
X3238Y12390D01*
X3112Y12463D01*
X2972Y12500D01*
D02*
G37*
G36*
X23822Y11550D02*
X23678D01*
X23538Y11513D01*
X23412Y11440D01*
X23310Y11338D01*
X23237Y11212D01*
X23200Y11072D01*
Y10928D01*
X23237Y10788D01*
X23310Y10662D01*
X23412Y10560D01*
X23538Y10487D01*
X23678Y10450D01*
X23822D01*
X23962Y10487D01*
X24088Y10560D01*
X24190Y10662D01*
X24263Y10788D01*
X24300Y10928D01*
Y11072D01*
X24263Y11212D01*
X24190Y11338D01*
X24088Y11440D01*
X23962Y11513D01*
X23822Y11550D01*
D02*
G37*
G36*
X20822Y10300D02*
X20678D01*
X20538Y10263D01*
X20412Y10190D01*
X20344Y10122D01*
X20250Y10101D01*
X20156Y10122D01*
X20088Y10190D01*
X19962Y10263D01*
X19822Y10300D01*
X19678D01*
X19538Y10263D01*
X19412Y10190D01*
X19310Y10088D01*
X19237Y9962D01*
X19200Y9822D01*
Y9678D01*
X19237Y9538D01*
X19286Y9454D01*
X19166Y9362D01*
X19088Y9440D01*
X18962Y9513D01*
X18822Y9550D01*
X18678D01*
X18538Y9513D01*
X18412Y9440D01*
X18310Y9338D01*
X18237Y9212D01*
X18200Y9072D01*
Y8928D01*
X18237Y8788D01*
X18310Y8662D01*
X18412Y8560D01*
X18538Y8487D01*
X18678Y8450D01*
X18822D01*
X18962Y8487D01*
X19088Y8560D01*
X19190Y8662D01*
X19263Y8788D01*
X19300Y8928D01*
Y9072D01*
X19263Y9212D01*
X19214Y9296D01*
X19334Y9388D01*
X19412Y9310D01*
X19538Y9237D01*
X19678Y9200D01*
X19822D01*
X19962Y9237D01*
X20088Y9310D01*
X20156Y9378D01*
X20250Y9399D01*
X20344Y9378D01*
X20412Y9310D01*
X20538Y9237D01*
X20678Y9200D01*
X20822D01*
X20962Y9237D01*
X21088Y9310D01*
X21190Y9412D01*
X21263Y9538D01*
X21300Y9678D01*
Y9822D01*
X21263Y9962D01*
X21190Y10088D01*
X21088Y10190D01*
X20962Y10263D01*
X20822Y10300D01*
D02*
G37*
G36*
X10322Y11050D02*
X10178D01*
X10038Y11013D01*
X9912Y10940D01*
X9810Y10838D01*
X9737Y10712D01*
X9700Y10572D01*
Y10428D01*
X9737Y10288D01*
X9810Y10162D01*
X9912Y10060D01*
X10038Y9987D01*
X10178Y9950D01*
X10322D01*
X10462Y9987D01*
X10588Y10060D01*
X10690Y10162D01*
X10763Y10288D01*
X10800Y10428D01*
Y10572D01*
X10763Y10712D01*
X10690Y10838D01*
X10588Y10940D01*
X10462Y11013D01*
X10322Y11050D01*
D02*
G37*
G36*
X13270Y10530D02*
X12627D01*
Y9437D01*
X13720D01*
Y10080D01*
X13705Y10197D01*
X13660Y10305D01*
X13588Y10398D01*
X13495Y10470D01*
X13387Y10515D01*
X13270Y10530D01*
D02*
G37*
G36*
X12373D02*
X11730D01*
X11613Y10515D01*
X11505Y10470D01*
X11412Y10398D01*
X11340Y10305D01*
X11295Y10197D01*
X11280Y10080D01*
Y9437D01*
X12373D01*
Y10530D01*
D02*
G37*
G36*
X1822Y10300D02*
X1678D01*
X1538Y10263D01*
X1412Y10190D01*
X1310Y10088D01*
X1237Y9962D01*
X1200Y9822D01*
Y9678D01*
X1237Y9538D01*
X1310Y9412D01*
X1412Y9310D01*
X1538Y9237D01*
X1678Y9200D01*
X1822D01*
X1962Y9237D01*
X2088Y9310D01*
X2190Y9412D01*
X2263Y9538D01*
X2300Y9678D01*
Y9822D01*
X2263Y9962D01*
X2190Y10088D01*
X2088Y10190D01*
X1962Y10263D01*
X1822Y10300D01*
D02*
G37*
G36*
X7072Y9300D02*
X6928D01*
X6788Y9263D01*
X6662Y9190D01*
X6560Y9088D01*
X6487Y8962D01*
X6450Y8822D01*
Y8678D01*
X6487Y8538D01*
X6560Y8412D01*
X6662Y8310D01*
X6788Y8237D01*
X6928Y8200D01*
X7072D01*
X7212Y8237D01*
X7338Y8310D01*
X7440Y8412D01*
X7513Y8538D01*
X7550Y8678D01*
Y8822D01*
X7513Y8962D01*
X7440Y9088D01*
X7338Y9190D01*
X7212Y9263D01*
X7072Y9300D01*
D02*
G37*
G36*
X13720Y9183D02*
X12627D01*
Y8090D01*
X13270D01*
X13387Y8105D01*
X13495Y8150D01*
X13588Y8222D01*
X13660Y8315D01*
X13705Y8423D01*
X13720Y8540D01*
Y9183D01*
D02*
G37*
G36*
X12373D02*
X11280D01*
Y8540D01*
X11295Y8423D01*
X11340Y8315D01*
X11412Y8222D01*
X11505Y8150D01*
X11613Y8105D01*
X11730Y8090D01*
X12373D01*
Y9183D01*
D02*
G37*
G36*
X15430Y8754D02*
X15283Y8739D01*
X15142Y8696D01*
X15011Y8627D01*
X14897Y8533D01*
X14803Y8419D01*
X14734Y8288D01*
X14691Y8147D01*
X14676Y8000D01*
Y7000D01*
X14691Y6853D01*
X14734Y6712D01*
X14803Y6581D01*
X14897Y6467D01*
X15011Y6373D01*
X15142Y6304D01*
X15283Y6261D01*
X15430Y6246D01*
X15577Y6261D01*
X15718Y6304D01*
X15849Y6373D01*
X15963Y6467D01*
X16057Y6581D01*
X16126Y6712D01*
X16169Y6853D01*
X16184Y7000D01*
Y8000D01*
X16169Y8147D01*
X16126Y8288D01*
X16057Y8419D01*
X15963Y8533D01*
X15849Y8627D01*
X15718Y8696D01*
X15577Y8739D01*
X15430Y8754D01*
D02*
G37*
G36*
X9672Y6300D02*
X9528D01*
X9388Y6263D01*
X9262Y6190D01*
X9160Y6088D01*
X9137Y6047D01*
X8963D01*
X8940Y6088D01*
X8838Y6190D01*
X8712Y6263D01*
X8572Y6300D01*
X8428D01*
X8288Y6263D01*
X8162Y6190D01*
X8060Y6088D01*
X8037Y6047D01*
X7863D01*
X7840Y6088D01*
X7738Y6190D01*
X7612Y6263D01*
X7472Y6300D01*
X7328D01*
X7188Y6263D01*
X7062Y6190D01*
X6960Y6088D01*
X6887Y5962D01*
X6850Y5822D01*
Y5678D01*
X6887Y5538D01*
X6960Y5412D01*
X7062Y5310D01*
X7188Y5237D01*
X7328Y5200D01*
X7472D01*
X7612Y5237D01*
X7738Y5310D01*
X7840Y5412D01*
X7863Y5453D01*
X8037D01*
X8060Y5412D01*
X8162Y5310D01*
X8288Y5237D01*
X8428Y5200D01*
X8572D01*
X8712Y5237D01*
X8838Y5310D01*
X8940Y5412D01*
X8963Y5453D01*
X9137D01*
X9160Y5412D01*
X9262Y5310D01*
X9388Y5237D01*
X9528Y5200D01*
X9672D01*
X9812Y5237D01*
X9938Y5310D01*
X10040Y5412D01*
X10113Y5538D01*
X10150Y5678D01*
Y5822D01*
X10113Y5962D01*
X10040Y6088D01*
X9938Y6190D01*
X9812Y6263D01*
X9672Y6300D01*
D02*
G37*
G36*
X3672D02*
X3528D01*
X3388Y6263D01*
X3262Y6190D01*
X3160Y6088D01*
X3137Y6047D01*
X2963D01*
X2940Y6088D01*
X2838Y6190D01*
X2712Y6263D01*
X2572Y6300D01*
X2428D01*
X2288Y6263D01*
X2162Y6190D01*
X2060Y6088D01*
X2037Y6047D01*
X1863D01*
X1840Y6088D01*
X1738Y6190D01*
X1612Y6263D01*
X1472Y6300D01*
X1328D01*
X1188Y6263D01*
X1062Y6190D01*
X960Y6088D01*
X887Y5962D01*
X850Y5822D01*
Y5678D01*
X887Y5538D01*
X960Y5412D01*
X1062Y5310D01*
X1188Y5237D01*
X1328Y5200D01*
X1472D01*
X1612Y5237D01*
X1738Y5310D01*
X1840Y5412D01*
X1863Y5453D01*
X2037D01*
X2060Y5412D01*
X2162Y5310D01*
X2288Y5237D01*
X2428Y5200D01*
X2572D01*
X2712Y5237D01*
X2838Y5310D01*
X2940Y5412D01*
X2963Y5453D01*
X3137D01*
X3160Y5412D01*
X3262Y5310D01*
X3388Y5237D01*
X3528Y5200D01*
X3672D01*
X3812Y5237D01*
X3938Y5310D01*
X4040Y5412D01*
X4113Y5538D01*
X4150Y5678D01*
Y5822D01*
X4113Y5962D01*
X4040Y6088D01*
X3938Y6190D01*
X3812Y6263D01*
X3672Y6300D01*
D02*
G37*
G36*
X12591Y7932D02*
X12409D01*
X12228Y7904D01*
X12054Y7847D01*
X11891Y7764D01*
X11743Y7657D01*
X11613Y7527D01*
X11506Y7379D01*
X11423Y7216D01*
X11366Y7042D01*
X11337Y6861D01*
Y6679D01*
X11366Y6498D01*
X11423Y6324D01*
X11506Y6161D01*
X11613Y6013D01*
X11743Y5883D01*
X11891Y5776D01*
X12054Y5693D01*
X12228Y5636D01*
X12409Y5608D01*
X12591D01*
X12772Y5636D01*
X12946Y5693D01*
X13109Y5776D01*
X13257Y5883D01*
X13387Y6013D01*
X13494Y6161D01*
X13577Y6324D01*
X13634Y6498D01*
X13663Y6679D01*
Y6861D01*
X13634Y7042D01*
X13577Y7216D01*
X13494Y7379D01*
X13387Y7527D01*
X13257Y7657D01*
X13109Y7764D01*
X12946Y7847D01*
X12772Y7904D01*
X12591Y7932D01*
D02*
G37*
G36*
X20572Y6150D02*
X20428D01*
X20288Y6113D01*
X20162Y6040D01*
X20060Y5938D01*
X19987Y5812D01*
X19950Y5672D01*
Y5528D01*
X19987Y5388D01*
X20060Y5262D01*
X20162Y5160D01*
X20288Y5087D01*
X20428Y5050D01*
X20572D01*
X20712Y5087D01*
X20838Y5160D01*
X20940Y5262D01*
X21013Y5388D01*
X21050Y5528D01*
Y5672D01*
X21013Y5812D01*
X20940Y5938D01*
X20838Y6040D01*
X20712Y6113D01*
X20572Y6150D01*
D02*
G37*
G36*
X12591Y5392D02*
X12409D01*
X12228Y5364D01*
X12054Y5307D01*
X11891Y5224D01*
X11743Y5117D01*
X11613Y4987D01*
X11506Y4839D01*
X11423Y4676D01*
X11366Y4502D01*
X11337Y4321D01*
Y4139D01*
X11366Y3958D01*
X11423Y3784D01*
X11506Y3621D01*
X11613Y3473D01*
X11743Y3343D01*
X11891Y3236D01*
X12054Y3153D01*
X12228Y3096D01*
X12409Y3068D01*
X12591D01*
X12772Y3096D01*
X12946Y3153D01*
X13109Y3236D01*
X13257Y3343D01*
X13387Y3473D01*
X13494Y3621D01*
X13577Y3784D01*
X13634Y3958D01*
X13663Y4139D01*
Y4321D01*
X13634Y4502D01*
X13577Y4676D01*
X13494Y4839D01*
X13387Y4987D01*
X13257Y5117D01*
X13109Y5224D01*
X12946Y5307D01*
X12772Y5364D01*
X12591Y5392D01*
D02*
G37*
G36*
X19572Y3615D02*
X19428D01*
X19288Y3578D01*
X19162Y3505D01*
X19060Y3403D01*
X18987Y3277D01*
X18950Y3137D01*
Y2993D01*
X18987Y2853D01*
X19060Y2727D01*
X19162Y2625D01*
X19288Y2552D01*
X19428Y2515D01*
X19572D01*
X19712Y2552D01*
X19838Y2625D01*
X19940Y2727D01*
X20013Y2853D01*
X20050Y2993D01*
Y3137D01*
X20013Y3277D01*
X19940Y3403D01*
X19838Y3505D01*
X19712Y3578D01*
X19572Y3615D01*
D02*
G37*
%LPD*%
D61*
X12500Y9310D02*
D03*
D64*
X11685Y15250D02*
D03*
X10500Y28750D02*
D03*
X7815Y17940D02*
D03*
X3250Y20625D02*
D03*
X16750Y11500D02*
D03*
Y12750D02*
D03*
Y15250D02*
D03*
M02*
