G04*
G04 #@! TF.GenerationSoftware,Altium Limited,Altium Designer,23.3.1 (30)*
G04*
G04 Layer_Color=12040119*
%FSLAX43Y43*%
%MOMM*%
G71*
G04*
G04 #@! TF.SameCoordinates,291B95C8-E4AE-492A-8979-900EF43719B7*
G04*
G04*
G04 #@! TF.FilePolarity,Positive*
G04*
G01*
G75*
%ADD13C,0.150*%
D13*
X3918Y29630D02*
Y29870D01*
X5082Y29630D02*
Y29870D01*
X3520Y29668D02*
X3520Y29832D01*
X2480Y29668D02*
X2480Y29832D01*
X6520Y29668D02*
X6520Y29832D01*
X5480Y29668D02*
X5480Y29832D01*
X6918Y29630D02*
Y29870D01*
X8082Y29630D02*
Y29870D01*
X12574Y16709D02*
X12636Y16771D01*
X12358D02*
X12636D01*
X12574Y15797D02*
X12642Y15729D01*
X12574Y15797D02*
X12574Y16709D01*
X12364Y15729D02*
X12642D01*
X9630Y15668D02*
X9870D01*
X9630Y16832D02*
X9870D01*
X12574Y18209D02*
X12635Y18271D01*
X12358Y18271D02*
X12635Y18271D01*
X12574Y17297D02*
X12642Y17229D01*
X12574Y17297D02*
X12574Y18209D01*
X12364Y17229D02*
X12642Y17229D01*
X9630Y17168D02*
X9870D01*
X9630Y18332D02*
X9870D01*
X12418Y34230D02*
X12582Y34230D01*
X12418Y35270D02*
X12582Y35270D01*
X18918Y11880D02*
Y12120D01*
X20082Y11880D02*
Y12120D01*
X17668Y3630D02*
Y3870D01*
X18832Y3630D02*
Y3870D01*
X20168Y3630D02*
Y3870D01*
X21332Y3630D02*
Y3870D01*
X15525Y15125D02*
X17449D01*
X9475Y8875D02*
X15525D01*
X9475Y15125D02*
X15525D01*
X9462Y11181D02*
Y12821D01*
M02*
