G04*
G04 #@! TF.GenerationSoftware,Altium Limited,Altium Designer,23.3.1 (30)*
G04*
G04 Layer_Color=16711935*
%FSLAX43Y43*%
%MOMM*%
G71*
G04*
G04 #@! TF.SameCoordinates,291B95C8-E4AE-492A-8979-900EF43719B7*
G04*
G04*
G04 #@! TF.FilePolarity,Negative*
G04*
G01*
G75*
G04:AMPARAMS|DCode=38|XSize=0.8mm|YSize=1mm|CornerRadius=0.12mm|HoleSize=0mm|Usage=FLASHONLY|Rotation=180.000|XOffset=0mm|YOffset=0mm|HoleType=Round|Shape=RoundedRectangle|*
%AMROUNDEDRECTD38*
21,1,0.800,0.760,0,0,180.0*
21,1,0.560,1.000,0,0,180.0*
1,1,0.240,-0.280,0.380*
1,1,0.240,0.280,0.380*
1,1,0.240,0.280,-0.380*
1,1,0.240,-0.280,-0.380*
%
%ADD38ROUNDEDRECTD38*%
G04:AMPARAMS|DCode=39|XSize=0.8mm|YSize=1mm|CornerRadius=0.12mm|HoleSize=0mm|Usage=FLASHONLY|Rotation=270.000|XOffset=0mm|YOffset=0mm|HoleType=Round|Shape=RoundedRectangle|*
%AMROUNDEDRECTD39*
21,1,0.800,0.760,0,0,270.0*
21,1,0.560,1.000,0,0,270.0*
1,1,0.240,-0.380,-0.280*
1,1,0.240,-0.380,0.280*
1,1,0.240,0.380,0.280*
1,1,0.240,0.380,-0.280*
%
%ADD39ROUNDEDRECTD39*%
G04:AMPARAMS|DCode=41|XSize=2.765mm|YSize=4.29mm|CornerRadius=0.317mm|HoleSize=0mm|Usage=FLASHONLY|Rotation=180.000|XOffset=0mm|YOffset=0mm|HoleType=Round|Shape=RoundedRectangle|*
%AMROUNDEDRECTD41*
21,1,2.765,3.657,0,0,180.0*
21,1,2.132,4.290,0,0,180.0*
1,1,0.633,-1.066,1.829*
1,1,0.633,1.066,1.829*
1,1,0.633,1.066,-1.829*
1,1,0.633,-1.066,-1.829*
%
%ADD41ROUNDEDRECTD41*%
G04:AMPARAMS|DCode=42|XSize=0.85mm|YSize=1.06mm|CornerRadius=0.125mm|HoleSize=0mm|Usage=FLASHONLY|Rotation=0.000|XOffset=0mm|YOffset=0mm|HoleType=Round|Shape=RoundedRectangle|*
%AMROUNDEDRECTD42*
21,1,0.850,0.810,0,0,0.0*
21,1,0.600,1.060,0,0,0.0*
1,1,0.250,0.300,-0.405*
1,1,0.250,-0.300,-0.405*
1,1,0.250,-0.300,0.405*
1,1,0.250,0.300,0.405*
%
%ADD42ROUNDEDRECTD42*%
G04:AMPARAMS|DCode=51|XSize=0.85mm|YSize=1.06mm|CornerRadius=0.125mm|HoleSize=0mm|Usage=FLASHONLY|Rotation=270.000|XOffset=0mm|YOffset=0mm|HoleType=Round|Shape=RoundedRectangle|*
%AMROUNDEDRECTD51*
21,1,0.850,0.810,0,0,270.0*
21,1,0.600,1.060,0,0,270.0*
1,1,0.250,-0.405,-0.300*
1,1,0.250,-0.405,0.300*
1,1,0.250,0.405,0.300*
1,1,0.250,0.405,-0.300*
%
%ADD51ROUNDEDRECTD51*%
%ADD52C,3.300*%
%ADD53C,2.025*%
G04:AMPARAMS|DCode=54|XSize=2.025mm|YSize=2.025mm|CornerRadius=0.242mm|HoleSize=0mm|Usage=FLASHONLY|Rotation=270.000|XOffset=0mm|YOffset=0mm|HoleType=Round|Shape=RoundedRectangle|*
%AMROUNDEDRECTD54*
21,1,2.025,1.540,0,0,270.0*
21,1,1.540,2.025,0,0,270.0*
1,1,0.485,-0.770,-0.770*
1,1,0.485,-0.770,0.770*
1,1,0.485,0.770,0.770*
1,1,0.485,0.770,-0.770*
%
%ADD54ROUNDEDRECTD54*%
%ADD55O,1.303X2.303*%
%ADD56O,1.200X2.700*%
G04:AMPARAMS|DCode=68|XSize=0.9mm|YSize=0.9mm|CornerRadius=0.13mm|HoleSize=0mm|Usage=FLASHONLY|Rotation=0.000|XOffset=0mm|YOffset=0mm|HoleType=Round|Shape=RoundedRectangle|*
%AMROUNDEDRECTD68*
21,1,0.900,0.640,0,0,0.0*
21,1,0.640,0.900,0,0,0.0*
1,1,0.260,0.320,-0.320*
1,1,0.260,-0.320,-0.320*
1,1,0.260,-0.320,0.320*
1,1,0.260,0.320,0.320*
%
%ADD68ROUNDEDRECTD68*%
G04:AMPARAMS|DCode=69|XSize=1.1mm|YSize=3.2mm|CornerRadius=0.15mm|HoleSize=0mm|Usage=FLASHONLY|Rotation=90.000|XOffset=0mm|YOffset=0mm|HoleType=Round|Shape=RoundedRectangle|*
%AMROUNDEDRECTD69*
21,1,1.100,2.900,0,0,90.0*
21,1,0.800,3.200,0,0,90.0*
1,1,0.300,1.450,0.400*
1,1,0.300,1.450,-0.400*
1,1,0.300,-1.450,-0.400*
1,1,0.300,-1.450,0.400*
%
%ADD69ROUNDEDRECTD69*%
%ADD70R,3.200X1.100*%
D38*
X10435Y16250D02*
D03*
X9065Y16250D02*
D03*
X10435Y17750D02*
D03*
X9065D02*
D03*
D39*
X4500Y29065D02*
D03*
Y30435D02*
D03*
X7500Y29065D02*
D03*
Y30435D02*
D03*
X19500Y11315D02*
D03*
Y12685D02*
D03*
X18250Y3065D02*
D03*
Y4435D02*
D03*
X20750Y3065D02*
D03*
Y4435D02*
D03*
D41*
X2900Y2750D02*
D03*
X8100D02*
D03*
D42*
X11800Y34750D02*
D03*
X13200D02*
D03*
D51*
X3000Y29050D02*
D03*
Y30450D02*
D03*
X6000Y29050D02*
D03*
Y30450D02*
D03*
D52*
X21500Y41500D02*
D03*
X3500Y41500D02*
D03*
D53*
X12500Y1690D02*
D03*
Y4230D02*
D03*
Y6770D02*
D03*
D54*
Y9310D02*
D03*
D55*
X24070Y7500D02*
D03*
X15430D02*
D03*
D56*
X24070Y2140D02*
D03*
X15430D02*
D03*
D68*
X13250Y16250D02*
D03*
X11750D02*
D03*
Y17750D02*
D03*
X13250Y17750D02*
D03*
D69*
X8050Y14000D02*
D03*
X16950Y10000D02*
D03*
X8050D02*
D03*
D70*
X16950Y14000D02*
D03*
M02*
